{"glyphs":{"0":{"ha":833,"x_min":99,"x_max":735,"o":"m 417 975 q 653 847 572 975 q 735 479 735 718 q 653 111 735 239 q 417 -17 572 -17 q 180 111 261 -17 q 99 479 99 239 q 180 847 99 718 q 417 975 261 975 m 417 869 q 235 479 235 869 q 417 88 235 88 q 552 181 506 88 q 599 479 599 275 q 552 776 599 682 q 417 869 506 869 m 417 569 q 482 543 456 569 q 508 479 508 517 q 482 414 508 440 q 417 388 456 388 q 352 414 378 388 q 326 479 326 440 q 352 543 326 517 q 417 569 378 569 z "},"1":{"ha":833,"x_min":124,"x_max":726,"o":"m 726 107 l 726 0 l 163 0 l 163 107 l 397 107 l 397 817 l 182 685 l 124 779 l 413 957 l 531 957 l 531 107 l 726 107 z "},"2":{"ha":833,"x_min":78,"x_max":693,"o":"m 375 975 q 533 940 467 975 q 635 843 600 904 q 671 706 671 782 q 631 538 671 619 q 501 358 590 456 q 250 111 413 260 l 693 111 l 678 0 l 97 0 l 97 104 q 372 383 282 283 q 497 553 461 482 q 532 700 532 624 q 488 821 532 776 q 368 865 444 865 q 258 842 303 865 q 167 764 213 818 l 78 833 q 207 940 136 906 q 375 975 278 975 z "},"3":{"ha":833,"x_min":64,"x_max":704,"o":"m 374 975 q 532 942 464 975 q 637 854 600 910 q 674 733 674 799 q 619 588 674 649 q 485 510 565 526 q 641 441 578 501 q 704 275 704 381 q 662 126 704 193 q 542 22 619 60 q 365 -17 465 -17 q 197 16 276 -17 q 64 113 117 49 l 150 185 q 244 115 189 139 q 360 90 300 90 q 510 140 456 90 q 565 276 565 190 q 372 453 565 453 l 292 453 l 307 554 l 364 554 q 489 596 438 554 q 540 715 540 638 q 491 828 540 788 q 365 869 442 869 q 260 848 307 869 q 165 782 213 826 l 93 861 q 374 975 213 975 z "},"4":{"ha":833,"x_min":94,"x_max":739,"o":"m 739 228 l 619 228 l 619 0 l 492 0 l 492 228 l 94 228 l 94 322 l 372 975 l 483 929 l 235 333 l 493 333 l 504 597 l 619 597 l 619 333 l 739 333 l 739 228 z "},"5":{"ha":833,"x_min":99,"x_max":715,"o":"m 664 854 l 290 854 l 290 567 q 451 607 365 607 q 643 527 571 607 q 715 306 715 447 q 674 137 715 210 q 558 24 633 64 q 383 -17 483 -17 q 99 103 215 -17 l 179 181 q 381 90 265 90 q 525 147 474 90 q 576 307 576 203 q 531 459 576 413 q 410 506 486 506 q 341 498 372 506 q 267 474 310 490 l 163 474 l 163 957 l 683 957 l 664 854 z "},"6":{"ha":833,"x_min":103,"x_max":736,"o":"m 465 626 q 602 592 540 626 q 700 490 664 558 q 736 322 736 421 q 696 144 736 221 q 585 25 656 67 q 428 -17 515 -17 q 181 106 258 -17 q 103 449 103 228 q 147 727 103 608 q 273 910 190 846 q 469 975 356 975 q 663 917 575 975 l 610 829 q 468 869 544 869 q 304 772 365 869 q 239 504 243 674 q 465 626 326 626 m 428 88 q 556 149 513 88 q 600 318 600 210 q 558 475 600 428 q 440 522 517 522 q 328 489 379 522 q 240 397 276 456 q 288 162 243 236 q 428 88 332 88 z "},"7":{"ha":833,"x_min":128,"x_max":707,"o":"m 203 24 l 572 850 l 128 850 l 128 957 l 707 957 l 707 858 l 328 -14 l 203 24 z "},"8":{"ha":833,"x_min":86,"x_max":747,"o":"m 708 729 q 668 610 708 661 q 546 514 628 560 q 694 408 642 474 q 747 257 747 343 q 707 117 747 179 q 591 19 667 54 q 414 -17 515 -17 q 238 19 313 -17 q 125 116 164 54 q 86 254 86 178 q 275 503 86 417 q 161 592 197 542 q 125 722 125 643 q 168 861 125 804 q 278 947 211 918 q 417 975 346 975 q 560 948 493 975 q 667 865 626 921 q 708 729 708 810 m 254 721 q 277 642 254 672 q 340 592 300 611 q 454 547 379 572 q 550 625 521 586 q 579 724 579 664 q 537 833 579 793 q 417 874 494 874 q 297 833 339 874 q 254 721 254 793 m 608 256 q 580 351 608 314 q 503 410 551 388 q 364 465 456 433 q 225 257 225 399 q 274 133 225 178 q 414 88 322 88 q 558 135 507 88 q 608 256 608 182 z "},"9":{"ha":833,"x_min":88,"x_max":722,"o":"m 403 974 q 642 875 561 974 q 722 601 722 776 q 669 282 722 403 q 504 91 615 161 q 200 -31 393 21 l 169 68 q 472 211 369 121 q 582 458 574 301 q 486 378 543 408 q 358 347 429 347 q 219 385 281 347 q 122 492 157 422 q 88 653 88 561 q 129 826 88 753 q 242 936 171 899 q 403 974 314 974 m 386 451 q 585 565 500 451 q 544 799 588 731 q 403 868 501 868 q 270 813 315 868 q 225 651 225 758 q 386 451 225 451 z "},"\r":{"ha":833,"x_min":0,"x_max":0,"o":""}," ":{"ha":833,"x_min":0,"x_max":0,"o":""},"A":{"ha":833,"x_min":21,"x_max":813,"o":"m 232 239 l 160 0 l 21 0 l 331 957 l 503 957 l 813 0 l 667 0 l 594 239 l 232 239 m 563 349 l 414 846 l 264 349 l 563 349 z "},"Á":{"ha":833,"x_min":21,"x_max":813,"o":"m 232 239 l 160 0 l 21 0 l 331 957 l 503 957 l 813 0 l 667 0 l 594 239 l 232 239 m 563 349 l 414 846 l 264 349 l 563 349 m 588 1158 l 286 1049 l 251 1119 l 531 1269 l 588 1158 z "},"Ă":{"ha":833,"x_min":21,"x_max":813,"o":"m 232 239 l 160 0 l 21 0 l 331 957 l 503 957 l 813 0 l 667 0 l 594 239 l 232 239 m 563 349 l 414 846 l 264 349 l 563 349 m 414 1053 q 270 1101 328 1053 q 204 1225 213 1149 l 290 1244 q 414 1153 322 1153 q 494 1177 461 1153 q 542 1244 526 1201 l 628 1225 q 560 1101 619 1149 q 414 1053 500 1053 z "},"Â":{"ha":833,"x_min":21,"x_max":813,"o":"m 232 239 l 160 0 l 21 0 l 331 957 l 503 957 l 813 0 l 667 0 l 594 239 l 232 239 m 563 349 l 414 846 l 264 349 l 563 349 m 649 1118 l 593 1053 l 417 1167 l 242 1053 l 185 1118 l 374 1272 l 461 1272 l 649 1118 z "},"Ä":{"ha":833,"x_min":21,"x_max":813,"o":"m 232 239 l 160 0 l 21 0 l 331 957 l 503 957 l 813 0 l 667 0 l 594 239 l 232 239 m 563 349 l 414 846 l 264 349 l 563 349 m 269 1064 q 211 1087 235 1064 q 188 1144 188 1110 q 211 1202 188 1179 q 269 1225 235 1225 q 328 1202 304 1225 q 351 1144 351 1179 q 328 1087 351 1110 q 269 1064 304 1064 m 563 1064 q 504 1087 528 1064 q 481 1144 481 1110 q 504 1202 481 1179 q 563 1225 528 1225 q 622 1202 599 1225 q 644 1144 644 1179 q 621 1087 644 1110 q 563 1064 597 1064 z "},"À":{"ha":833,"x_min":21,"x_max":813,"o":"m 232 239 l 160 0 l 21 0 l 331 957 l 503 957 l 813 0 l 667 0 l 594 239 l 232 239 m 563 349 l 414 846 l 264 349 l 563 349 m 582 1119 l 544 1049 l 251 1163 l 319 1272 l 582 1119 z "},"Ā":{"ha":833,"x_min":21,"x_max":813,"o":"m 232 239 l 160 0 l 21 0 l 331 957 l 503 957 l 813 0 l 667 0 l 594 239 l 232 239 m 563 349 l 414 846 l 264 349 l 563 349 m 225 1101 l 225 1200 l 607 1200 l 607 1101 l 225 1101 z "},"Ą":{"ha":833,"x_min":21,"x_max":813,"o":"m 747 0 q 613 -78 649 -42 q 576 -158 576 -115 q 654 -225 576 -225 q 739 -215 692 -225 l 726 -314 q 639 -324 678 -324 q 510 -284 558 -324 q 463 -182 463 -244 q 511 -63 463 -114 q 660 25 560 -12 l 594 239 l 232 239 l 160 0 l 21 0 l 331 957 l 503 957 l 813 0 l 747 0 m 563 349 l 414 846 l 264 349 l 563 349 z "},"Å":{"ha":833,"x_min":21,"x_max":813,"o":"m 232 239 l 160 0 l 21 0 l 331 957 l 503 957 l 813 0 l 667 0 l 594 239 l 232 239 m 563 349 l 414 846 l 264 349 l 563 349 m 417 1319 q 531 1276 486 1319 q 576 1171 576 1233 q 531 1065 576 1108 q 417 1022 486 1022 q 301 1065 347 1022 q 256 1171 256 1108 q 301 1276 256 1233 q 417 1319 347 1319 m 417 1247 q 363 1227 383 1247 q 343 1171 343 1207 q 363 1114 343 1135 q 417 1093 383 1093 q 470 1114 451 1093 q 489 1171 489 1135 q 470 1227 489 1207 q 417 1247 451 1247 z "},"Ã":{"ha":833,"x_min":21,"x_max":813,"o":"m 232 239 l 160 0 l 21 0 l 331 957 l 503 957 l 813 0 l 667 0 l 594 239 l 232 239 m 563 349 l 414 846 l 264 349 l 563 349 m 497 1076 q 449 1086 471 1076 q 401 1114 428 1096 q 366 1136 381 1129 q 336 1143 351 1143 q 297 1128 314 1143 q 263 1079 281 1113 l 183 1118 q 248 1209 210 1175 q 336 1243 286 1243 q 386 1233 365 1243 q 433 1204 407 1222 q 451 1193 438 1201 q 475 1181 464 1185 q 497 1176 486 1176 q 535 1191 518 1176 q 571 1238 551 1206 l 650 1199 q 585 1108 624 1139 q 497 1076 546 1076 z "},"Æ":{"ha":833,"x_min":-17,"x_max":843,"o":"m 186 239 l 122 0 l -17 0 l 258 957 l 786 957 l 771 850 l 454 850 l 522 539 l 774 539 l 774 432 l 542 432 l 610 107 l 843 107 l 843 0 l 501 0 l 454 239 l 186 239 m 432 349 l 335 853 l 215 349 l 432 349 z "},"Ǽ":{"ha":833,"x_min":-17,"x_max":843,"o":"m 186 239 l 122 0 l -17 0 l 258 957 l 786 957 l 771 850 l 454 850 l 522 539 l 774 539 l 774 432 l 542 432 l 610 107 l 843 107 l 843 0 l 501 0 l 454 239 l 186 239 m 432 349 l 335 853 l 215 349 l 432 349 m 669 1158 l 368 1049 l 333 1119 l 613 1269 l 669 1158 z "},"B":{"ha":833,"x_min":125,"x_max":757,"o":"m 757 274 q 653 65 757 129 q 392 0 549 0 l 125 0 l 125 957 l 372 957 q 618 901 521 957 q 715 715 715 844 q 665 576 715 629 q 538 507 614 524 q 757 274 757 469 m 575 706 q 528 815 575 781 q 393 850 482 850 l 263 850 l 263 554 l 404 554 q 575 706 575 554 m 613 272 q 559 407 613 368 q 414 446 506 446 l 263 446 l 263 111 l 408 111 q 613 272 613 111 z "},"C":{"ha":833,"x_min":81,"x_max":793,"o":"m 497 975 q 653 951 589 975 q 779 879 718 928 l 706 792 q 506 863 621 863 q 303 771 381 863 q 225 479 225 679 q 301 190 225 282 q 504 99 376 99 q 626 120 576 99 q 725 179 676 142 l 793 92 q 672 13 744 43 q 501 -17 599 -17 q 285 41 381 -17 q 135 210 190 99 q 81 479 81 322 q 136 747 81 635 q 287 917 192 860 q 497 975 382 975 z "},"Ć":{"ha":833,"x_min":81,"x_max":793,"o":"m 497 975 q 653 951 589 975 q 779 879 718 928 l 706 792 q 506 863 621 863 q 303 771 381 863 q 225 479 225 679 q 301 190 225 282 q 504 99 376 99 q 626 120 576 99 q 725 179 676 142 l 793 92 q 672 13 744 43 q 501 -17 599 -17 q 285 41 381 -17 q 135 210 190 99 q 81 479 81 322 q 136 747 81 635 q 287 917 192 860 q 497 975 382 975 m 678 1158 l 376 1049 l 342 1119 l 621 1269 l 678 1158 z "},"Č":{"ha":833,"x_min":81,"x_max":793,"o":"m 497 975 q 653 951 589 975 q 779 879 718 928 l 706 792 q 506 863 621 863 q 303 771 381 863 q 225 479 225 679 q 301 190 225 282 q 504 99 376 99 q 626 120 576 99 q 725 179 676 142 l 793 92 q 672 13 744 43 q 501 -17 599 -17 q 285 41 381 -17 q 135 210 190 99 q 81 479 81 322 q 136 747 81 635 q 287 917 192 860 q 497 975 382 975 m 739 1201 l 551 1047 l 464 1047 l 275 1201 l 332 1265 l 507 1153 l 683 1265 l 739 1201 z "},"Ç":{"ha":833,"x_min":81,"x_max":793,"o":"m 517 -78 q 615 -117 582 -83 q 647 -196 647 -150 q 597 -299 647 -262 q 472 -336 547 -336 q 390 -327 429 -336 q 324 -301 351 -318 l 363 -229 q 456 -251 407 -251 q 538 -196 538 -251 q 508 -151 538 -162 q 417 -139 478 -139 l 426 -11 q 247 67 325 6 q 124 234 168 129 q 81 479 81 339 q 136 747 81 635 q 287 917 192 860 q 497 975 382 975 q 653 951 589 975 q 779 879 718 928 l 706 792 q 506 863 621 863 q 303 771 381 863 q 225 479 225 679 q 301 190 225 282 q 504 99 376 99 q 626 120 576 99 q 725 179 676 142 l 793 92 q 677 15 746 44 q 517 -17 608 -14 l 517 -78 z "},"Ĉ":{"ha":833,"x_min":81,"x_max":793,"o":"m 497 975 q 653 951 589 975 q 779 879 718 928 l 706 792 q 506 863 621 863 q 303 771 381 863 q 225 479 225 679 q 301 190 225 282 q 504 99 376 99 q 626 120 576 99 q 725 179 676 142 l 793 92 q 672 13 744 43 q 501 -17 599 -17 q 285 41 381 -17 q 135 210 190 99 q 81 479 81 322 q 136 747 81 635 q 287 917 192 860 q 497 975 382 975 m 739 1118 l 683 1053 l 507 1167 l 332 1053 l 275 1118 l 464 1272 l 551 1272 l 739 1118 z "},"Ċ":{"ha":833,"x_min":81,"x_max":793,"o":"m 497 975 q 653 951 589 975 q 779 879 718 928 l 706 792 q 506 863 621 863 q 303 771 381 863 q 225 479 225 679 q 301 190 225 282 q 504 99 376 99 q 626 120 576 99 q 725 179 676 142 l 793 92 q 672 13 744 43 q 501 -17 599 -17 q 285 41 381 -17 q 135 210 190 99 q 81 479 81 322 q 136 747 81 635 q 287 917 192 860 q 497 975 382 975 m 506 1249 q 573 1223 547 1249 q 599 1160 599 1197 q 573 1096 599 1121 q 506 1071 547 1071 q 440 1096 465 1071 q 414 1160 414 1121 q 440 1223 414 1197 q 506 1249 465 1249 z "},"D":{"ha":833,"x_min":108,"x_max":772,"o":"m 772 483 q 647 106 772 211 q 335 0 521 0 l 108 0 l 108 957 l 319 957 q 648 856 524 957 q 772 483 772 754 m 626 483 q 549 774 626 700 q 349 849 472 849 l 246 849 l 246 108 l 350 108 q 549 191 471 108 q 626 483 626 274 z "},"Ð":{"ha":833,"x_min":25,"x_max":786,"o":"m 333 957 q 662 856 538 957 q 786 483 786 754 q 660 106 786 211 q 349 0 535 0 l 122 0 l 122 440 l 25 440 l 25 540 l 122 540 l 122 957 l 333 957 m 364 108 q 563 191 485 108 q 640 483 640 274 q 563 774 640 700 q 363 849 486 849 l 260 849 l 260 540 l 472 540 l 472 440 l 260 440 l 260 108 l 364 108 z "},"Ď":{"ha":833,"x_min":108,"x_max":772,"o":"m 772 483 q 647 106 772 211 q 335 0 521 0 l 108 0 l 108 957 l 319 957 q 648 856 524 957 q 772 483 772 754 m 626 483 q 549 774 626 700 q 349 849 472 849 l 246 849 l 246 108 l 350 108 q 549 191 471 108 q 626 483 626 274 m 626 1201 l 439 1047 l 351 1047 l 163 1201 l 219 1265 l 394 1153 l 571 1265 l 626 1201 z "},"Đ":{"ha":833,"x_min":25,"x_max":786,"o":"m 333 957 q 662 856 538 957 q 786 483 786 754 q 660 106 786 211 q 349 0 535 0 l 122 0 l 122 440 l 25 440 l 25 540 l 122 540 l 122 957 l 333 957 m 364 108 q 563 191 485 108 q 640 483 640 274 q 563 774 640 700 q 363 849 486 849 l 260 849 l 260 540 l 472 540 l 472 440 l 260 440 l 260 108 l 364 108 z "},"E":{"ha":833,"x_min":167,"x_max":735,"o":"m 304 540 l 657 540 l 657 432 l 304 432 l 304 108 l 735 108 l 735 0 l 167 0 l 167 957 l 725 957 l 708 849 l 304 849 l 304 540 z "},"É":{"ha":833,"x_min":167,"x_max":735,"o":"m 304 540 l 657 540 l 657 432 l 304 432 l 304 108 l 735 108 l 735 0 l 167 0 l 167 957 l 725 957 l 708 849 l 304 849 l 304 540 m 617 1158 l 315 1049 l 281 1119 l 560 1269 l 617 1158 z "},"Ĕ":{"ha":833,"x_min":167,"x_max":735,"o":"m 304 540 l 657 540 l 657 432 l 304 432 l 304 108 l 735 108 l 735 0 l 167 0 l 167 957 l 725 957 l 708 849 l 304 849 l 304 540 m 443 1053 q 299 1101 357 1053 q 233 1225 242 1149 l 319 1244 q 443 1153 351 1153 q 523 1177 490 1153 q 571 1244 556 1201 l 657 1225 q 589 1101 649 1149 q 443 1053 529 1053 z "},"Ě":{"ha":833,"x_min":167,"x_max":735,"o":"m 304 540 l 657 540 l 657 432 l 304 432 l 304 108 l 735 108 l 735 0 l 167 0 l 167 957 l 725 957 l 708 849 l 304 849 l 304 540 m 678 1201 l 490 1047 l 403 1047 l 214 1201 l 271 1265 l 446 1153 l 622 1265 l 678 1201 z "},"Ê":{"ha":833,"x_min":167,"x_max":735,"o":"m 304 540 l 657 540 l 657 432 l 304 432 l 304 108 l 735 108 l 735 0 l 167 0 l 167 957 l 725 957 l 708 849 l 304 849 l 304 540 m 678 1118 l 622 1053 l 446 1167 l 271 1053 l 214 1118 l 403 1272 l 490 1272 l 678 1118 z "},"Ë":{"ha":833,"x_min":167,"x_max":735,"o":"m 304 540 l 657 540 l 657 432 l 304 432 l 304 108 l 735 108 l 735 0 l 167 0 l 167 957 l 725 957 l 708 849 l 304 849 l 304 540 m 299 1064 q 240 1087 264 1064 q 217 1144 217 1110 q 240 1202 217 1179 q 299 1225 264 1225 q 357 1202 333 1225 q 381 1144 381 1179 q 357 1087 381 1110 q 299 1064 333 1064 m 592 1064 q 533 1087 557 1064 q 510 1144 510 1110 q 533 1202 510 1179 q 592 1225 557 1225 q 651 1202 628 1225 q 674 1144 674 1179 q 650 1087 674 1110 q 592 1064 626 1064 z "},"Ė":{"ha":833,"x_min":167,"x_max":735,"o":"m 304 540 l 657 540 l 657 432 l 304 432 l 304 108 l 735 108 l 735 0 l 167 0 l 167 957 l 725 957 l 708 849 l 304 849 l 304 540 m 444 1249 q 512 1223 486 1249 q 538 1160 538 1197 q 512 1096 538 1121 q 444 1071 486 1071 q 378 1096 404 1071 q 353 1160 353 1121 q 378 1223 353 1197 q 444 1249 404 1249 z "},"È":{"ha":833,"x_min":167,"x_max":735,"o":"m 304 540 l 657 540 l 657 432 l 304 432 l 304 108 l 735 108 l 735 0 l 167 0 l 167 957 l 725 957 l 708 849 l 304 849 l 304 540 m 611 1119 l 574 1049 l 281 1163 l 349 1272 l 611 1119 z "},"Ē":{"ha":833,"x_min":167,"x_max":735,"o":"m 304 540 l 657 540 l 657 432 l 304 432 l 304 108 l 735 108 l 735 0 l 167 0 l 167 957 l 725 957 l 708 849 l 304 849 l 304 540 m 254 1101 l 254 1200 l 636 1200 l 636 1101 l 254 1101 z "},"Ę":{"ha":833,"x_min":167,"x_max":735,"o":"m 735 108 l 735 0 l 650 0 q 515 -78 551 -42 q 479 -158 479 -115 q 557 -225 479 -225 q 642 -215 594 -225 l 629 -314 q 542 -324 581 -324 q 413 -284 461 -324 q 365 -182 365 -244 q 504 0 365 -68 l 167 0 l 167 957 l 725 957 l 708 849 l 304 849 l 304 540 l 657 540 l 657 432 l 304 432 l 304 108 l 735 108 z "},"F":{"ha":833,"x_min":185,"x_max":760,"o":"m 324 526 l 692 526 l 692 418 l 324 418 l 324 0 l 185 0 l 185 957 l 760 957 l 744 849 l 324 849 l 324 526 z "},"G":{"ha":833,"x_min":58,"x_max":756,"o":"m 439 -17 q 159 110 260 -17 q 58 479 58 236 q 115 749 58 638 q 264 918 171 861 q 467 975 357 975 q 621 949 557 975 q 744 867 685 922 l 664 783 q 573 843 619 824 q 468 863 526 863 q 278 771 353 863 q 204 479 204 679 q 265 186 204 278 q 447 94 325 94 q 619 139 542 94 l 619 418 l 442 418 l 426 528 l 756 528 l 756 68 q 606 5 681 26 q 439 -17 532 -17 z "},"Ğ":{"ha":833,"x_min":58,"x_max":756,"o":"m 439 -17 q 159 110 260 -17 q 58 479 58 236 q 115 749 58 638 q 264 918 171 861 q 467 975 357 975 q 621 949 557 975 q 744 867 685 922 l 664 783 q 573 843 619 824 q 468 863 526 863 q 278 771 353 863 q 204 479 204 679 q 265 186 204 278 q 447 94 325 94 q 619 139 542 94 l 619 418 l 442 418 l 426 528 l 756 528 l 756 68 q 606 5 681 26 q 439 -17 532 -17 m 456 1053 q 312 1101 369 1053 q 246 1225 254 1149 l 332 1244 q 456 1153 364 1153 q 535 1177 503 1153 q 583 1244 568 1201 l 669 1225 q 601 1101 661 1149 q 456 1053 542 1053 z "},"Ĝ":{"ha":833,"x_min":58,"x_max":756,"o":"m 439 -17 q 159 110 260 -17 q 58 479 58 236 q 115 749 58 638 q 264 918 171 861 q 467 975 357 975 q 621 949 557 975 q 744 867 685 922 l 664 783 q 573 843 619 824 q 468 863 526 863 q 278 771 353 863 q 204 479 204 679 q 265 186 204 278 q 447 94 325 94 q 619 139 542 94 l 619 418 l 442 418 l 426 528 l 756 528 l 756 68 q 606 5 681 26 q 439 -17 532 -17 m 690 1118 l 635 1053 l 458 1167 l 283 1053 l 226 1118 l 415 1272 l 503 1272 l 690 1118 z "},"Ģ":{"ha":833,"x_min":58,"x_max":756,"o":"m 439 -17 q 159 110 260 -17 q 58 479 58 236 q 115 749 58 638 q 264 918 171 861 q 467 975 357 975 q 621 949 557 975 q 744 867 685 922 l 664 783 q 573 843 619 824 q 468 863 526 863 q 278 771 353 863 q 204 479 204 679 q 265 186 204 278 q 447 94 325 94 q 619 139 542 94 l 619 418 l 442 418 l 426 528 l 756 528 l 756 68 q 606 5 681 26 q 439 -17 532 -17 m 463 -97 q 520 -119 497 -97 q 543 -176 543 -142 q 521 -258 543 -210 l 451 -406 l 374 -406 l 414 -243 q 382 -176 382 -218 q 405 -119 382 -142 q 463 -97 428 -97 z "},"Ġ":{"ha":833,"x_min":58,"x_max":756,"o":"m 439 -17 q 159 110 260 -17 q 58 479 58 236 q 115 749 58 638 q 264 918 171 861 q 467 975 357 975 q 621 949 557 975 q 744 867 685 922 l 664 783 q 573 843 619 824 q 468 863 526 863 q 278 771 353 863 q 204 479 204 679 q 265 186 204 278 q 447 94 325 94 q 619 139 542 94 l 619 418 l 442 418 l 426 528 l 756 528 l 756 68 q 606 5 681 26 q 439 -17 532 -17 m 457 1249 q 524 1223 499 1249 q 550 1160 550 1197 q 524 1096 550 1121 q 457 1071 499 1071 q 391 1096 417 1071 q 365 1160 365 1121 q 391 1223 365 1197 q 457 1249 417 1249 z "},"H":{"ha":833,"x_min":108,"x_max":725,"o":"m 588 446 l 246 446 l 246 0 l 108 0 l 108 957 l 246 957 l 246 560 l 588 560 l 588 957 l 725 957 l 725 0 l 588 0 l 588 446 z "},"Ħ":{"ha":833,"x_min":3,"x_max":831,"o":"m 831 706 l 724 706 l 724 0 l 586 0 l 586 446 l 247 446 l 247 0 l 110 0 l 110 706 l 3 706 l 3 803 l 110 803 l 110 957 l 247 957 l 247 803 l 586 803 l 586 957 l 724 957 l 724 803 l 831 803 l 831 706 m 586 706 l 247 706 l 247 558 l 586 558 l 586 706 z "},"Ĥ":{"ha":833,"x_min":108,"x_max":725,"o":"m 588 446 l 246 446 l 246 0 l 108 0 l 108 957 l 246 957 l 246 560 l 588 560 l 588 957 l 725 957 l 725 0 l 588 0 l 588 446 m 649 1118 l 593 1053 l 417 1167 l 242 1053 l 185 1118 l 374 1272 l 461 1272 l 649 1118 z "},"I":{"ha":833,"x_min":136,"x_max":697,"o":"m 697 850 l 486 850 l 486 108 l 697 108 l 697 0 l 136 0 l 136 108 l 347 108 l 347 850 l 136 850 l 136 957 l 697 957 l 697 850 z "},"Ĳ":{"ha":833,"x_min":15,"x_max":744,"o":"m 267 -99 q 476 -38 401 -83 q 578 80 550 7 q 607 261 607 153 l 607 851 l 286 851 l 286 107 l 390 107 l 390 0 l 15 0 l 15 107 l 147 107 l 147 851 l 15 851 l 15 957 l 744 957 l 744 257 q 642 -53 744 67 q 283 -200 540 -174 l 267 -99 z "},"Í":{"ha":833,"x_min":136,"x_max":697,"o":"m 697 850 l 486 850 l 486 108 l 697 108 l 697 0 l 136 0 l 136 108 l 347 108 l 347 850 l 136 850 l 136 957 l 697 957 l 697 850 m 588 1158 l 286 1049 l 251 1119 l 531 1269 l 588 1158 z "},"Ĭ":{"ha":833,"x_min":136,"x_max":697,"o":"m 697 850 l 486 850 l 486 108 l 697 108 l 697 0 l 136 0 l 136 108 l 347 108 l 347 850 l 136 850 l 136 957 l 697 957 l 697 850 m 414 1053 q 270 1101 328 1053 q 204 1225 213 1149 l 290 1244 q 414 1153 322 1153 q 494 1177 461 1153 q 542 1244 526 1201 l 628 1225 q 560 1101 619 1149 q 414 1053 500 1053 z "},"Î":{"ha":833,"x_min":136,"x_max":697,"o":"m 697 850 l 486 850 l 486 108 l 697 108 l 697 0 l 136 0 l 136 108 l 347 108 l 347 850 l 136 850 l 136 957 l 697 957 l 697 850 m 649 1118 l 593 1053 l 417 1167 l 242 1053 l 185 1118 l 374 1272 l 461 1272 l 649 1118 z "},"Ï":{"ha":833,"x_min":136,"x_max":697,"o":"m 697 850 l 486 850 l 486 108 l 697 108 l 697 0 l 136 0 l 136 108 l 347 108 l 347 850 l 136 850 l 136 957 l 697 957 l 697 850 m 269 1064 q 211 1087 235 1064 q 188 1144 188 1110 q 211 1202 188 1179 q 269 1225 235 1225 q 328 1202 304 1225 q 351 1144 351 1179 q 328 1087 351 1110 q 269 1064 304 1064 m 563 1064 q 504 1087 528 1064 q 481 1144 481 1110 q 504 1202 481 1179 q 563 1225 528 1225 q 622 1202 599 1225 q 644 1144 644 1179 q 621 1087 644 1110 q 563 1064 597 1064 z "},"İ":{"ha":833,"x_min":136,"x_max":697,"o":"m 697 850 l 486 850 l 486 108 l 697 108 l 697 0 l 136 0 l 136 108 l 347 108 l 347 850 l 136 850 l 136 957 l 697 957 l 697 850 m 415 1249 q 483 1223 457 1249 q 508 1160 508 1197 q 483 1096 508 1121 q 415 1071 457 1071 q 349 1096 375 1071 q 324 1160 324 1121 q 349 1223 324 1197 q 415 1249 375 1249 z "},"Ì":{"ha":833,"x_min":136,"x_max":697,"o":"m 697 850 l 486 850 l 486 108 l 697 108 l 697 0 l 136 0 l 136 108 l 347 108 l 347 850 l 136 850 l 136 957 l 697 957 l 697 850 m 582 1119 l 544 1049 l 251 1163 l 319 1272 l 582 1119 z "},"Ī":{"ha":833,"x_min":136,"x_max":697,"o":"m 697 850 l 486 850 l 486 108 l 697 108 l 697 0 l 136 0 l 136 108 l 347 108 l 347 850 l 136 850 l 136 957 l 697 957 l 697 850 m 225 1101 l 225 1200 l 607 1200 l 607 1101 l 225 1101 z "},"Į":{"ha":833,"x_min":136,"x_max":697,"o":"m 486 850 l 486 108 l 697 108 l 697 0 l 486 0 q 351 -78 388 -42 q 315 -158 315 -115 q 393 -225 315 -225 q 478 -215 431 -225 l 465 -314 q 378 -324 417 -324 q 249 -284 297 -324 q 201 -182 201 -244 q 340 0 201 -68 l 136 0 l 136 108 l 347 108 l 347 850 l 136 850 l 136 957 l 697 957 l 697 850 l 486 850 z "},"Ĩ":{"ha":833,"x_min":136,"x_max":697,"o":"m 697 850 l 486 850 l 486 108 l 697 108 l 697 0 l 136 0 l 136 108 l 347 108 l 347 850 l 136 850 l 136 957 l 697 957 l 697 850 m 497 1076 q 449 1086 471 1076 q 401 1114 428 1096 q 366 1136 381 1129 q 336 1143 351 1143 q 297 1128 314 1143 q 263 1079 281 1113 l 183 1118 q 248 1209 210 1175 q 336 1243 286 1243 q 386 1233 365 1243 q 433 1204 407 1222 q 451 1193 438 1201 q 475 1181 464 1185 q 497 1176 486 1176 q 535 1191 518 1176 q 571 1238 551 1206 l 650 1199 q 585 1108 624 1139 q 497 1076 546 1076 z "},"J":{"ha":833,"x_min":93,"x_max":697,"o":"m 697 322 q 616 81 697 179 q 360 -17 535 -17 q 93 71 211 -17 l 151 160 q 357 94 257 94 q 505 156 451 94 q 558 328 558 218 l 558 849 l 274 849 l 274 957 l 697 957 l 697 322 z "},"Ĵ":{"ha":833,"x_min":93,"x_max":718,"o":"m 697 322 q 616 81 697 179 q 360 -17 535 -17 q 93 71 211 -17 l 151 160 q 357 94 257 94 q 505 156 451 94 q 558 328 558 218 l 558 849 l 274 849 l 274 957 l 697 957 l 697 322 m 718 1118 l 663 1053 l 486 1167 l 311 1053 l 254 1118 l 443 1272 l 531 1272 l 718 1118 z "},"K":{"ha":833,"x_min":136,"x_max":819,"o":"m 136 0 l 136 957 l 274 957 l 274 0 l 136 0 m 638 957 l 793 957 l 436 519 l 819 0 l 651 0 l 281 511 l 638 957 z "},"Ķ":{"ha":833,"x_min":136,"x_max":819,"o":"m 136 0 l 136 957 l 274 957 l 274 0 l 136 0 m 638 957 l 793 957 l 436 519 l 819 0 l 651 0 l 281 511 l 638 957 m 447 -97 q 505 -119 482 -97 q 528 -176 528 -142 q 506 -258 528 -210 l 436 -406 l 358 -406 l 399 -243 q 367 -176 367 -218 q 390 -119 367 -142 q 447 -97 413 -97 z "},"L":{"ha":833,"x_min":179,"x_max":750,"o":"m 179 957 l 317 957 l 317 119 l 750 119 l 735 0 l 179 0 l 179 957 z "},"Ĺ":{"ha":833,"x_min":83,"x_max":750,"o":"m 179 957 l 317 957 l 317 119 l 750 119 l 735 0 l 179 0 l 179 957 m 419 1158 l 118 1049 l 83 1119 l 363 1269 l 419 1158 z "},"Ľ":{"ha":833,"x_min":179,"x_max":750,"o":"m 179 957 l 317 957 l 317 119 l 750 119 l 735 0 l 179 0 l 179 957 m 557 957 l 476 697 l 399 710 l 436 972 l 557 957 z "},"Ļ":{"ha":833,"x_min":179,"x_max":750,"o":"m 179 957 l 317 957 l 317 119 l 750 119 l 735 0 l 179 0 l 179 957 m 461 -97 q 519 -119 496 -97 q 542 -176 542 -142 q 519 -258 542 -210 l 450 -406 l 372 -406 l 413 -243 q 381 -176 381 -218 q 403 -119 381 -142 q 461 -97 426 -97 z "},"Ŀ":{"ha":833,"x_min":179,"x_max":750,"o":"m 179 957 l 317 957 l 317 119 l 750 119 l 735 0 l 179 0 l 179 957 m 654 615 q 722 590 696 615 q 747 526 747 564 q 722 463 747 488 q 654 438 696 438 q 588 463 614 438 q 563 526 563 488 q 588 590 563 564 q 654 615 614 615 z "},"Ł":{"ha":833,"x_min":49,"x_max":751,"o":"m 751 119 l 736 0 l 181 0 l 181 364 l 103 315 l 49 401 l 181 481 l 181 957 l 318 957 l 318 567 l 538 703 l 593 619 l 318 449 l 318 119 l 751 119 z "},"M":{"ha":833,"x_min":39,"x_max":794,"o":"m 794 0 l 664 0 l 638 486 q 632 721 632 592 l 633 833 l 481 171 l 351 171 l 188 833 q 192 643 192 775 q 189 485 192 535 l 165 0 l 39 0 l 93 957 l 272 957 l 419 308 l 560 957 l 740 957 l 794 0 z "},"N":{"ha":833,"x_min":108,"x_max":725,"o":"m 215 829 l 218 788 q 233 460 233 589 l 233 0 l 108 0 l 108 957 l 292 957 l 618 125 l 615 167 q 600 497 600 354 l 600 957 l 725 957 l 725 0 l 539 0 l 215 829 z "},"Ń":{"ha":833,"x_min":108,"x_max":725,"o":"m 215 829 l 218 788 q 233 460 233 589 l 233 0 l 108 0 l 108 957 l 292 957 l 618 125 l 615 167 q 600 497 600 354 l 600 957 l 725 957 l 725 0 l 539 0 l 215 829 m 589 1158 l 288 1049 l 253 1119 l 532 1269 l 589 1158 z "},"Ň":{"ha":833,"x_min":108,"x_max":725,"o":"m 215 829 l 218 788 q 233 460 233 589 l 233 0 l 108 0 l 108 957 l 292 957 l 618 125 l 615 167 q 600 497 600 354 l 600 957 l 725 957 l 725 0 l 539 0 l 215 829 m 650 1201 l 463 1047 l 375 1047 l 186 1201 l 243 1265 l 418 1153 l 594 1265 l 650 1201 z "},"Ņ":{"ha":833,"x_min":108,"x_max":725,"o":"m 215 829 l 218 788 q 233 460 233 589 l 233 0 l 108 0 l 108 957 l 292 957 l 618 125 l 615 167 q 600 497 600 354 l 600 957 l 725 957 l 725 0 l 539 0 l 215 829 m 421 -97 q 478 -119 456 -97 q 501 -176 501 -142 q 479 -258 501 -210 l 410 -406 l 332 -406 l 372 -243 q 340 -176 340 -218 q 363 -119 340 -142 q 421 -97 386 -97 z "},"Ŋ":{"ha":833,"x_min":108,"x_max":725,"o":"m 725 957 l 725 -78 q 668 -242 725 -186 q 511 -299 611 -299 q 350 -244 418 -299 l 401 -158 q 451 -182 429 -175 q 503 -189 472 -189 q 588 -87 588 -189 l 588 0 l 539 0 l 215 829 l 218 788 q 233 460 233 589 l 233 0 l 108 0 l 108 957 l 292 957 l 618 125 l 615 167 q 600 497 600 354 l 600 957 l 725 957 z "},"Ñ":{"ha":833,"x_min":108,"x_max":725,"o":"m 215 829 l 218 788 q 233 460 233 589 l 233 0 l 108 0 l 108 957 l 292 957 l 618 125 l 615 167 q 600 497 600 354 l 600 957 l 725 957 l 725 0 l 539 0 l 215 829 m 499 1076 q 451 1086 472 1076 q 403 1114 429 1096 q 367 1136 382 1129 q 338 1143 353 1143 q 299 1128 315 1143 q 264 1079 282 1113 l 185 1118 q 249 1209 211 1175 q 338 1243 288 1243 q 388 1233 367 1243 q 435 1204 408 1222 q 452 1193 439 1201 q 476 1181 465 1185 q 499 1176 488 1176 q 536 1191 519 1176 q 572 1238 553 1206 l 651 1199 q 586 1108 625 1139 q 499 1076 547 1076 z "},"O":{"ha":833,"x_min":60,"x_max":774,"o":"m 774 478 q 681 118 774 253 q 417 -17 589 -17 q 151 116 243 -17 q 60 476 60 249 q 152 839 60 703 q 417 975 244 975 q 682 841 590 975 q 774 478 774 707 m 631 478 q 580 767 631 671 q 417 863 529 863 q 253 767 304 863 q 203 476 203 671 q 255 190 203 285 q 417 94 307 94 q 580 190 529 94 q 631 478 631 285 z "},"Ó":{"ha":833,"x_min":60,"x_max":774,"o":"m 774 478 q 681 118 774 253 q 417 -17 589 -17 q 151 116 243 -17 q 60 476 60 249 q 152 839 60 703 q 417 975 244 975 q 682 841 590 975 q 774 478 774 707 m 631 478 q 580 767 631 671 q 417 863 529 863 q 253 767 304 863 q 203 476 203 671 q 255 190 203 285 q 417 94 307 94 q 580 190 529 94 q 631 478 631 285 m 588 1158 l 286 1049 l 251 1119 l 531 1269 l 588 1158 z "},"Ŏ":{"ha":833,"x_min":60,"x_max":774,"o":"m 774 478 q 681 118 774 253 q 417 -17 589 -17 q 151 116 243 -17 q 60 476 60 249 q 152 839 60 703 q 417 975 244 975 q 682 841 590 975 q 774 478 774 707 m 631 478 q 580 767 631 671 q 417 863 529 863 q 253 767 304 863 q 203 476 203 671 q 255 190 203 285 q 417 94 307 94 q 580 190 529 94 q 631 478 631 285 m 414 1053 q 270 1101 328 1053 q 204 1225 213 1149 l 290 1244 q 414 1153 322 1153 q 494 1177 461 1153 q 542 1244 526 1201 l 628 1225 q 560 1101 619 1149 q 414 1053 500 1053 z "},"Ô":{"ha":833,"x_min":60,"x_max":774,"o":"m 774 478 q 681 118 774 253 q 417 -17 589 -17 q 151 116 243 -17 q 60 476 60 249 q 152 839 60 703 q 417 975 244 975 q 682 841 590 975 q 774 478 774 707 m 631 478 q 580 767 631 671 q 417 863 529 863 q 253 767 304 863 q 203 476 203 671 q 255 190 203 285 q 417 94 307 94 q 580 190 529 94 q 631 478 631 285 m 649 1118 l 593 1053 l 417 1167 l 242 1053 l 185 1118 l 374 1272 l 461 1272 l 649 1118 z "},"Ö":{"ha":833,"x_min":60,"x_max":774,"o":"m 774 478 q 681 118 774 253 q 417 -17 589 -17 q 151 116 243 -17 q 60 476 60 249 q 152 839 60 703 q 417 975 244 975 q 682 841 590 975 q 774 478 774 707 m 631 478 q 580 767 631 671 q 417 863 529 863 q 253 767 304 863 q 203 476 203 671 q 255 190 203 285 q 417 94 307 94 q 580 190 529 94 q 631 478 631 285 m 269 1064 q 211 1087 235 1064 q 188 1144 188 1110 q 211 1202 188 1179 q 269 1225 235 1225 q 328 1202 304 1225 q 351 1144 351 1179 q 328 1087 351 1110 q 269 1064 304 1064 m 563 1064 q 504 1087 528 1064 q 481 1144 481 1110 q 504 1202 481 1179 q 563 1225 528 1225 q 622 1202 599 1225 q 644 1144 644 1179 q 621 1087 644 1110 q 563 1064 597 1064 z "},"Ò":{"ha":833,"x_min":60,"x_max":774,"o":"m 774 478 q 681 118 774 253 q 417 -17 589 -17 q 151 116 243 -17 q 60 476 60 249 q 152 839 60 703 q 417 975 244 975 q 682 841 590 975 q 774 478 774 707 m 631 478 q 580 767 631 671 q 417 863 529 863 q 253 767 304 863 q 203 476 203 671 q 255 190 203 285 q 417 94 307 94 q 580 190 529 94 q 631 478 631 285 m 582 1119 l 544 1049 l 251 1163 l 319 1272 l 582 1119 z "},"Ő":{"ha":833,"x_min":60,"x_max":774,"o":"m 774 478 q 681 118 774 253 q 417 -17 589 -17 q 151 116 243 -17 q 60 476 60 249 q 152 839 60 703 q 417 975 244 975 q 682 841 590 975 q 774 478 774 707 m 631 478 q 580 767 631 671 q 417 863 529 863 q 253 767 304 863 q 203 476 203 671 q 255 190 203 285 q 417 94 307 94 q 580 190 529 94 q 631 478 631 285 m 361 1332 l 472 1279 l 331 1047 l 249 1086 l 361 1332 m 600 1332 l 710 1275 l 556 1044 l 476 1086 l 600 1332 z "},"Ō":{"ha":833,"x_min":60,"x_max":774,"o":"m 774 478 q 681 118 774 253 q 417 -17 589 -17 q 151 116 243 -17 q 60 476 60 249 q 152 839 60 703 q 417 975 244 975 q 682 841 590 975 q 774 478 774 707 m 631 478 q 580 767 631 671 q 417 863 529 863 q 253 767 304 863 q 203 476 203 671 q 255 190 203 285 q 417 94 307 94 q 580 190 529 94 q 631 478 631 285 m 225 1101 l 225 1200 l 607 1200 l 607 1101 l 225 1101 z "},"Ø":{"ha":833,"x_min":60,"x_max":774,"o":"m 607 917 q 731 744 689 857 q 774 478 774 631 q 681 118 774 253 q 417 -17 589 -17 q 332 -7 369 -17 l 288 -153 l 175 -122 l 226 42 q 102 212 144 100 q 60 476 60 324 q 152 839 60 703 q 417 975 244 975 q 504 965 456 975 l 547 1115 l 660 1085 l 607 917 m 417 863 q 253 767 304 863 q 203 476 203 671 q 221 272 203 351 q 276 149 239 192 l 481 856 q 417 863 449 863 m 417 94 q 580 190 529 94 q 631 478 631 285 q 613 686 631 606 q 557 808 596 767 l 353 103 q 417 94 382 94 z "},"Ǿ":{"ha":833,"x_min":60,"x_max":774,"o":"m 607 917 q 731 744 689 857 q 774 478 774 631 q 681 118 774 253 q 417 -17 589 -17 q 332 -7 369 -17 l 288 -153 l 175 -122 l 226 42 q 102 212 144 100 q 60 476 60 324 q 152 839 60 703 q 417 975 244 975 q 504 965 456 975 l 547 1115 l 660 1085 l 607 917 m 417 863 q 253 767 304 863 q 203 476 203 671 q 221 272 203 351 q 276 149 239 192 l 481 856 q 417 863 449 863 m 417 94 q 580 190 529 94 q 631 478 631 285 q 613 686 631 606 q 557 808 596 767 l 353 103 q 417 94 382 94 m 588 1158 l 286 1049 l 251 1119 l 531 1269 l 588 1158 z "},"Õ":{"ha":833,"x_min":60,"x_max":774,"o":"m 774 478 q 681 118 774 253 q 417 -17 589 -17 q 151 116 243 -17 q 60 476 60 249 q 152 839 60 703 q 417 975 244 975 q 682 841 590 975 q 774 478 774 707 m 631 478 q 580 767 631 671 q 417 863 529 863 q 253 767 304 863 q 203 476 203 671 q 255 190 203 285 q 417 94 307 94 q 580 190 529 94 q 631 478 631 285 m 497 1076 q 449 1086 471 1076 q 401 1114 428 1096 q 366 1136 381 1129 q 336 1143 351 1143 q 297 1128 314 1143 q 263 1079 281 1113 l 183 1118 q 248 1209 210 1175 q 336 1243 286 1243 q 386 1233 365 1243 q 433 1204 407 1222 q 451 1193 438 1201 q 475 1181 464 1185 q 497 1176 486 1176 q 535 1191 518 1176 q 571 1238 551 1206 l 650 1199 q 585 1108 624 1139 q 497 1076 546 1076 z "},"Œ":{"ha":833,"x_min":1,"x_max":853,"o":"m 297 975 q 401 957 344 975 l 842 957 l 826 850 l 501 850 q 586 539 576 756 l 792 539 l 792 432 l 586 432 q 496 107 581 211 l 853 107 l 853 0 l 397 0 q 297 -17 343 -17 q 74 107 147 -17 q 1 476 1 231 q 75 847 1 719 q 297 975 149 975 m 297 865 q 178 774 215 865 q 140 476 140 683 q 178 181 140 271 q 297 90 217 90 q 418 181 381 90 q 456 478 456 271 q 419 776 456 686 q 297 865 382 865 z "},"P":{"ha":833,"x_min":149,"x_max":778,"o":"m 778 660 q 678 425 778 500 q 407 350 579 350 l 286 350 l 286 0 l 149 0 l 149 957 l 401 957 q 680 883 582 957 q 778 660 778 808 m 632 660 q 574 806 632 760 q 415 851 517 851 l 286 851 l 286 457 l 414 457 q 574 503 517 457 q 632 660 632 549 z "},"Þ":{"ha":833,"x_min":138,"x_max":776,"o":"m 276 796 l 403 796 q 680 721 583 796 q 776 493 776 646 q 678 253 776 332 q 407 175 579 175 l 276 175 l 276 0 l 138 0 l 138 957 l 276 957 l 276 796 m 276 690 l 276 283 l 418 283 q 576 331 521 283 q 632 490 632 378 q 575 642 632 593 q 417 690 518 690 l 276 690 z "},"Q":{"ha":833,"x_min":60,"x_max":832,"o":"m 774 478 q 727 209 774 319 q 575 40 681 99 q 738 -31 679 21 q 832 -187 797 -82 l 696 -240 q 585 -68 649 -122 q 403 -14 521 -14 q 149 118 238 -14 q 60 476 60 250 q 152 839 60 703 q 417 975 244 975 q 682 841 590 975 q 774 478 774 707 m 631 478 q 580 767 631 671 q 417 863 529 863 q 254 766 304 863 q 204 476 204 669 q 256 190 204 285 q 417 94 307 94 q 580 190 529 94 q 631 478 631 285 z "},"R":{"ha":833,"x_min":132,"x_max":804,"o":"m 751 685 q 689 516 751 583 q 525 421 626 449 l 804 0 l 640 0 l 388 403 l 269 403 l 269 0 l 132 0 l 132 957 l 386 957 q 659 888 567 957 q 751 685 751 819 m 606 685 q 555 812 606 772 q 397 851 504 851 l 269 851 l 269 508 l 400 508 q 553 550 501 508 q 606 685 606 592 z "},"Ŕ":{"ha":833,"x_min":132,"x_max":804,"o":"m 751 685 q 689 516 751 583 q 525 421 626 449 l 804 0 l 640 0 l 388 403 l 269 403 l 269 0 l 132 0 l 132 957 l 386 957 q 659 888 567 957 q 751 685 751 819 m 606 685 q 555 812 606 772 q 397 851 504 851 l 269 851 l 269 508 l 400 508 q 553 550 501 508 q 606 685 606 592 m 588 1158 l 286 1049 l 251 1119 l 531 1269 l 588 1158 z "},"Ř":{"ha":833,"x_min":132,"x_max":804,"o":"m 751 685 q 689 516 751 583 q 525 421 626 449 l 804 0 l 640 0 l 388 403 l 269 403 l 269 0 l 132 0 l 132 957 l 386 957 q 659 888 567 957 q 751 685 751 819 m 606 685 q 555 812 606 772 q 397 851 504 851 l 269 851 l 269 508 l 400 508 q 553 550 501 508 q 606 685 606 592 m 649 1201 l 461 1047 l 374 1047 l 185 1201 l 242 1265 l 417 1153 l 593 1265 l 649 1201 z "},"Ŗ":{"ha":833,"x_min":132,"x_max":804,"o":"m 751 685 q 689 516 751 583 q 525 421 626 449 l 804 0 l 640 0 l 388 403 l 269 403 l 269 0 l 132 0 l 132 957 l 386 957 q 659 888 567 957 q 751 685 751 819 m 606 685 q 555 812 606 772 q 397 851 504 851 l 269 851 l 269 508 l 400 508 q 553 550 501 508 q 606 685 606 592 m 422 -97 q 480 -119 457 -97 q 503 -176 503 -142 q 481 -258 503 -210 l 411 -406 l 333 -406 l 374 -243 q 342 -176 342 -218 q 365 -119 342 -142 q 422 -97 388 -97 z "},"S":{"ha":833,"x_min":53,"x_max":753,"o":"m 753 268 q 710 119 753 183 q 588 19 668 56 q 396 -17 507 -17 q 201 15 288 -17 q 53 107 114 47 l 132 196 q 397 94 240 94 q 548 138 488 94 q 608 263 608 182 q 590 340 608 308 q 529 394 572 371 q 406 442 486 418 q 173 552 249 489 q 97 722 97 615 q 138 853 97 796 q 251 943 178 911 q 415 975 324 975 q 588 947 513 975 q 726 863 664 918 l 650 776 q 421 863 551 863 q 289 828 340 863 q 238 729 238 794 q 259 661 238 689 q 330 610 281 633 q 471 560 379 586 q 680 456 607 519 q 753 268 753 392 z "},"Ś":{"ha":833,"x_min":53,"x_max":753,"o":"m 753 268 q 710 119 753 183 q 588 19 668 56 q 396 -17 507 -17 q 201 15 288 -17 q 53 107 114 47 l 132 196 q 397 94 240 94 q 548 138 488 94 q 608 263 608 182 q 590 340 608 308 q 529 394 572 371 q 406 442 486 418 q 173 552 249 489 q 97 722 97 615 q 138 853 97 796 q 251 943 178 911 q 415 975 324 975 q 588 947 513 975 q 726 863 664 918 l 650 776 q 421 863 551 863 q 289 828 340 863 q 238 729 238 794 q 259 661 238 689 q 330 610 281 633 q 471 560 379 586 q 680 456 607 519 q 753 268 753 392 m 596 1158 l 294 1049 l 260 1119 l 539 1269 l 596 1158 z "},"Š":{"ha":833,"x_min":53,"x_max":753,"o":"m 753 268 q 710 119 753 183 q 588 19 668 56 q 396 -17 507 -17 q 201 15 288 -17 q 53 107 114 47 l 132 196 q 397 94 240 94 q 548 138 488 94 q 608 263 608 182 q 590 340 608 308 q 529 394 572 371 q 406 442 486 418 q 173 552 249 489 q 97 722 97 615 q 138 853 97 796 q 251 943 178 911 q 415 975 324 975 q 588 947 513 975 q 726 863 664 918 l 650 776 q 421 863 551 863 q 289 828 340 863 q 238 729 238 794 q 259 661 238 689 q 330 610 281 633 q 471 560 379 586 q 680 456 607 519 q 753 268 753 392 m 657 1201 l 469 1047 l 382 1047 l 193 1201 l 250 1265 l 425 1153 l 601 1265 l 657 1201 z "},"Ş":{"ha":833,"x_min":53,"x_max":753,"o":"m 753 268 q 671 73 753 150 q 443 -15 589 -4 l 443 -78 q 541 -117 508 -83 q 574 -196 574 -150 q 524 -299 574 -262 q 399 -336 474 -336 q 317 -327 356 -336 q 250 -301 278 -318 l 289 -229 q 382 -251 333 -251 q 464 -196 464 -251 q 434 -151 464 -162 q 343 -139 404 -139 l 353 -15 q 53 107 167 -3 l 132 196 q 397 94 240 94 q 548 138 488 94 q 608 263 608 182 q 590 340 608 308 q 529 394 572 371 q 406 442 486 418 q 173 552 249 489 q 97 722 97 615 q 138 853 97 796 q 251 943 178 911 q 415 975 324 975 q 588 947 513 975 q 726 863 664 918 l 650 776 q 421 863 551 863 q 289 828 340 863 q 238 729 238 794 q 259 661 238 689 q 330 610 281 633 q 471 560 379 586 q 680 456 607 519 q 753 268 753 392 z "},"Ŝ":{"ha":833,"x_min":53,"x_max":753,"o":"m 753 268 q 710 119 753 183 q 588 19 668 56 q 396 -17 507 -17 q 201 15 288 -17 q 53 107 114 47 l 132 196 q 397 94 240 94 q 548 138 488 94 q 608 263 608 182 q 590 340 608 308 q 529 394 572 371 q 406 442 486 418 q 173 552 249 489 q 97 722 97 615 q 138 853 97 796 q 251 943 178 911 q 415 975 324 975 q 588 947 513 975 q 726 863 664 918 l 650 776 q 421 863 551 863 q 289 828 340 863 q 238 729 238 794 q 259 661 238 689 q 330 610 281 633 q 471 560 379 586 q 680 456 607 519 q 753 268 753 392 m 657 1118 l 601 1053 l 425 1167 l 250 1053 l 193 1118 l 382 1272 l 469 1272 l 657 1118 z "},"Ș":{"ha":833,"x_min":53,"x_max":753,"o":"m 753 268 q 710 119 753 183 q 588 19 668 56 q 396 -17 507 -17 q 201 15 288 -17 q 53 107 114 47 l 132 196 q 397 94 240 94 q 548 138 488 94 q 608 263 608 182 q 590 340 608 308 q 529 394 572 371 q 406 442 486 418 q 173 552 249 489 q 97 722 97 615 q 138 853 97 796 q 251 943 178 911 q 415 975 324 975 q 588 947 513 975 q 726 863 664 918 l 650 776 q 421 863 551 863 q 289 828 340 863 q 238 729 238 794 q 259 661 238 689 q 330 610 281 633 q 471 560 379 586 q 680 456 607 519 q 753 268 753 392 m 417 -97 q 474 -119 451 -97 q 497 -176 497 -142 q 475 -258 497 -210 l 406 -406 l 328 -406 l 368 -243 q 336 -176 336 -218 q 359 -119 336 -142 q 417 -97 382 -97 z "},"T":{"ha":833,"x_min":51,"x_max":782,"o":"m 483 0 l 346 0 l 346 842 l 51 842 l 51 957 l 782 957 l 768 842 l 483 842 l 483 0 z "},"Ŧ":{"ha":833,"x_min":51,"x_max":782,"o":"m 483 842 l 483 576 l 663 576 l 663 478 l 483 478 l 483 0 l 346 0 l 346 478 l 168 478 l 168 576 l 346 576 l 346 842 l 51 842 l 51 957 l 782 957 l 768 842 l 483 842 z "},"Ť":{"ha":833,"x_min":51,"x_max":782,"o":"m 483 0 l 346 0 l 346 842 l 51 842 l 51 957 l 782 957 l 768 842 l 483 842 l 483 0 m 647 1201 l 460 1047 l 372 1047 l 183 1201 l 240 1265 l 415 1153 l 592 1265 l 647 1201 z "},"Ţ":{"ha":833,"x_min":51,"x_max":782,"o":"m 460 0 l 460 -78 q 558 -117 525 -83 q 590 -196 590 -150 q 540 -299 590 -262 q 415 -336 490 -336 q 333 -327 372 -336 q 267 -301 294 -318 l 306 -229 q 399 -251 350 -251 q 481 -196 481 -251 q 451 -151 481 -162 q 360 -139 421 -139 l 371 0 l 346 0 l 346 842 l 51 842 l 51 957 l 782 957 l 768 842 l 483 842 l 483 0 l 460 0 z "},"Ț":{"ha":833,"x_min":51,"x_max":782,"o":"m 483 0 l 346 0 l 346 842 l 51 842 l 51 957 l 782 957 l 768 842 l 483 842 l 483 0 m 419 -97 q 477 -119 454 -97 q 500 -176 500 -142 q 478 -258 500 -210 l 408 -406 l 331 -406 l 371 -243 q 339 -176 339 -218 q 362 -119 339 -142 q 419 -97 385 -97 z "},"U":{"ha":833,"x_min":93,"x_max":740,"o":"m 740 311 q 701 140 740 214 q 588 24 661 65 q 415 -17 514 -17 q 178 73 264 -17 q 93 311 93 163 l 93 957 l 232 957 l 232 322 q 415 97 232 97 q 600 322 600 97 l 600 957 l 740 957 l 740 311 z "},"Ú":{"ha":833,"x_min":93,"x_max":740,"o":"m 740 311 q 701 140 740 214 q 588 24 661 65 q 415 -17 514 -17 q 178 73 264 -17 q 93 311 93 163 l 93 957 l 232 957 l 232 322 q 415 97 232 97 q 600 322 600 97 l 600 957 l 740 957 l 740 311 m 588 1158 l 286 1049 l 251 1119 l 531 1269 l 588 1158 z "},"Ŭ":{"ha":833,"x_min":93,"x_max":740,"o":"m 740 311 q 701 140 740 214 q 588 24 661 65 q 415 -17 514 -17 q 178 73 264 -17 q 93 311 93 163 l 93 957 l 232 957 l 232 322 q 415 97 232 97 q 600 322 600 97 l 600 957 l 740 957 l 740 311 m 414 1053 q 270 1101 328 1053 q 204 1225 213 1149 l 290 1244 q 414 1153 322 1153 q 494 1177 461 1153 q 542 1244 526 1201 l 628 1225 q 560 1101 619 1149 q 414 1053 500 1053 z "},"Û":{"ha":833,"x_min":93,"x_max":740,"o":"m 740 311 q 701 140 740 214 q 588 24 661 65 q 415 -17 514 -17 q 178 73 264 -17 q 93 311 93 163 l 93 957 l 232 957 l 232 322 q 415 97 232 97 q 600 322 600 97 l 600 957 l 740 957 l 740 311 m 649 1118 l 593 1053 l 417 1167 l 242 1053 l 185 1118 l 374 1272 l 461 1272 l 649 1118 z "},"Ü":{"ha":833,"x_min":93,"x_max":740,"o":"m 740 311 q 701 140 740 214 q 588 24 661 65 q 415 -17 514 -17 q 178 73 264 -17 q 93 311 93 163 l 93 957 l 232 957 l 232 322 q 415 97 232 97 q 600 322 600 97 l 600 957 l 740 957 l 740 311 m 269 1064 q 211 1087 235 1064 q 188 1144 188 1110 q 211 1202 188 1179 q 269 1225 235 1225 q 328 1202 304 1225 q 351 1144 351 1179 q 328 1087 351 1110 q 269 1064 304 1064 m 563 1064 q 504 1087 528 1064 q 481 1144 481 1110 q 504 1202 481 1179 q 563 1225 528 1225 q 622 1202 599 1225 q 644 1144 644 1179 q 621 1087 644 1110 q 563 1064 597 1064 z "},"Ù":{"ha":833,"x_min":93,"x_max":740,"o":"m 740 311 q 701 140 740 214 q 588 24 661 65 q 415 -17 514 -17 q 178 73 264 -17 q 93 311 93 163 l 93 957 l 232 957 l 232 322 q 415 97 232 97 q 600 322 600 97 l 600 957 l 740 957 l 740 311 m 582 1119 l 544 1049 l 251 1163 l 319 1272 l 582 1119 z "},"Ű":{"ha":833,"x_min":93,"x_max":740,"o":"m 740 311 q 701 140 740 214 q 588 24 661 65 q 415 -17 514 -17 q 178 73 264 -17 q 93 311 93 163 l 93 957 l 232 957 l 232 322 q 415 97 232 97 q 600 322 600 97 l 600 957 l 740 957 l 740 311 m 361 1332 l 472 1279 l 331 1047 l 249 1086 l 361 1332 m 600 1332 l 710 1275 l 556 1044 l 476 1086 l 600 1332 z "},"Ū":{"ha":833,"x_min":93,"x_max":740,"o":"m 740 311 q 701 140 740 214 q 588 24 661 65 q 415 -17 514 -17 q 178 73 264 -17 q 93 311 93 163 l 93 957 l 232 957 l 232 322 q 415 97 232 97 q 600 322 600 97 l 600 957 l 740 957 l 740 311 m 225 1101 l 225 1200 l 607 1200 l 607 1101 l 225 1101 z "},"Ų":{"ha":833,"x_min":93,"x_max":740,"o":"m 740 957 l 740 311 q 684 112 740 194 q 526 -1 628 29 q 394 -79 429 -43 q 358 -158 358 -115 q 436 -225 358 -225 q 521 -215 474 -225 l 508 -314 q 421 -324 460 -324 q 292 -284 340 -324 q 244 -182 244 -244 q 360 -12 244 -78 q 163 91 233 4 q 93 311 93 178 l 93 957 l 232 957 l 232 322 q 415 97 232 97 q 600 322 600 97 l 600 957 l 740 957 z "},"Ů":{"ha":833,"x_min":93,"x_max":740,"o":"m 740 311 q 701 140 740 214 q 588 24 661 65 q 415 -17 514 -17 q 178 73 264 -17 q 93 311 93 163 l 93 957 l 232 957 l 232 322 q 415 97 232 97 q 600 322 600 97 l 600 957 l 740 957 l 740 311 m 417 1319 q 531 1276 486 1319 q 576 1171 576 1233 q 531 1065 576 1108 q 417 1022 486 1022 q 301 1065 347 1022 q 256 1171 256 1108 q 301 1276 256 1233 q 417 1319 347 1319 m 417 1247 q 363 1227 383 1247 q 343 1171 343 1207 q 363 1114 343 1135 q 417 1093 383 1093 q 470 1114 451 1093 q 489 1171 489 1135 q 470 1227 489 1207 q 417 1247 451 1247 z "},"Ũ":{"ha":833,"x_min":93,"x_max":740,"o":"m 740 311 q 701 140 740 214 q 588 24 661 65 q 415 -17 514 -17 q 178 73 264 -17 q 93 311 93 163 l 93 957 l 232 957 l 232 322 q 415 97 232 97 q 600 322 600 97 l 600 957 l 740 957 l 740 311 m 497 1076 q 449 1086 471 1076 q 401 1114 428 1096 q 366 1136 381 1129 q 336 1143 351 1143 q 297 1128 314 1143 q 263 1079 281 1113 l 183 1118 q 248 1209 210 1175 q 336 1243 286 1243 q 386 1233 365 1243 q 433 1204 407 1222 q 451 1193 438 1201 q 475 1181 464 1185 q 497 1176 486 1176 q 535 1191 518 1176 q 571 1238 551 1206 l 650 1199 q 585 1108 624 1139 q 497 1076 546 1076 z "},"V":{"ha":833,"x_min":29,"x_max":804,"o":"m 665 957 l 804 957 l 492 0 l 342 0 l 29 957 l 176 957 l 419 144 l 665 957 z "},"W":{"ha":833,"x_min":6,"x_max":828,"o":"m 689 0 l 518 0 l 414 717 l 308 0 l 133 0 l 6 957 l 140 957 l 231 142 l 340 846 l 496 846 l 600 142 l 703 957 l 828 957 l 689 0 z "},"Ẃ":{"ha":833,"x_min":6,"x_max":828,"o":"m 689 0 l 518 0 l 414 717 l 308 0 l 133 0 l 6 957 l 140 957 l 231 142 l 340 846 l 496 846 l 600 142 l 703 957 l 828 957 l 689 0 m 588 1158 l 286 1049 l 251 1119 l 531 1269 l 588 1158 z "},"Ŵ":{"ha":833,"x_min":6,"x_max":828,"o":"m 689 0 l 518 0 l 414 717 l 308 0 l 133 0 l 6 957 l 140 957 l 231 142 l 340 846 l 496 846 l 600 142 l 703 957 l 828 957 l 689 0 m 649 1118 l 593 1053 l 417 1167 l 242 1053 l 185 1118 l 374 1272 l 461 1272 l 649 1118 z "},"Ẅ":{"ha":833,"x_min":6,"x_max":828,"o":"m 689 0 l 518 0 l 414 717 l 308 0 l 133 0 l 6 957 l 140 957 l 231 142 l 340 846 l 496 846 l 600 142 l 703 957 l 828 957 l 689 0 m 269 1064 q 211 1087 235 1064 q 188 1144 188 1110 q 211 1202 188 1179 q 269 1225 235 1225 q 328 1202 304 1225 q 351 1144 351 1179 q 328 1087 351 1110 q 269 1064 304 1064 m 563 1064 q 504 1087 528 1064 q 481 1144 481 1110 q 504 1202 481 1179 q 563 1225 528 1225 q 622 1202 599 1225 q 644 1144 644 1179 q 621 1087 644 1110 q 563 1064 597 1064 z "},"Ẁ":{"ha":833,"x_min":6,"x_max":828,"o":"m 689 0 l 518 0 l 414 717 l 308 0 l 133 0 l 6 957 l 140 957 l 231 142 l 340 846 l 496 846 l 600 142 l 703 957 l 828 957 l 689 0 m 582 1119 l 544 1049 l 251 1163 l 319 1272 l 582 1119 z "},"X":{"ha":833,"x_min":38,"x_max":797,"o":"m 218 957 l 417 600 l 618 957 l 765 957 l 496 517 l 797 0 l 640 0 l 414 421 l 185 0 l 38 0 l 332 510 l 61 957 l 218 957 z "},"Y":{"ha":833,"x_min":25,"x_max":808,"o":"m 486 0 l 347 0 l 347 367 l 25 957 l 178 957 l 419 489 l 664 957 l 808 957 l 486 368 l 486 0 z "},"Ý":{"ha":833,"x_min":25,"x_max":808,"o":"m 486 0 l 347 0 l 347 367 l 25 957 l 178 957 l 419 489 l 664 957 l 808 957 l 486 368 l 486 0 m 592 1158 l 290 1049 l 256 1119 l 535 1269 l 592 1158 z "},"Ŷ":{"ha":833,"x_min":25,"x_max":808,"o":"m 486 0 l 347 0 l 347 367 l 25 957 l 178 957 l 419 489 l 664 957 l 808 957 l 486 368 l 486 0 m 653 1118 l 597 1053 l 421 1167 l 246 1053 l 189 1118 l 378 1272 l 465 1272 l 653 1118 z "},"Ÿ":{"ha":833,"x_min":25,"x_max":808,"o":"m 486 0 l 347 0 l 347 367 l 25 957 l 178 957 l 419 489 l 664 957 l 808 957 l 486 368 l 486 0 m 274 1064 q 215 1087 239 1064 q 192 1144 192 1110 q 215 1202 192 1179 q 274 1225 239 1225 q 332 1202 308 1225 q 356 1144 356 1179 q 332 1087 356 1110 q 274 1064 308 1064 m 567 1064 q 508 1087 532 1064 q 485 1144 485 1110 q 508 1202 485 1179 q 567 1225 532 1225 q 626 1202 603 1225 q 649 1144 649 1179 q 625 1087 649 1110 q 567 1064 601 1064 z "},"Ỳ":{"ha":833,"x_min":25,"x_max":808,"o":"m 486 0 l 347 0 l 347 367 l 25 957 l 178 957 l 419 489 l 664 957 l 808 957 l 486 368 l 486 0 m 586 1119 l 549 1049 l 256 1163 l 324 1272 l 586 1119 z "},"Z":{"ha":833,"x_min":92,"x_max":740,"o":"m 740 117 l 725 0 l 92 0 l 92 110 l 589 842 l 142 842 l 142 957 l 739 957 l 739 846 l 247 117 l 740 117 z "},"Ź":{"ha":833,"x_min":92,"x_max":740,"o":"m 740 117 l 725 0 l 92 0 l 92 110 l 589 842 l 142 842 l 142 957 l 739 957 l 739 846 l 247 117 l 740 117 m 613 1158 l 311 1049 l 276 1119 l 556 1269 l 613 1158 z "},"Ž":{"ha":833,"x_min":92,"x_max":740,"o":"m 740 117 l 725 0 l 92 0 l 92 110 l 589 842 l 142 842 l 142 957 l 739 957 l 739 846 l 247 117 l 740 117 m 674 1201 l 486 1047 l 399 1047 l 210 1201 l 267 1265 l 442 1153 l 618 1265 l 674 1201 z "},"Ż":{"ha":833,"x_min":92,"x_max":740,"o":"m 740 117 l 725 0 l 92 0 l 92 110 l 589 842 l 142 842 l 142 957 l 739 957 l 739 846 l 247 117 l 740 117 m 440 1249 q 508 1223 482 1249 q 533 1160 533 1197 q 508 1096 533 1121 q 440 1071 482 1071 q 374 1096 400 1071 q 349 1160 349 1121 q 374 1223 349 1197 q 440 1249 400 1249 z "},"a":{"ha":833,"x_min":88,"x_max":731,"o":"m 672 168 q 685 105 672 125 q 731 75 699 85 l 699 -17 q 557 86 589 -3 q 458 10 518 36 q 326 -17 399 -17 q 151 45 215 -17 q 88 210 88 107 q 177 385 88 324 q 433 447 267 447 l 539 447 l 539 501 q 496 608 539 575 q 371 642 453 642 q 178 604 285 642 l 143 701 q 390 750 276 750 q 601 687 529 750 q 672 510 672 624 l 672 168 m 363 82 q 462 108 415 82 q 539 182 508 135 l 539 360 l 442 360 q 280 322 331 360 q 229 213 229 285 q 263 115 229 149 q 363 82 296 82 z "},"á":{"ha":833,"x_min":88,"x_max":731,"o":"m 672 168 q 685 105 672 125 q 731 75 699 85 l 699 -17 q 557 86 589 -3 q 458 10 518 36 q 326 -17 399 -17 q 151 45 215 -17 q 88 210 88 107 q 177 385 88 324 q 433 447 267 447 l 539 447 l 539 501 q 496 608 539 575 q 371 642 453 642 q 178 604 285 642 l 143 701 q 390 750 276 750 q 601 687 529 750 q 672 510 672 624 l 672 168 m 363 82 q 462 108 415 82 q 539 182 508 135 l 539 360 l 442 360 q 280 322 331 360 q 229 213 229 285 q 263 115 229 149 q 363 82 296 82 m 579 1006 l 282 885 l 242 956 l 521 1115 l 579 1006 z "},"ă":{"ha":833,"x_min":88,"x_max":731,"o":"m 672 168 q 685 105 672 125 q 731 75 699 85 l 699 -17 q 557 86 589 -3 q 458 10 518 36 q 326 -17 399 -17 q 151 45 215 -17 q 88 210 88 107 q 177 385 88 324 q 433 447 267 447 l 539 447 l 539 501 q 496 608 539 575 q 371 642 453 642 q 178 604 285 642 l 143 701 q 390 750 276 750 q 601 687 529 750 q 672 510 672 624 l 672 168 m 363 82 q 462 108 415 82 q 539 182 508 135 l 539 360 l 442 360 q 280 322 331 360 q 229 213 229 285 q 263 115 229 149 q 363 82 296 82 m 403 871 q 296 900 342 871 q 224 974 250 929 q 193 1068 199 1019 l 279 1086 q 403 969 313 969 q 483 1001 451 969 q 531 1086 515 1032 l 617 1068 q 585 974 611 1019 q 512 900 558 929 q 403 871 465 871 z "},"â":{"ha":833,"x_min":88,"x_max":731,"o":"m 672 168 q 685 105 672 125 q 731 75 699 85 l 699 -17 q 557 86 589 -3 q 458 10 518 36 q 326 -17 399 -17 q 151 45 215 -17 q 88 210 88 107 q 177 385 88 324 q 433 447 267 447 l 539 447 l 539 501 q 496 608 539 575 q 371 642 453 642 q 178 604 285 642 l 143 701 q 390 750 276 750 q 601 687 529 750 q 672 510 672 624 l 672 168 m 363 82 q 462 108 415 82 q 539 182 508 135 l 539 360 l 442 360 q 280 322 331 360 q 229 213 229 285 q 263 115 229 149 q 363 82 296 82 m 174 932 l 363 1101 l 450 1101 l 638 932 l 581 869 l 407 996 l 232 869 l 174 932 z "},"ä":{"ha":833,"x_min":88,"x_max":731,"o":"m 672 168 q 685 105 672 125 q 731 75 699 85 l 699 -17 q 557 86 589 -3 q 458 10 518 36 q 326 -17 399 -17 q 151 45 215 -17 q 88 210 88 107 q 177 385 88 324 q 433 447 267 447 l 539 447 l 539 501 q 496 608 539 575 q 371 642 453 642 q 178 604 285 642 l 143 701 q 390 750 276 750 q 601 687 529 750 q 672 510 672 624 l 672 168 m 363 82 q 462 108 415 82 q 539 182 508 135 l 539 360 l 442 360 q 280 322 331 360 q 229 213 229 285 q 263 115 229 149 q 363 82 296 82 m 258 897 q 200 920 224 897 q 176 978 176 943 q 200 1035 176 1013 q 258 1058 224 1058 q 317 1035 293 1058 q 340 978 340 1013 q 317 920 340 943 q 258 897 293 897 m 551 897 q 493 920 517 897 q 469 978 469 943 q 493 1035 469 1013 q 551 1058 517 1058 q 610 1035 588 1058 q 633 978 633 1013 q 610 920 633 943 q 551 897 586 897 z "},"à":{"ha":833,"x_min":88,"x_max":731,"o":"m 672 168 q 685 105 672 125 q 731 75 699 85 l 699 -17 q 557 86 589 -3 q 458 10 518 36 q 326 -17 399 -17 q 151 45 215 -17 q 88 210 88 107 q 177 385 88 324 q 433 447 267 447 l 539 447 l 539 501 q 496 608 539 575 q 371 642 453 642 q 178 604 285 642 l 143 701 q 390 750 276 750 q 601 687 529 750 q 672 510 672 624 l 672 168 m 363 82 q 462 108 415 82 q 539 182 508 135 l 539 360 l 442 360 q 280 322 331 360 q 229 213 229 285 q 263 115 229 149 q 363 82 296 82 m 240 993 l 307 1104 l 571 936 l 529 864 l 240 993 z "},"ā":{"ha":833,"x_min":88,"x_max":731,"o":"m 672 168 q 685 105 672 125 q 731 75 699 85 l 699 -17 q 557 86 589 -3 q 458 10 518 36 q 326 -17 399 -17 q 151 45 215 -17 q 88 210 88 107 q 177 385 88 324 q 433 447 267 447 l 539 447 l 539 501 q 496 608 539 575 q 371 642 453 642 q 178 604 285 642 l 143 701 q 390 750 276 750 q 601 687 529 750 q 672 510 672 624 l 672 168 m 363 82 q 462 108 415 82 q 539 182 508 135 l 539 360 l 442 360 q 280 322 331 360 q 229 213 229 285 q 263 115 229 149 q 363 82 296 82 m 214 935 l 214 1033 l 596 1033 l 596 935 l 214 935 z "},"ą":{"ha":833,"x_min":88,"x_max":731,"o":"m 699 -17 q 564 -95 600 -58 q 528 -175 528 -132 q 606 -242 528 -242 q 690 -232 643 -242 l 678 -331 q 590 -340 629 -340 q 462 -301 510 -340 q 414 -199 414 -261 q 464 -78 414 -129 q 617 10 514 -28 q 557 86 575 36 q 458 10 518 36 q 326 -17 399 -17 q 151 45 215 -17 q 88 210 88 107 q 177 385 88 324 q 433 447 267 447 l 539 447 l 539 501 q 496 608 539 575 q 371 642 453 642 q 178 604 285 642 l 143 701 q 390 750 276 750 q 601 687 529 750 q 672 510 672 624 l 672 168 q 685 105 672 125 q 731 75 699 85 l 699 -17 m 539 360 l 442 360 q 280 322 331 360 q 229 213 229 285 q 263 115 229 149 q 363 82 296 82 q 462 108 415 82 q 539 182 508 135 l 539 360 z "},"å":{"ha":833,"x_min":88,"x_max":731,"o":"m 672 168 q 685 105 672 125 q 731 75 699 85 l 699 -17 q 557 86 589 -3 q 458 10 518 36 q 326 -17 399 -17 q 151 45 215 -17 q 88 210 88 107 q 177 385 88 324 q 433 447 267 447 l 539 447 l 539 501 q 496 608 539 575 q 371 642 453 642 q 178 604 285 642 l 143 701 q 390 750 276 750 q 601 687 529 750 q 672 510 672 624 l 672 168 m 363 82 q 462 108 415 82 q 539 182 508 135 l 539 360 l 442 360 q 280 322 331 360 q 229 213 229 285 q 263 115 229 149 q 363 82 296 82 m 406 1153 q 520 1110 475 1153 q 565 1004 565 1067 q 520 899 565 942 q 406 856 475 856 q 290 899 336 856 q 244 1004 244 942 q 290 1110 244 1067 q 406 1153 336 1153 m 406 1081 q 352 1060 372 1081 q 332 1004 332 1040 q 352 947 332 968 q 406 926 372 926 q 459 947 440 926 q 478 1004 478 968 q 459 1060 478 1040 q 406 1081 440 1081 z "},"ã":{"ha":833,"x_min":88,"x_max":731,"o":"m 672 168 q 685 105 672 125 q 731 75 699 85 l 699 -17 q 557 86 589 -3 q 458 10 518 36 q 326 -17 399 -17 q 151 45 215 -17 q 88 210 88 107 q 177 385 88 324 q 433 447 267 447 l 539 447 l 539 501 q 496 608 539 575 q 371 642 453 642 q 178 604 285 642 l 143 701 q 390 750 276 750 q 601 687 529 750 q 672 510 672 624 l 672 168 m 363 82 q 462 108 415 82 q 539 182 508 135 l 539 360 l 442 360 q 280 322 331 360 q 229 213 229 285 q 263 115 229 149 q 363 82 296 82 m 486 910 q 438 919 460 910 q 390 947 417 929 q 355 969 369 963 q 325 976 340 976 q 286 961 303 976 q 251 913 269 946 l 172 951 q 237 1042 199 1008 q 325 1076 275 1076 q 375 1066 354 1076 q 422 1038 396 1056 q 440 1026 426 1035 q 464 1014 453 1018 q 486 1010 475 1010 q 524 1024 507 1010 q 560 1071 540 1039 l 639 1032 q 574 941 613 972 q 486 910 535 910 z "},"æ":{"ha":833,"x_min":-8,"x_max":842,"o":"m 603 750 q 783 656 725 750 q 842 388 842 563 q 839 322 842 358 l 471 322 q 517 145 481 201 q 624 89 553 89 q 692 101 661 89 q 760 142 724 114 l 818 57 q 726 2 774 21 q 621 -17 678 -17 q 498 15 549 -17 q 411 106 447 46 q 317 12 364 40 q 203 -17 271 -17 q 49 45 107 -17 q -8 210 -8 107 q 67 385 -8 325 q 286 446 142 446 l 349 446 l 349 501 q 222 646 349 646 q 158 638 188 646 q 81 608 128 629 l 46 701 q 236 750 147 750 q 358 719 313 750 q 428 632 403 689 q 494 719 449 688 q 603 750 539 750 m 597 646 q 508 594 538 646 q 471 418 479 543 l 719 418 q 690 591 717 536 q 597 646 663 646 m 294 360 q 165 323 204 360 q 126 217 126 286 q 153 117 126 151 q 224 82 179 82 q 297 112 265 82 q 367 208 329 142 q 349 360 349 272 l 294 360 z "},"ǽ":{"ha":833,"x_min":-8,"x_max":842,"o":"m 603 750 q 783 656 725 750 q 842 388 842 563 q 839 322 842 358 l 471 322 q 517 145 481 201 q 624 89 553 89 q 692 101 661 89 q 760 142 724 114 l 818 57 q 726 2 774 21 q 621 -17 678 -17 q 498 15 549 -17 q 411 106 447 46 q 317 12 364 40 q 203 -17 271 -17 q 49 45 107 -17 q -8 210 -8 107 q 67 385 -8 325 q 286 446 142 446 l 349 446 l 349 501 q 222 646 349 646 q 158 638 188 646 q 81 608 128 629 l 46 701 q 236 750 147 750 q 358 719 313 750 q 428 632 403 689 q 494 719 449 688 q 603 750 539 750 m 597 646 q 508 594 538 646 q 471 418 479 543 l 719 418 q 690 591 717 536 q 597 646 663 646 m 294 360 q 165 323 204 360 q 126 217 126 286 q 153 117 126 151 q 224 82 179 82 q 297 112 265 82 q 367 208 329 142 q 349 360 349 272 l 294 360 m 601 1006 l 304 885 l 264 956 l 543 1115 l 601 1006 z "},"b":{"ha":833,"x_min":132,"x_max":746,"o":"m 265 640 q 358 722 306 693 q 472 750 411 750 q 679 649 613 750 q 746 367 746 549 q 669 90 746 196 q 454 -17 592 -17 q 258 75 329 -17 l 250 0 l 132 0 l 132 1026 l 265 1043 l 265 640 m 422 88 q 556 157 510 88 q 603 367 603 226 q 439 644 603 644 q 342 613 386 644 q 265 532 299 582 l 265 178 q 335 111 294 135 q 422 88 375 88 z "},"c":{"ha":833,"x_min":122,"x_max":722,"o":"m 474 96 q 660 158 565 96 l 722 72 q 606 8 674 32 q 471 -17 539 -17 q 214 86 306 -17 q 122 363 122 189 q 164 562 122 474 q 285 700 206 650 q 472 750 364 750 q 721 663 614 750 l 658 576 q 474 640 565 640 q 322 570 378 640 q 265 363 265 500 q 322 161 265 226 q 474 96 378 96 z "},"ć":{"ha":833,"x_min":122,"x_max":722,"o":"m 474 96 q 660 158 565 96 l 722 72 q 606 8 674 32 q 471 -17 539 -17 q 214 86 306 -17 q 122 363 122 189 q 164 562 122 474 q 285 700 206 650 q 472 750 364 750 q 721 663 614 750 l 658 576 q 474 640 565 640 q 322 570 378 640 q 265 363 265 500 q 322 161 265 226 q 474 96 378 96 m 651 993 l 354 872 l 314 943 l 593 1103 l 651 993 z "},"č":{"ha":833,"x_min":122,"x_max":722,"o":"m 474 96 q 660 158 565 96 l 722 72 q 606 8 674 32 q 471 -17 539 -17 q 214 86 306 -17 q 122 363 122 189 q 164 562 122 474 q 285 700 206 650 q 472 750 364 750 q 721 663 614 750 l 658 576 q 474 640 565 640 q 322 570 378 640 q 265 363 265 500 q 322 161 265 226 q 474 96 378 96 m 710 1026 l 522 857 l 435 857 l 246 1026 l 304 1089 l 479 963 l 653 1089 l 710 1026 z "},"ç":{"ha":833,"x_min":122,"x_max":722,"o":"m 501 -78 q 599 -117 567 -83 q 632 -196 632 -150 q 582 -299 632 -262 q 457 -336 532 -336 q 375 -327 414 -336 q 308 -301 336 -318 l 347 -229 q 440 -251 392 -251 q 522 -196 522 -251 q 492 -151 522 -162 q 401 -139 463 -139 l 411 -12 q 198 106 274 6 q 122 363 122 206 q 164 562 122 474 q 285 700 206 650 q 472 750 364 750 q 721 663 614 750 l 658 576 q 474 640 565 640 q 322 570 378 640 q 265 363 265 500 q 322 161 265 226 q 474 96 378 96 q 660 158 565 96 l 722 72 q 622 13 681 36 q 501 -15 563 -10 l 501 -78 z "},"ĉ":{"ha":833,"x_min":122,"x_max":722,"o":"m 474 96 q 660 158 565 96 l 722 72 q 606 8 674 32 q 471 -17 539 -17 q 214 86 306 -17 q 122 363 122 189 q 164 562 122 474 q 285 700 206 650 q 472 750 364 750 q 721 663 614 750 l 658 576 q 474 640 565 640 q 322 570 378 640 q 265 363 265 500 q 322 161 265 226 q 474 96 378 96 m 246 919 l 435 1089 l 522 1089 l 710 919 l 653 857 l 479 983 l 304 857 l 246 919 z "},"ċ":{"ha":833,"x_min":122,"x_max":722,"o":"m 474 96 q 660 158 565 96 l 722 72 q 606 8 674 32 q 471 -17 539 -17 q 214 86 306 -17 q 122 363 122 189 q 164 562 122 474 q 285 700 206 650 q 472 750 364 750 q 721 663 614 750 l 658 576 q 474 640 565 640 q 322 570 378 640 q 265 363 265 500 q 322 161 265 226 q 474 96 378 96 m 476 1069 q 544 1044 518 1069 q 569 981 569 1018 q 544 917 569 942 q 476 892 518 892 q 410 917 436 892 q 385 981 385 942 q 410 1044 385 1018 q 476 1069 436 1069 z "},"d":{"ha":833,"x_min":88,"x_max":701,"o":"m 701 1026 l 701 0 l 583 0 l 572 93 q 482 11 535 39 q 365 -17 429 -17 q 157 85 226 -17 q 88 365 88 188 q 122 564 88 476 q 222 701 157 651 q 376 750 288 750 q 568 665 494 750 l 568 1043 l 701 1026 m 411 644 q 277 574 324 644 q 231 365 231 504 q 273 156 231 225 q 397 88 315 88 q 568 199 496 88 l 568 556 q 499 622 539 599 q 411 644 458 644 z "},"ð":{"ha":833,"x_min":88,"x_max":744,"o":"m 332 894 q 176 942 269 925 l 204 1042 q 411 976 331 1018 l 508 1079 l 586 1013 l 503 925 q 685 704 626 840 q 744 369 744 568 q 703 167 744 254 q 587 31 663 79 q 410 -17 511 -17 q 246 24 319 -17 q 130 142 172 64 q 88 326 88 219 q 128 504 88 426 q 236 625 168 582 q 383 668 304 668 q 596 576 513 668 q 531 728 576 661 q 422 843 486 796 l 318 738 l 226 782 l 332 894 m 610 368 q 606 461 610 418 q 520 538 572 511 q 404 565 468 565 q 275 506 326 565 q 224 332 224 447 q 274 151 224 214 q 408 88 324 88 q 557 160 504 88 q 610 368 610 232 z "},"ď":{"ha":833,"x_min":44,"x_max":871,"o":"m 658 1026 l 658 0 l 540 0 l 529 93 q 439 11 492 39 q 322 -17 386 -17 q 114 85 183 -17 q 44 365 44 188 q 79 564 44 476 q 179 701 114 651 q 333 750 244 750 q 525 665 451 750 l 525 1043 l 658 1026 m 368 644 q 234 574 281 644 q 188 365 188 504 q 230 156 188 225 q 354 88 272 88 q 525 199 453 88 l 525 556 q 456 622 496 599 q 368 644 415 644 m 871 1026 l 790 767 l 713 779 l 750 1042 l 871 1026 z "},"đ":{"ha":833,"x_min":86,"x_max":810,"o":"m 810 829 l 700 829 l 700 0 l 582 0 l 571 93 q 481 11 533 39 q 364 -17 428 -17 q 156 85 225 -17 q 86 365 86 188 q 121 564 86 476 q 221 701 156 651 q 375 750 286 750 q 567 665 493 750 l 567 829 l 339 829 l 339 928 l 567 928 l 567 1043 l 700 1026 l 700 928 l 810 928 l 810 829 m 567 556 q 497 622 538 599 q 410 644 457 644 q 276 574 322 644 q 229 365 229 504 q 272 156 229 225 q 396 88 314 88 q 567 199 494 88 l 567 556 z "},"e":{"ha":833,"x_min":101,"x_max":733,"o":"m 240 321 q 303 148 246 206 q 449 90 361 90 q 547 106 501 90 q 643 156 593 122 l 703 71 q 583 6 651 29 q 444 -17 515 -17 q 192 88 282 -17 q 101 365 101 192 q 141 563 101 476 q 255 700 181 650 q 428 750 329 750 q 651 653 569 750 q 733 388 733 556 q 731 321 733 354 l 240 321 m 429 646 q 298 588 349 646 q 240 418 247 531 l 604 418 q 556 587 603 528 q 429 646 510 646 z "},"é":{"ha":833,"x_min":101,"x_max":733,"o":"m 240 321 q 303 148 246 206 q 449 90 361 90 q 547 106 501 90 q 643 156 593 122 l 703 71 q 583 6 651 29 q 444 -17 515 -17 q 192 88 282 -17 q 101 365 101 192 q 141 563 101 476 q 255 700 181 650 q 428 750 329 750 q 651 653 569 750 q 733 388 733 556 q 731 321 733 354 l 240 321 m 429 646 q 298 588 349 646 q 240 418 247 531 l 604 418 q 556 587 603 528 q 429 646 510 646 m 604 1006 l 307 885 l 267 956 l 546 1115 l 604 1006 z "},"ĕ":{"ha":833,"x_min":101,"x_max":733,"o":"m 240 321 q 303 148 246 206 q 449 90 361 90 q 547 106 501 90 q 643 156 593 122 l 703 71 q 583 6 651 29 q 444 -17 515 -17 q 192 88 282 -17 q 101 365 101 192 q 141 563 101 476 q 255 700 181 650 q 428 750 329 750 q 651 653 569 750 q 733 388 733 556 q 731 321 733 354 l 240 321 m 429 646 q 298 588 349 646 q 240 418 247 531 l 604 418 q 556 587 603 528 q 429 646 510 646 m 428 871 q 321 900 367 871 q 249 974 275 929 q 218 1068 224 1019 l 304 1086 q 428 969 338 969 q 508 1001 476 969 q 556 1086 540 1032 l 642 1068 q 610 974 636 1019 q 537 900 583 929 q 428 871 490 871 z "},"ě":{"ha":833,"x_min":101,"x_max":733,"o":"m 240 321 q 303 148 246 206 q 449 90 361 90 q 547 106 501 90 q 643 156 593 122 l 703 71 q 583 6 651 29 q 444 -17 515 -17 q 192 88 282 -17 q 101 365 101 192 q 141 563 101 476 q 255 700 181 650 q 428 750 329 750 q 651 653 569 750 q 733 388 733 556 q 731 321 733 354 l 240 321 m 429 646 q 298 588 349 646 q 240 418 247 531 l 604 418 q 556 587 603 528 q 429 646 510 646 m 663 1039 l 475 869 l 388 869 l 199 1039 l 257 1101 l 432 975 l 606 1101 l 663 1039 z "},"ê":{"ha":833,"x_min":101,"x_max":733,"o":"m 240 321 q 303 148 246 206 q 449 90 361 90 q 547 106 501 90 q 643 156 593 122 l 703 71 q 583 6 651 29 q 444 -17 515 -17 q 192 88 282 -17 q 101 365 101 192 q 141 563 101 476 q 255 700 181 650 q 428 750 329 750 q 651 653 569 750 q 733 388 733 556 q 731 321 733 354 l 240 321 m 429 646 q 298 588 349 646 q 240 418 247 531 l 604 418 q 556 587 603 528 q 429 646 510 646 m 199 932 l 388 1101 l 475 1101 l 663 932 l 606 869 l 432 996 l 257 869 l 199 932 z "},"ë":{"ha":833,"x_min":101,"x_max":733,"o":"m 240 321 q 303 148 246 206 q 449 90 361 90 q 547 106 501 90 q 643 156 593 122 l 703 71 q 583 6 651 29 q 444 -17 515 -17 q 192 88 282 -17 q 101 365 101 192 q 141 563 101 476 q 255 700 181 650 q 428 750 329 750 q 651 653 569 750 q 733 388 733 556 q 731 321 733 354 l 240 321 m 429 646 q 298 588 349 646 q 240 418 247 531 l 604 418 q 556 587 603 528 q 429 646 510 646 m 283 897 q 225 920 249 897 q 201 978 201 943 q 225 1035 201 1013 q 283 1058 249 1058 q 342 1035 318 1058 q 365 978 365 1013 q 342 920 365 943 q 283 897 318 897 m 576 897 q 518 920 542 897 q 494 978 494 943 q 518 1035 494 1013 q 576 1058 542 1058 q 635 1035 613 1058 q 658 978 658 1013 q 635 920 658 943 q 576 897 611 897 z "},"ė":{"ha":833,"x_min":101,"x_max":733,"o":"m 240 321 q 303 148 246 206 q 449 90 361 90 q 547 106 501 90 q 643 156 593 122 l 703 71 q 583 6 651 29 q 444 -17 515 -17 q 192 88 282 -17 q 101 365 101 192 q 141 563 101 476 q 255 700 181 650 q 428 750 329 750 q 651 653 569 750 q 733 388 733 556 q 731 321 733 354 l 240 321 m 429 646 q 298 588 349 646 q 240 418 247 531 l 604 418 q 556 587 603 528 q 429 646 510 646 m 429 1082 q 497 1056 471 1082 q 522 993 522 1031 q 497 929 522 954 q 429 904 471 904 q 363 929 389 904 q 338 993 338 954 q 363 1056 338 1031 q 429 1082 389 1082 z "},"è":{"ha":833,"x_min":101,"x_max":733,"o":"m 240 321 q 303 148 246 206 q 449 90 361 90 q 547 106 501 90 q 643 156 593 122 l 703 71 q 583 6 651 29 q 444 -17 515 -17 q 192 88 282 -17 q 101 365 101 192 q 141 563 101 476 q 255 700 181 650 q 428 750 329 750 q 651 653 569 750 q 733 388 733 556 q 731 321 733 354 l 240 321 m 429 646 q 298 588 349 646 q 240 418 247 531 l 604 418 q 556 587 603 528 q 429 646 510 646 m 265 993 l 332 1104 l 596 936 l 554 864 l 265 993 z "},"ē":{"ha":833,"x_min":101,"x_max":733,"o":"m 240 321 q 303 148 246 206 q 449 90 361 90 q 547 106 501 90 q 643 156 593 122 l 703 71 q 583 6 651 29 q 444 -17 515 -17 q 192 88 282 -17 q 101 365 101 192 q 141 563 101 476 q 255 700 181 650 q 428 750 329 750 q 651 653 569 750 q 733 388 733 556 q 731 321 733 354 l 240 321 m 429 646 q 298 588 349 646 q 240 418 247 531 l 604 418 q 556 587 603 528 q 429 646 510 646 m 239 935 l 239 1033 l 621 1033 l 621 935 l 239 935 z "},"ę":{"ha":833,"x_min":101,"x_max":733,"o":"m 733 388 q 731 321 733 354 l 240 321 q 303 148 246 206 q 449 90 361 90 q 547 106 501 90 q 643 156 593 122 l 703 71 q 563 0 646 24 q 428 -78 464 -42 q 392 -158 392 -115 q 469 -225 392 -225 q 554 -215 507 -225 l 542 -314 q 454 -324 493 -324 q 326 -284 374 -324 q 278 -182 278 -244 q 410 -15 278 -75 q 183 99 264 -4 q 101 365 101 201 q 141 563 101 476 q 255 700 181 650 q 428 750 329 750 q 651 653 569 750 q 733 388 733 556 m 604 418 q 556 587 603 528 q 429 646 510 646 q 298 588 349 646 q 240 418 247 531 l 604 418 z "},"f":{"ha":833,"x_min":126,"x_max":778,"o":"m 571 1043 q 778 1001 681 1043 l 736 906 q 579 936 667 936 q 431 818 431 936 l 431 678 l 678 678 l 663 575 l 431 575 l 431 0 l 297 0 l 297 575 l 126 575 l 126 678 l 297 678 l 297 817 q 374 981 297 919 q 571 1043 450 1043 z "},"g":{"ha":833,"x_min":83,"x_max":775,"o":"m 775 699 q 684 681 733 685 q 561 676 635 676 q 659 600 626 646 q 692 490 692 554 q 616 311 692 381 q 410 242 540 242 q 304 256 347 242 q 279 226 289 243 q 269 189 269 208 q 364 131 269 131 l 494 131 q 629 104 569 131 q 723 32 689 78 q 757 -71 757 -14 q 665 -238 757 -179 q 400 -297 572 -297 q 211 -273 281 -297 q 113 -200 142 -249 q 83 -74 83 -151 l 204 -74 q 220 -142 204 -117 q 278 -181 236 -168 q 400 -194 321 -194 q 569 -165 515 -194 q 622 -79 622 -136 q 579 -6 622 -32 q 467 21 536 21 l 339 21 q 196 60 244 21 q 147 160 147 100 q 168 231 147 196 q 228 290 189 265 q 134 373 164 324 q 104 493 104 422 q 142 626 104 568 q 247 717 179 685 q 401 750 314 750 q 593 765 525 749 q 738 817 661 781 l 775 699 m 401 654 q 281 610 322 654 q 240 493 240 567 q 282 374 240 418 q 404 331 324 331 q 517 373 478 331 q 556 494 556 415 q 401 654 556 654 z "},"ğ":{"ha":833,"x_min":83,"x_max":775,"o":"m 775 699 q 684 681 733 685 q 561 676 635 676 q 659 600 626 646 q 692 490 692 554 q 616 311 692 381 q 410 242 540 242 q 304 256 347 242 q 279 226 289 243 q 269 189 269 208 q 364 131 269 131 l 494 131 q 629 104 569 131 q 723 32 689 78 q 757 -71 757 -14 q 665 -238 757 -179 q 400 -297 572 -297 q 211 -273 281 -297 q 113 -200 142 -249 q 83 -74 83 -151 l 204 -74 q 220 -142 204 -117 q 278 -181 236 -168 q 400 -194 321 -194 q 569 -165 515 -194 q 622 -79 622 -136 q 579 -6 622 -32 q 467 21 536 21 l 339 21 q 196 60 244 21 q 147 160 147 100 q 168 231 147 196 q 228 290 189 265 q 134 373 164 324 q 104 493 104 422 q 142 626 104 568 q 247 717 179 685 q 401 750 314 750 q 593 765 525 749 q 738 817 661 781 l 775 699 m 401 654 q 281 610 322 654 q 240 493 240 567 q 282 374 240 418 q 404 331 324 331 q 517 373 478 331 q 556 494 556 415 q 401 654 556 654 m 406 871 q 299 900 344 871 q 227 974 253 929 q 196 1068 201 1019 l 282 1086 q 406 969 315 969 q 486 1001 454 969 q 533 1086 518 1032 l 619 1068 q 588 974 614 1019 q 515 900 561 929 q 406 871 468 871 z "},"ĝ":{"ha":833,"x_min":83,"x_max":775,"o":"m 775 699 q 684 681 733 685 q 561 676 635 676 q 659 600 626 646 q 692 490 692 554 q 616 311 692 381 q 410 242 540 242 q 304 256 347 242 q 279 226 289 243 q 269 189 269 208 q 364 131 269 131 l 494 131 q 629 104 569 131 q 723 32 689 78 q 757 -71 757 -14 q 665 -238 757 -179 q 400 -297 572 -297 q 211 -273 281 -297 q 113 -200 142 -249 q 83 -74 83 -151 l 204 -74 q 220 -142 204 -117 q 278 -181 236 -168 q 400 -194 321 -194 q 569 -165 515 -194 q 622 -79 622 -136 q 579 -6 622 -32 q 467 21 536 21 l 339 21 q 196 60 244 21 q 147 160 147 100 q 168 231 147 196 q 228 290 189 265 q 134 373 164 324 q 104 493 104 422 q 142 626 104 568 q 247 717 179 685 q 401 750 314 750 q 593 765 525 749 q 738 817 661 781 l 775 699 m 401 654 q 281 610 322 654 q 240 493 240 567 q 282 374 240 418 q 404 331 324 331 q 517 373 478 331 q 556 494 556 415 q 401 654 556 654 m 176 932 l 365 1101 l 453 1101 l 640 932 l 583 869 l 410 996 l 235 869 l 176 932 z "},"ģ":{"ha":833,"x_min":83,"x_max":775,"o":"m 404 829 q 347 851 369 829 q 324 908 324 874 q 346 990 324 942 l 415 1138 l 493 1138 l 453 975 q 485 908 485 950 q 462 851 485 874 q 404 829 439 829 m 775 699 q 684 681 733 685 q 561 676 635 676 q 659 600 626 646 q 692 490 692 554 q 616 311 692 381 q 410 242 540 242 q 304 256 347 242 q 279 226 289 243 q 269 189 269 208 q 364 131 269 131 l 494 131 q 629 104 569 131 q 723 32 689 78 q 757 -71 757 -14 q 665 -238 757 -179 q 400 -297 572 -297 q 211 -273 281 -297 q 113 -200 142 -249 q 83 -74 83 -151 l 204 -74 q 220 -142 204 -117 q 278 -181 236 -168 q 400 -194 321 -194 q 569 -165 515 -194 q 622 -79 622 -136 q 579 -6 622 -32 q 467 21 536 21 l 339 21 q 196 60 244 21 q 147 160 147 100 q 168 231 147 196 q 228 290 189 265 q 134 373 164 324 q 104 493 104 422 q 142 626 104 568 q 247 717 179 685 q 401 750 314 750 q 593 765 525 749 q 738 817 661 781 l 775 699 m 401 654 q 281 610 322 654 q 240 493 240 567 q 282 374 240 418 q 404 331 324 331 q 517 373 478 331 q 556 494 556 415 q 401 654 556 654 z "},"ġ":{"ha":833,"x_min":83,"x_max":775,"o":"m 775 699 q 684 681 733 685 q 561 676 635 676 q 659 600 626 646 q 692 490 692 554 q 616 311 692 381 q 410 242 540 242 q 304 256 347 242 q 279 226 289 243 q 269 189 269 208 q 364 131 269 131 l 494 131 q 629 104 569 131 q 723 32 689 78 q 757 -71 757 -14 q 665 -238 757 -179 q 400 -297 572 -297 q 211 -273 281 -297 q 113 -200 142 -249 q 83 -74 83 -151 l 204 -74 q 220 -142 204 -117 q 278 -181 236 -168 q 400 -194 321 -194 q 569 -165 515 -194 q 622 -79 622 -136 q 579 -6 622 -32 q 467 21 536 21 l 339 21 q 196 60 244 21 q 147 160 147 100 q 168 231 147 196 q 228 290 189 265 q 134 373 164 324 q 104 493 104 422 q 142 626 104 568 q 247 717 179 685 q 401 750 314 750 q 593 765 525 749 q 738 817 661 781 l 775 699 m 401 654 q 281 610 322 654 q 240 493 240 567 q 282 374 240 418 q 404 331 324 331 q 517 373 478 331 q 556 494 556 415 q 401 654 556 654 m 407 1082 q 474 1056 449 1082 q 500 993 500 1031 q 474 929 500 954 q 407 904 449 904 q 341 929 367 904 q 315 993 315 954 q 341 1056 315 1031 q 407 1082 367 1082 z "},"h":{"ha":833,"x_min":132,"x_max":703,"o":"m 265 636 q 371 721 310 692 q 497 750 432 750 q 651 694 600 750 q 703 532 703 638 l 703 0 l 569 0 l 569 521 q 541 616 569 586 q 451 646 513 646 q 348 612 397 646 q 265 529 299 578 l 265 0 l 132 0 l 132 1025 l 265 1040 l 265 636 z "},"ħ":{"ha":833,"x_min":24,"x_max":703,"o":"m 497 750 q 651 694 600 750 q 703 532 703 638 l 703 0 l 569 0 l 569 521 q 541 616 569 586 q 451 646 513 646 q 348 612 397 646 q 265 529 299 578 l 265 0 l 132 0 l 132 829 l 24 829 l 24 928 l 132 928 l 132 1025 l 265 1040 l 265 928 l 494 928 l 494 829 l 265 829 l 265 636 q 371 721 310 692 q 497 750 432 750 z "},"ĥ":{"ha":833,"x_min":132,"x_max":703,"o":"m 265 636 q 371 721 310 692 q 497 750 432 750 q 651 694 600 750 q 703 532 703 638 l 703 0 l 569 0 l 569 521 q 541 616 569 586 q 451 646 513 646 q 348 612 397 646 q 265 529 299 578 l 265 0 l 132 0 l 132 1025 l 265 1040 l 265 636 m 649 1188 l 593 1122 l 417 1236 l 242 1122 l 185 1188 l 374 1342 l 461 1342 l 649 1188 z "},"i":{"ha":833,"x_min":160,"x_max":719,"o":"m 417 1082 q 484 1056 458 1082 q 510 993 510 1031 q 484 929 510 954 q 417 904 458 904 q 351 929 376 904 q 325 993 325 954 q 351 1056 325 1031 q 417 1082 376 1082 m 515 101 l 719 101 l 719 0 l 160 0 l 160 101 l 382 101 l 382 631 l 167 631 l 167 732 l 515 732 l 515 101 z "},"ı":{"ha":833,"x_min":160,"x_max":719,"o":"m 515 101 l 719 101 l 719 0 l 160 0 l 160 101 l 382 101 l 382 631 l 167 631 l 167 732 l 515 732 l 515 101 z "},"í":{"ha":833,"x_min":160,"x_max":719,"o":"m 515 101 l 719 101 l 719 0 l 160 0 l 160 101 l 382 101 l 382 631 l 167 631 l 167 732 l 515 732 l 515 101 m 592 1006 l 294 885 l 254 956 l 533 1115 l 592 1006 z "},"ĭ":{"ha":833,"x_min":160,"x_max":719,"o":"m 515 101 l 719 101 l 719 0 l 160 0 l 160 101 l 382 101 l 382 631 l 167 631 l 167 732 l 515 732 l 515 101 m 415 871 q 308 900 354 871 q 237 974 263 929 q 206 1068 211 1019 l 292 1086 q 415 969 325 969 q 496 1001 464 969 q 543 1086 528 1032 l 629 1068 q 597 974 624 1019 q 524 900 571 929 q 415 871 478 871 z "},"î":{"ha":833,"x_min":160,"x_max":719,"o":"m 515 101 l 719 101 l 719 0 l 160 0 l 160 101 l 382 101 l 382 631 l 167 631 l 167 732 l 515 732 l 515 101 m 186 932 l 375 1101 l 463 1101 l 650 932 l 593 869 l 419 996 l 244 869 l 186 932 z "},"ï":{"ha":833,"x_min":160,"x_max":719,"o":"m 515 101 l 719 101 l 719 0 l 160 0 l 160 101 l 382 101 l 382 631 l 167 631 l 167 732 l 515 732 l 515 101 m 271 897 q 213 920 236 897 q 189 978 189 943 q 213 1035 189 1013 q 271 1058 236 1058 q 329 1035 306 1058 q 353 978 353 1013 q 329 920 353 943 q 271 897 306 897 m 564 897 q 506 920 529 897 q 482 978 482 943 q 506 1035 482 1013 q 564 1058 529 1058 q 623 1035 600 1058 q 646 978 646 1013 q 622 920 646 943 q 564 897 599 897 z "},"ì":{"ha":833,"x_min":160,"x_max":719,"o":"m 515 101 l 719 101 l 719 0 l 160 0 l 160 101 l 382 101 l 382 631 l 167 631 l 167 732 l 515 732 l 515 101 m 253 993 l 319 1104 l 583 936 l 542 864 l 253 993 z "},"ĳ":{"ha":833,"x_min":64,"x_max":717,"o":"m 256 1082 q 322 1056 296 1082 q 349 993 349 1031 q 322 929 349 954 q 256 904 296 904 q 190 929 215 904 q 164 993 164 954 q 190 1056 164 1031 q 256 1082 215 1082 m 624 1082 q 690 1056 664 1082 q 717 993 717 1031 q 690 929 717 954 q 624 904 664 904 q 558 929 583 904 q 533 993 533 954 q 558 1056 533 1031 q 624 1082 583 1082 m 704 92 q 608 -151 704 -60 q 340 -297 513 -242 l 300 -194 q 501 -86 429 -147 q 574 82 574 -25 l 574 633 l 318 633 l 318 101 l 442 101 l 442 0 l 64 0 l 64 101 l 189 101 l 189 633 l 71 633 l 71 732 l 704 732 l 704 92 z "},"ī":{"ha":833,"x_min":160,"x_max":719,"o":"m 515 101 l 719 101 l 719 0 l 160 0 l 160 101 l 382 101 l 382 631 l 167 631 l 167 732 l 515 732 l 515 101 m 226 935 l 226 1033 l 608 1033 l 608 935 l 226 935 z "},"į":{"ha":833,"x_min":160,"x_max":719,"o":"m 417 904 q 351 929 376 904 q 325 993 325 954 q 351 1056 325 1031 q 417 1082 376 1082 q 484 1056 458 1082 q 510 993 510 1031 q 484 929 510 954 q 417 904 458 904 m 719 101 l 719 0 l 515 0 q 381 -78 417 -42 q 344 -158 344 -115 q 422 -225 344 -225 q 507 -215 460 -225 l 494 -314 q 407 -324 446 -324 q 278 -284 326 -324 q 231 -182 231 -244 q 369 0 231 -68 l 160 0 l 160 101 l 382 101 l 382 631 l 167 631 l 167 732 l 515 732 l 515 101 l 719 101 z "},"ĩ":{"ha":833,"x_min":160,"x_max":719,"o":"m 515 101 l 719 101 l 719 0 l 160 0 l 160 101 l 382 101 l 382 631 l 167 631 l 167 732 l 515 732 l 515 101 m 499 910 q 451 919 472 910 q 403 947 429 929 q 367 969 382 963 q 338 976 353 976 q 299 961 315 976 q 264 913 282 946 l 185 951 q 249 1042 211 1008 q 338 1076 288 1076 q 388 1066 367 1076 q 435 1038 408 1056 q 452 1026 439 1035 q 476 1014 465 1018 q 499 1010 488 1010 q 536 1024 519 1010 q 572 1071 553 1039 l 651 1032 q 586 941 625 972 q 499 910 547 910 z "},"j":{"ha":833,"x_min":128,"x_max":624,"o":"m 510 1082 q 577 1056 551 1082 q 603 993 603 1031 q 577 929 603 954 q 510 904 551 904 q 444 929 469 904 q 418 993 418 954 q 444 1056 418 1031 q 510 1082 469 1082 m 624 133 q 504 -154 624 -53 q 149 -297 385 -256 l 128 -194 q 397 -90 304 -162 q 490 125 490 -17 l 490 631 l 193 631 l 193 732 l 624 732 l 624 133 z "},"ȷ":{"ha":833,"x_min":128,"x_max":624,"o":"m 624 133 q 504 -154 624 -53 q 149 -297 385 -256 l 128 -194 q 397 -90 304 -162 q 490 125 490 -17 l 490 631 l 193 631 l 193 732 l 624 732 l 624 133 z "},"ĵ":{"ha":833,"x_min":128,"x_max":743,"o":"m 624 133 q 504 -154 624 -53 q 149 -297 385 -256 l 128 -194 q 397 -90 304 -162 q 490 125 490 -17 l 490 631 l 193 631 l 193 732 l 624 732 l 624 133 m 279 932 l 468 1101 l 556 1101 l 743 932 l 686 869 l 513 996 l 338 869 l 279 932 z "},"k":{"ha":833,"x_min":139,"x_max":794,"o":"m 272 0 l 139 0 l 139 1026 l 272 1043 l 272 0 m 444 403 l 794 0 l 625 0 l 285 400 l 596 732 l 760 732 l 444 403 z "},"ķ":{"ha":833,"x_min":139,"x_max":794,"o":"m 272 0 l 139 0 l 139 1026 l 272 1043 l 272 0 m 444 403 l 794 0 l 625 0 l 285 400 l 596 732 l 760 732 l 444 403 m 428 -97 q 485 -119 463 -97 q 508 -176 508 -142 q 486 -258 508 -210 l 417 -406 l 339 -406 l 379 -243 q 347 -176 347 -218 q 370 -119 347 -142 q 428 -97 393 -97 z "},"ĸ":{"ha":833,"x_min":132,"x_max":788,"o":"m 265 0 l 132 0 l 132 732 l 265 732 l 265 0 m 435 400 l 788 0 l 619 0 l 278 392 l 589 732 l 753 732 l 435 400 z "},"l":{"ha":833,"x_min":78,"x_max":704,"o":"m 433 189 q 550 93 433 93 q 671 118 607 93 l 704 22 q 525 -17 629 -17 q 360 41 421 -17 q 300 199 300 99 l 300 925 l 78 925 l 78 1026 l 433 1026 l 433 189 z "},"ĺ":{"ha":833,"x_min":78,"x_max":704,"o":"m 433 189 q 550 93 433 93 q 671 118 607 93 l 704 22 q 525 -17 629 -17 q 360 41 421 -17 q 300 199 300 99 l 300 925 l 78 925 l 78 1026 l 433 1026 l 433 189 m 540 1300 l 243 1179 l 203 1250 l 482 1410 l 540 1300 z "},"ľ":{"ha":833,"x_min":78,"x_max":704,"o":"m 433 189 q 550 93 433 93 q 671 118 607 93 l 704 22 q 525 -17 629 -17 q 360 41 421 -17 q 300 199 300 99 l 300 925 l 78 925 l 78 1026 l 433 1026 l 433 189 m 660 1026 l 579 767 l 501 779 l 539 1042 l 660 1026 z "},"ļ":{"ha":833,"x_min":78,"x_max":704,"o":"m 433 189 q 550 93 433 93 q 671 118 607 93 l 704 22 q 525 -17 629 -17 q 360 41 421 -17 q 300 199 300 99 l 300 925 l 78 925 l 78 1026 l 433 1026 l 433 189 m 504 -97 q 562 -119 539 -97 q 585 -176 585 -142 q 563 -258 585 -210 l 493 -406 l 415 -406 l 456 -243 q 424 -176 424 -218 q 447 -119 424 -142 q 504 -97 469 -97 z "},"ŀ":{"ha":833,"x_min":78,"x_max":872,"o":"m 433 189 q 550 93 433 93 q 671 118 607 93 l 704 22 q 525 -17 629 -17 q 360 41 421 -17 q 300 199 300 99 l 300 925 l 78 925 l 78 1026 l 433 1026 l 433 189 m 779 619 q 847 594 821 619 q 872 531 872 568 q 847 467 872 492 q 779 442 821 442 q 713 467 739 442 q 688 531 688 492 q 713 594 688 568 q 779 619 739 619 z "},"ł":{"ha":833,"x_min":78,"x_max":704,"o":"m 704 22 q 525 -17 629 -17 q 360 41 421 -17 q 300 199 300 99 l 300 414 l 211 360 l 157 443 l 300 529 l 300 925 l 78 925 l 78 1026 l 433 1026 l 433 613 l 553 686 l 607 603 l 433 496 l 433 189 q 550 93 433 93 q 671 118 607 93 l 704 22 z "},"m":{"ha":833,"x_min":65,"x_max":768,"o":"m 625 750 q 768 544 768 750 l 768 0 l 647 0 l 647 525 q 638 620 647 594 q 594 646 629 646 q 475 564 529 646 l 475 0 l 358 0 l 358 525 q 349 620 358 594 q 306 646 340 646 q 186 564 240 646 l 186 0 l 65 0 l 65 732 l 167 732 l 176 650 q 248 724 211 699 q 335 750 285 750 q 464 654 435 750 q 535 726 497 701 q 625 750 574 750 z "},"n":{"ha":833,"x_min":132,"x_max":703,"o":"m 132 732 l 247 732 l 257 633 q 366 719 301 689 q 497 750 431 750 q 651 694 600 750 q 703 532 703 638 l 703 0 l 569 0 l 569 450 q 561 567 569 526 q 528 626 553 607 q 453 646 503 646 q 348 612 397 646 q 265 529 299 578 l 265 0 l 132 0 l 132 732 z "},"ń":{"ha":833,"x_min":132,"x_max":703,"o":"m 132 732 l 247 732 l 257 633 q 366 719 301 689 q 497 750 431 750 q 651 694 600 750 q 703 532 703 638 l 703 0 l 569 0 l 569 450 q 561 567 569 526 q 528 626 553 607 q 453 646 503 646 q 348 612 397 646 q 265 529 299 578 l 265 0 l 132 0 l 132 732 m 590 1006 l 293 885 l 253 956 l 532 1115 l 590 1006 z "},"ŉ":{"ha":833,"x_min":0,"x_max":718,"o":"m 88 1047 q 144 1024 121 1047 q 168 968 168 1001 q 160 927 168 949 q 132 861 153 906 l 75 742 l 0 742 l 39 901 q 6 968 6 931 q 29 1024 6 1001 q 88 1047 53 1047 m 147 732 l 263 732 l 272 633 q 381 719 317 689 q 513 750 446 750 q 667 694 615 750 q 718 532 718 638 l 718 0 l 585 0 l 585 450 q 576 567 585 526 q 543 626 568 607 q 468 646 518 646 q 363 612 413 646 q 281 529 314 578 l 281 0 l 147 0 l 147 732 z "},"ň":{"ha":833,"x_min":132,"x_max":703,"o":"m 132 732 l 247 732 l 257 633 q 366 719 301 689 q 497 750 431 750 q 651 694 600 750 q 703 532 703 638 l 703 0 l 569 0 l 569 450 q 561 567 569 526 q 528 626 553 607 q 453 646 503 646 q 348 612 397 646 q 265 529 299 578 l 265 0 l 132 0 l 132 732 m 649 1039 l 461 869 l 374 869 l 185 1039 l 243 1101 l 418 975 l 592 1101 l 649 1039 z "},"ņ":{"ha":833,"x_min":132,"x_max":703,"o":"m 132 732 l 247 732 l 257 633 q 366 719 301 689 q 497 750 431 750 q 651 694 600 750 q 703 532 703 638 l 703 0 l 569 0 l 569 450 q 561 567 569 526 q 528 626 553 607 q 453 646 503 646 q 348 612 397 646 q 265 529 299 578 l 265 0 l 132 0 l 132 732 m 422 -97 q 480 -119 457 -97 q 503 -176 503 -142 q 481 -258 503 -210 l 411 -406 l 333 -406 l 374 -243 q 342 -176 342 -218 q 365 -119 342 -142 q 422 -97 388 -97 z "},"ŋ":{"ha":833,"x_min":132,"x_max":703,"o":"m 703 47 q 678 -120 703 -57 q 606 -221 653 -183 q 475 -296 558 -258 l 425 -199 q 509 -149 479 -174 q 554 -81 539 -125 q 569 38 569 -37 l 569 450 q 561 567 569 526 q 528 626 553 607 q 451 646 503 646 q 348 612 397 646 q 265 529 299 578 l 265 0 l 132 0 l 132 732 l 247 732 l 257 633 q 366 719 301 689 q 497 750 431 750 q 651 694 600 750 q 703 532 703 638 l 703 47 z "},"ñ":{"ha":833,"x_min":132,"x_max":703,"o":"m 132 732 l 247 732 l 257 633 q 366 719 301 689 q 497 750 431 750 q 651 694 600 750 q 703 532 703 638 l 703 0 l 569 0 l 569 450 q 561 567 569 526 q 528 626 553 607 q 453 646 503 646 q 348 612 397 646 q 265 529 299 578 l 265 0 l 132 0 l 132 732 m 497 910 q 449 919 471 910 q 401 947 428 929 q 366 969 381 963 q 336 976 351 976 q 297 961 314 976 q 263 913 281 946 l 183 951 q 248 1042 210 1008 q 336 1076 286 1076 q 386 1066 365 1076 q 433 1038 407 1056 q 451 1026 438 1035 q 475 1014 464 1018 q 497 1010 486 1010 q 535 1024 518 1010 q 571 1071 551 1039 l 650 1032 q 585 941 624 972 q 497 910 546 910 z "},"o":{"ha":833,"x_min":94,"x_max":739,"o":"m 418 750 q 656 647 572 750 q 739 367 739 544 q 654 88 739 192 q 417 -17 569 -17 q 178 85 261 -17 q 94 365 94 188 q 179 645 94 540 q 418 750 264 750 m 418 643 q 281 575 326 643 q 236 365 236 507 q 281 157 236 225 q 417 89 325 89 q 553 157 508 89 q 597 367 597 225 q 553 575 597 507 q 418 643 508 643 z "},"ó":{"ha":833,"x_min":94,"x_max":739,"o":"m 418 750 q 656 647 572 750 q 739 367 739 544 q 654 88 739 192 q 417 -17 569 -17 q 178 85 261 -17 q 94 365 94 188 q 179 645 94 540 q 418 750 264 750 m 418 643 q 281 575 326 643 q 236 365 236 507 q 281 157 236 225 q 417 89 325 89 q 553 157 508 89 q 597 367 597 225 q 553 575 597 507 q 418 643 508 643 m 590 1006 l 293 885 l 253 956 l 532 1115 l 590 1006 z "},"ŏ":{"ha":833,"x_min":94,"x_max":739,"o":"m 418 750 q 656 647 572 750 q 739 367 739 544 q 654 88 739 192 q 417 -17 569 -17 q 178 85 261 -17 q 94 365 94 188 q 179 645 94 540 q 418 750 264 750 m 418 643 q 281 575 326 643 q 236 365 236 507 q 281 157 236 225 q 417 89 325 89 q 553 157 508 89 q 597 367 597 225 q 553 575 597 507 q 418 643 508 643 m 414 871 q 307 900 353 871 q 235 974 261 929 q 204 1068 210 1019 l 290 1086 q 414 969 324 969 q 494 1001 463 969 q 542 1086 526 1032 l 628 1068 q 596 974 622 1019 q 523 900 569 929 q 414 871 476 871 z "},"ô":{"ha":833,"x_min":94,"x_max":739,"o":"m 418 750 q 656 647 572 750 q 739 367 739 544 q 654 88 739 192 q 417 -17 569 -17 q 178 85 261 -17 q 94 365 94 188 q 179 645 94 540 q 418 750 264 750 m 418 643 q 281 575 326 643 q 236 365 236 507 q 281 157 236 225 q 417 89 325 89 q 553 157 508 89 q 597 367 597 225 q 553 575 597 507 q 418 643 508 643 m 185 932 l 374 1101 l 461 1101 l 649 932 l 592 869 l 418 996 l 243 869 l 185 932 z "},"ö":{"ha":833,"x_min":94,"x_max":739,"o":"m 418 750 q 656 647 572 750 q 739 367 739 544 q 654 88 739 192 q 417 -17 569 -17 q 178 85 261 -17 q 94 365 94 188 q 179 645 94 540 q 418 750 264 750 m 418 643 q 281 575 326 643 q 236 365 236 507 q 281 157 236 225 q 417 89 325 89 q 553 157 508 89 q 597 367 597 225 q 553 575 597 507 q 418 643 508 643 m 269 897 q 211 920 235 897 q 188 978 188 943 q 211 1035 188 1013 q 269 1058 235 1058 q 328 1035 304 1058 q 351 978 351 1013 q 328 920 351 943 q 269 897 304 897 m 563 897 q 504 920 528 897 q 481 978 481 943 q 504 1035 481 1013 q 563 1058 528 1058 q 622 1035 599 1058 q 644 978 644 1013 q 621 920 644 943 q 563 897 597 897 z "},"ò":{"ha":833,"x_min":94,"x_max":739,"o":"m 418 750 q 656 647 572 750 q 739 367 739 544 q 654 88 739 192 q 417 -17 569 -17 q 178 85 261 -17 q 94 365 94 188 q 179 645 94 540 q 418 750 264 750 m 418 643 q 281 575 326 643 q 236 365 236 507 q 281 157 236 225 q 417 89 325 89 q 553 157 508 89 q 597 367 597 225 q 553 575 597 507 q 418 643 508 643 m 251 993 l 318 1104 l 582 936 l 540 864 l 251 993 z "},"ő":{"ha":833,"x_min":94,"x_max":739,"o":"m 418 750 q 656 647 572 750 q 739 367 739 544 q 654 88 739 192 q 417 -17 569 -17 q 178 85 261 -17 q 94 365 94 188 q 179 645 94 540 q 418 750 264 750 m 418 643 q 281 575 326 643 q 236 365 236 507 q 281 157 236 225 q 417 89 325 89 q 553 157 508 89 q 597 367 597 225 q 553 575 597 507 q 418 643 508 643 m 354 1165 l 465 1113 l 324 881 l 242 919 l 354 1165 m 593 1165 l 703 1108 l 549 878 l 469 919 l 593 1165 z "},"ō":{"ha":833,"x_min":94,"x_max":739,"o":"m 418 750 q 656 647 572 750 q 739 367 739 544 q 654 88 739 192 q 417 -17 569 -17 q 178 85 261 -17 q 94 365 94 188 q 179 645 94 540 q 418 750 264 750 m 418 643 q 281 575 326 643 q 236 365 236 507 q 281 157 236 225 q 417 89 325 89 q 553 157 508 89 q 597 367 597 225 q 553 575 597 507 q 418 643 508 643 m 225 935 l 225 1033 l 607 1033 l 607 935 l 225 935 z "},"ø":{"ha":833,"x_min":94,"x_max":739,"o":"m 585 707 q 699 573 658 661 q 739 367 739 485 q 654 88 739 192 q 417 -17 569 -17 q 351 -11 379 -17 l 300 -182 l 193 -151 l 250 26 q 135 158 175 71 q 94 365 94 246 q 179 645 94 540 q 418 750 264 750 q 482 744 454 750 l 535 910 l 642 879 l 585 707 m 418 643 q 281 575 326 643 q 236 365 236 507 q 301 128 236 188 l 460 639 q 418 643 440 643 m 417 89 q 553 157 508 89 q 597 367 597 225 q 535 603 597 540 l 375 92 q 417 89 403 89 z "},"ǿ":{"ha":833,"x_min":94,"x_max":739,"o":"m 585 707 q 699 573 658 661 q 739 367 739 485 q 654 88 739 192 q 417 -17 569 -17 q 351 -11 379 -17 l 300 -182 l 193 -151 l 250 26 q 135 158 175 71 q 94 365 94 246 q 179 645 94 540 q 418 750 264 750 q 482 744 454 750 l 535 910 l 642 879 l 585 707 m 418 643 q 281 575 326 643 q 236 365 236 507 q 301 128 236 188 l 460 639 q 418 643 440 643 m 417 89 q 553 157 508 89 q 597 367 597 225 q 535 603 597 540 l 375 92 q 417 89 403 89 m 590 1006 l 293 885 l 253 956 l 532 1115 l 590 1006 z "},"õ":{"ha":833,"x_min":94,"x_max":739,"o":"m 418 750 q 656 647 572 750 q 739 367 739 544 q 654 88 739 192 q 417 -17 569 -17 q 178 85 261 -17 q 94 365 94 188 q 179 645 94 540 q 418 750 264 750 m 418 643 q 281 575 326 643 q 236 365 236 507 q 281 157 236 225 q 417 89 325 89 q 553 157 508 89 q 597 367 597 225 q 553 575 597 507 q 418 643 508 643 m 497 910 q 449 919 471 910 q 401 947 428 929 q 366 969 381 963 q 336 976 351 976 q 297 961 314 976 q 263 913 281 946 l 183 951 q 248 1042 210 1008 q 336 1076 286 1076 q 386 1066 365 1076 q 433 1038 407 1056 q 451 1026 438 1035 q 475 1014 464 1018 q 497 1010 486 1010 q 535 1024 518 1010 q 571 1071 551 1039 l 650 1032 q 585 941 624 972 q 497 910 546 910 z "},"œ":{"ha":833,"x_min":-4,"x_max":853,"o":"m 621 750 q 853 388 853 750 q 849 322 853 350 l 490 322 q 535 144 500 200 q 639 89 569 89 q 704 101 675 89 q 769 142 733 114 l 829 57 q 738 2 785 21 q 636 -17 692 -17 q 428 119 486 -17 q 355 18 400 53 q 233 -17 310 -17 q 55 84 114 -17 q -4 365 -4 185 q 54 647 -4 544 q 233 750 113 750 q 358 715 313 750 q 429 611 403 679 q 621 750 488 750 m 617 646 q 528 594 557 646 q 490 418 499 543 l 731 418 q 703 591 728 536 q 617 646 679 646 m 247 644 q 156 578 183 644 q 129 365 129 511 q 156 153 129 217 q 247 89 183 89 q 316 116 290 89 q 353 203 342 143 q 364 367 364 263 q 337 578 364 511 q 247 644 310 644 z "},"p":{"ha":833,"x_min":132,"x_max":739,"o":"m 474 750 q 739 367 739 750 q 666 89 739 194 q 457 -17 593 -17 q 265 65 339 -17 l 265 -281 l 132 -297 l 132 732 l 247 732 l 257 633 q 353 720 297 690 q 474 750 410 750 m 439 644 q 342 613 386 644 q 265 532 299 582 l 265 178 q 335 113 294 136 q 424 90 375 90 q 553 158 510 90 q 597 367 597 225 q 558 576 597 508 q 439 644 519 644 z "},"þ":{"ha":833,"x_min":132,"x_max":739,"o":"m 265 644 q 359 723 306 696 q 474 750 413 750 q 739 367 739 750 q 666 89 739 194 q 457 -17 593 -17 q 265 65 339 -17 l 265 -281 l 132 -297 l 132 1026 l 265 1043 l 265 644 m 439 644 q 342 613 386 644 q 265 532 299 582 l 265 178 q 335 113 294 136 q 424 90 375 90 q 553 158 510 90 q 597 367 597 225 q 558 576 597 508 q 439 644 519 644 z "},"q":{"ha":833,"x_min":94,"x_max":701,"o":"m 376 750 q 576 656 501 750 l 586 732 l 701 732 l 701 -297 l 568 -281 l 568 88 q 364 -17 490 -17 q 94 365 94 -17 q 169 643 94 536 q 376 750 243 750 m 410 644 q 236 365 236 644 q 276 158 236 225 q 396 90 315 90 q 568 199 497 90 l 568 556 q 499 621 539 597 q 410 644 458 644 z "},"r":{"ha":833,"x_min":139,"x_max":744,"o":"m 638 749 q 744 732 688 749 l 724 475 l 621 475 l 621 628 l 619 628 q 385 392 454 628 l 385 99 l 533 99 l 533 0 l 139 0 l 139 99 l 251 99 l 251 633 l 139 633 l 139 732 l 353 732 l 376 561 q 481 702 419 656 q 638 749 543 749 z "},"ŕ":{"ha":833,"x_min":139,"x_max":744,"o":"m 638 749 q 744 732 688 749 l 724 475 l 621 475 l 621 628 l 619 628 q 385 392 454 628 l 385 99 l 533 99 l 533 0 l 139 0 l 139 99 l 251 99 l 251 633 l 139 633 l 139 732 l 353 732 l 376 561 q 481 702 419 656 q 638 749 543 749 m 632 1006 l 335 885 l 294 956 l 574 1115 l 632 1006 z "},"ř":{"ha":833,"x_min":139,"x_max":744,"o":"m 638 749 q 744 732 688 749 l 724 475 l 621 475 l 621 628 l 619 628 q 385 392 454 628 l 385 99 l 533 99 l 533 0 l 139 0 l 139 99 l 251 99 l 251 633 l 139 633 l 139 732 l 353 732 l 376 561 q 481 702 419 656 q 638 749 543 749 m 690 1039 l 503 869 l 415 869 l 226 1039 l 285 1101 l 460 975 l 633 1101 l 690 1039 z "},"ŗ":{"ha":833,"x_min":139,"x_max":744,"o":"m 638 749 q 744 732 688 749 l 724 475 l 621 475 l 621 628 l 619 628 q 385 392 454 628 l 385 99 l 533 99 l 533 0 l 139 0 l 139 99 l 251 99 l 251 633 l 139 633 l 139 732 l 353 732 l 376 561 q 481 702 419 656 q 638 749 543 749 m 322 -97 q 380 -119 357 -97 q 403 -176 403 -142 q 381 -258 403 -210 l 311 -406 l 233 -406 l 274 -243 q 242 -176 242 -218 q 265 -119 242 -142 q 322 -97 288 -97 z "},"s":{"ha":833,"x_min":97,"x_max":704,"o":"m 389 89 q 515 118 469 89 q 561 197 561 147 q 549 254 561 232 q 499 294 536 276 q 385 332 461 313 q 199 410 260 364 q 139 544 139 456 q 217 694 139 638 q 422 750 294 750 q 694 667 582 750 l 636 579 q 540 627 590 610 q 426 644 490 644 q 276 556 276 644 q 293 506 276 525 q 349 469 310 486 q 467 432 389 453 q 645 351 586 400 q 704 206 704 301 q 613 39 704 94 q 389 -17 522 -17 q 97 83 213 -17 l 169 168 q 270 110 214 131 q 389 89 326 89 z "},"ś":{"ha":833,"x_min":97,"x_max":704,"o":"m 389 89 q 515 118 469 89 q 561 197 561 147 q 549 254 561 232 q 499 294 536 276 q 385 332 461 313 q 199 410 260 364 q 139 544 139 456 q 217 694 139 638 q 422 750 294 750 q 694 667 582 750 l 636 579 q 540 627 590 610 q 426 644 490 644 q 276 556 276 644 q 293 506 276 525 q 349 469 310 486 q 467 432 389 453 q 645 351 586 400 q 704 206 704 301 q 613 39 704 94 q 389 -17 522 -17 q 97 83 213 -17 l 169 168 q 270 110 214 131 q 389 89 326 89 m 601 1006 l 304 885 l 264 956 l 543 1115 l 601 1006 z "},"š":{"ha":833,"x_min":97,"x_max":704,"o":"m 389 89 q 515 118 469 89 q 561 197 561 147 q 549 254 561 232 q 499 294 536 276 q 385 332 461 313 q 199 410 260 364 q 139 544 139 456 q 217 694 139 638 q 422 750 294 750 q 694 667 582 750 l 636 579 q 540 627 590 610 q 426 644 490 644 q 276 556 276 644 q 293 506 276 525 q 349 469 310 486 q 467 432 389 453 q 645 351 586 400 q 704 206 704 301 q 613 39 704 94 q 389 -17 522 -17 q 97 83 213 -17 l 169 168 q 270 110 214 131 q 389 89 326 89 m 660 1039 l 472 869 l 385 869 l 196 1039 l 254 1101 l 429 975 l 603 1101 l 660 1039 z "},"ş":{"ha":833,"x_min":97,"x_max":704,"o":"m 704 206 q 631 51 704 107 q 443 -14 557 -4 l 443 -78 q 541 -117 508 -83 q 574 -196 574 -150 q 524 -299 574 -262 q 399 -336 474 -336 q 317 -327 356 -336 q 250 -301 278 -318 l 289 -229 q 382 -251 333 -251 q 464 -196 464 -251 q 434 -151 464 -162 q 343 -139 404 -139 l 353 -15 q 97 83 201 -6 l 169 168 q 270 110 214 131 q 389 89 326 89 q 515 118 469 89 q 561 197 561 147 q 549 254 561 232 q 499 294 536 276 q 385 332 461 313 q 199 410 260 364 q 139 544 139 456 q 217 694 139 638 q 422 750 294 750 q 694 667 582 750 l 636 579 q 540 627 590 610 q 426 644 490 644 q 276 556 276 644 q 293 506 276 525 q 349 469 310 486 q 467 432 389 453 q 645 351 586 400 q 704 206 704 301 z "},"ŝ":{"ha":833,"x_min":97,"x_max":704,"o":"m 389 89 q 515 118 469 89 q 561 197 561 147 q 549 254 561 232 q 499 294 536 276 q 385 332 461 313 q 199 410 260 364 q 139 544 139 456 q 217 694 139 638 q 422 750 294 750 q 694 667 582 750 l 636 579 q 540 627 590 610 q 426 644 490 644 q 276 556 276 644 q 293 506 276 525 q 349 469 310 486 q 467 432 389 453 q 645 351 586 400 q 704 206 704 301 q 613 39 704 94 q 389 -17 522 -17 q 97 83 213 -17 l 169 168 q 270 110 214 131 q 389 89 326 89 m 196 932 l 385 1101 l 472 1101 l 660 932 l 603 869 l 429 996 l 254 869 l 196 932 z "},"ș":{"ha":833,"x_min":97,"x_max":704,"o":"m 389 89 q 515 118 469 89 q 561 197 561 147 q 549 254 561 232 q 499 294 536 276 q 385 332 461 313 q 199 410 260 364 q 139 544 139 456 q 217 694 139 638 q 422 750 294 750 q 694 667 582 750 l 636 579 q 540 627 590 610 q 426 644 490 644 q 276 556 276 644 q 293 506 276 525 q 349 469 310 486 q 467 432 389 453 q 645 351 586 400 q 704 206 704 301 q 613 39 704 94 q 389 -17 522 -17 q 97 83 213 -17 l 169 168 q 270 110 214 131 q 389 89 326 89 m 417 -97 q 474 -119 451 -97 q 497 -176 497 -142 q 475 -258 497 -210 l 406 -406 l 328 -406 l 368 -243 q 336 -176 336 -218 q 359 -119 336 -142 q 417 -97 382 -97 z "},"ß":{"ha":833,"x_min":125,"x_max":779,"o":"m 411 1043 q 590 986 522 1043 q 658 840 658 929 q 635 758 658 790 q 569 689 613 726 q 521 641 536 660 q 506 596 506 622 q 530 540 506 564 q 608 481 554 515 q 696 417 661 447 q 755 342 731 388 q 779 232 779 296 q 744 98 779 154 q 649 13 708 42 q 517 -17 589 -17 q 338 31 413 -17 l 389 121 q 504 90 442 90 q 607 124 571 90 q 643 226 643 158 q 611 319 643 283 q 514 397 579 354 q 442 449 468 428 q 397 503 415 471 q 379 578 379 535 q 401 655 379 624 q 463 721 422 686 q 514 774 497 751 q 531 829 531 797 q 501 906 531 874 q 410 939 472 939 q 296 894 333 939 q 258 749 258 849 l 258 0 l 125 0 l 125 740 q 200 965 125 888 q 411 1043 275 1043 z "},"t":{"ha":833,"x_min":106,"x_max":728,"o":"m 728 38 q 633 -2 688 13 q 524 -17 579 -17 q 337 46 403 -17 q 271 213 271 108 l 271 632 l 106 632 l 106 732 l 271 732 l 271 897 l 404 913 l 404 732 l 656 732 l 639 632 l 404 632 l 404 214 q 436 123 404 153 q 539 93 468 93 q 678 128 613 93 l 728 38 z "},"ŧ":{"ha":833,"x_min":106,"x_max":728,"o":"m 728 38 q 633 -2 688 13 q 524 -17 579 -17 q 337 46 403 -17 q 271 213 271 108 l 271 394 l 121 394 l 121 490 l 271 490 l 271 632 l 106 632 l 106 732 l 271 732 l 271 897 l 404 913 l 404 732 l 656 732 l 639 632 l 404 632 l 404 490 l 640 490 l 640 394 l 404 394 l 404 214 q 436 123 404 153 q 539 93 468 93 q 678 128 613 93 l 728 38 z "},"ť":{"ha":833,"x_min":106,"x_max":728,"o":"m 728 38 q 633 -2 688 13 q 524 -17 579 -17 q 337 46 403 -17 q 271 213 271 108 l 271 632 l 106 632 l 106 732 l 271 732 l 271 897 l 404 913 l 404 732 l 656 732 l 639 632 l 404 632 l 404 214 q 436 123 404 153 q 539 93 468 93 q 678 128 613 93 l 728 38 m 632 1058 l 551 799 l 474 811 l 511 1074 l 632 1058 z "},"ţ":{"ha":833,"x_min":106,"x_max":728,"o":"m 543 -78 q 641 -117 608 -83 q 674 -196 674 -150 q 624 -299 674 -262 q 499 -336 574 -336 q 417 -327 456 -336 q 350 -301 378 -318 l 389 -229 q 482 -251 433 -251 q 564 -196 564 -251 q 534 -151 564 -162 q 443 -139 504 -139 l 453 -10 q 318 66 365 7 q 271 213 271 125 l 271 632 l 106 632 l 106 732 l 271 732 l 271 897 l 404 913 l 404 732 l 656 732 l 639 632 l 404 632 l 404 214 q 436 123 404 153 q 539 93 468 93 q 678 128 613 93 l 728 38 q 643 1 692 15 q 543 -17 594 -14 l 543 -78 z "},"ț":{"ha":833,"x_min":106,"x_max":728,"o":"m 728 38 q 633 -2 688 13 q 524 -17 579 -17 q 337 46 403 -17 q 271 213 271 108 l 271 632 l 106 632 l 106 732 l 271 732 l 271 897 l 404 913 l 404 732 l 656 732 l 639 632 l 404 632 l 404 214 q 436 123 404 153 q 539 93 468 93 q 678 128 613 93 l 728 38 m 517 -97 q 574 -119 551 -97 q 597 -176 597 -142 q 575 -258 597 -210 l 506 -406 l 428 -406 l 468 -243 q 436 -176 436 -218 q 459 -119 436 -142 q 517 -97 482 -97 z "},"u":{"ha":833,"x_min":132,"x_max":701,"o":"m 265 217 q 294 117 265 149 q 381 86 322 86 q 486 118 435 86 q 568 197 538 150 l 568 732 l 701 732 l 701 0 l 586 0 l 576 97 q 472 13 535 43 q 343 -17 410 -17 q 185 40 239 -17 q 132 200 132 96 l 132 732 l 265 732 l 265 217 z "},"ú":{"ha":833,"x_min":132,"x_max":701,"o":"m 265 217 q 294 117 265 149 q 381 86 322 86 q 486 118 435 86 q 568 197 538 150 l 568 732 l 701 732 l 701 0 l 586 0 l 576 97 q 472 13 535 43 q 343 -17 410 -17 q 185 40 239 -17 q 132 200 132 96 l 132 732 l 265 732 l 265 217 m 590 1006 l 293 885 l 253 956 l 532 1115 l 590 1006 z "},"ŭ":{"ha":833,"x_min":132,"x_max":701,"o":"m 265 217 q 294 117 265 149 q 381 86 322 86 q 486 118 435 86 q 568 197 538 150 l 568 732 l 701 732 l 701 0 l 586 0 l 576 97 q 472 13 535 43 q 343 -17 410 -17 q 185 40 239 -17 q 132 200 132 96 l 132 732 l 265 732 l 265 217 m 414 871 q 307 900 353 871 q 235 974 261 929 q 204 1068 210 1019 l 290 1086 q 414 969 324 969 q 494 1001 463 969 q 542 1086 526 1032 l 628 1068 q 596 974 622 1019 q 523 900 569 929 q 414 871 476 871 z "},"û":{"ha":833,"x_min":132,"x_max":701,"o":"m 265 217 q 294 117 265 149 q 381 86 322 86 q 486 118 435 86 q 568 197 538 150 l 568 732 l 701 732 l 701 0 l 586 0 l 576 97 q 472 13 535 43 q 343 -17 410 -17 q 185 40 239 -17 q 132 200 132 96 l 132 732 l 265 732 l 265 217 m 185 932 l 374 1101 l 461 1101 l 649 932 l 592 869 l 418 996 l 243 869 l 185 932 z "},"ü":{"ha":833,"x_min":132,"x_max":701,"o":"m 265 217 q 294 117 265 149 q 381 86 322 86 q 486 118 435 86 q 568 197 538 150 l 568 732 l 701 732 l 701 0 l 586 0 l 576 97 q 472 13 535 43 q 343 -17 410 -17 q 185 40 239 -17 q 132 200 132 96 l 132 732 l 265 732 l 265 217 m 269 897 q 211 920 235 897 q 188 978 188 943 q 211 1035 188 1013 q 269 1058 235 1058 q 328 1035 304 1058 q 351 978 351 1013 q 328 920 351 943 q 269 897 304 897 m 563 897 q 504 920 528 897 q 481 978 481 943 q 504 1035 481 1013 q 563 1058 528 1058 q 622 1035 599 1058 q 644 978 644 1013 q 621 920 644 943 q 563 897 597 897 z "},"ù":{"ha":833,"x_min":132,"x_max":701,"o":"m 265 217 q 294 117 265 149 q 381 86 322 86 q 486 118 435 86 q 568 197 538 150 l 568 732 l 701 732 l 701 0 l 586 0 l 576 97 q 472 13 535 43 q 343 -17 410 -17 q 185 40 239 -17 q 132 200 132 96 l 132 732 l 265 732 l 265 217 m 251 993 l 318 1104 l 582 936 l 540 864 l 251 993 z "},"ű":{"ha":833,"x_min":132,"x_max":703,"o":"m 265 217 q 294 117 265 149 q 381 86 322 86 q 486 118 435 86 q 568 197 538 150 l 568 732 l 701 732 l 701 0 l 586 0 l 576 97 q 472 13 535 43 q 343 -17 410 -17 q 185 40 239 -17 q 132 200 132 96 l 132 732 l 265 732 l 265 217 m 354 1165 l 465 1113 l 324 881 l 242 919 l 354 1165 m 593 1165 l 703 1108 l 549 878 l 469 919 l 593 1165 z "},"ū":{"ha":833,"x_min":132,"x_max":701,"o":"m 265 217 q 294 117 265 149 q 381 86 322 86 q 486 118 435 86 q 568 197 538 150 l 568 732 l 701 732 l 701 0 l 586 0 l 576 97 q 472 13 535 43 q 343 -17 410 -17 q 185 40 239 -17 q 132 200 132 96 l 132 732 l 265 732 l 265 217 m 225 935 l 225 1033 l 607 1033 l 607 935 l 225 935 z "},"ų":{"ha":833,"x_min":132,"x_max":701,"o":"m 701 0 q 567 -78 603 -42 q 531 -158 531 -115 q 608 -225 531 -225 q 693 -215 646 -225 l 681 -314 q 593 -324 632 -324 q 465 -284 513 -324 q 417 -182 417 -244 q 458 -71 417 -119 q 585 14 500 -22 l 576 97 q 472 13 535 43 q 343 -17 410 -17 q 185 40 239 -17 q 132 200 132 96 l 132 732 l 265 732 l 265 217 q 294 117 265 149 q 381 86 322 86 q 486 118 435 86 q 568 197 538 150 l 568 732 l 701 732 l 701 0 z "},"ů":{"ha":833,"x_min":132,"x_max":701,"o":"m 265 217 q 294 117 265 149 q 381 86 322 86 q 486 118 435 86 q 568 197 538 150 l 568 732 l 701 732 l 701 0 l 586 0 l 576 97 q 472 13 535 43 q 343 -17 410 -17 q 185 40 239 -17 q 132 200 132 96 l 132 732 l 265 732 l 265 217 m 417 1153 q 531 1110 486 1153 q 576 1004 576 1067 q 531 899 576 942 q 417 856 486 856 q 301 899 347 856 q 256 1004 256 942 q 301 1110 256 1067 q 417 1153 347 1153 m 417 1081 q 363 1060 383 1081 q 343 1004 343 1040 q 363 947 343 968 q 417 926 383 926 q 470 947 451 926 q 489 1004 489 968 q 470 1060 489 1040 q 417 1081 451 1081 z "},"ũ":{"ha":833,"x_min":132,"x_max":701,"o":"m 265 217 q 294 117 265 149 q 381 86 322 86 q 486 118 435 86 q 568 197 538 150 l 568 732 l 701 732 l 701 0 l 586 0 l 576 97 q 472 13 535 43 q 343 -17 410 -17 q 185 40 239 -17 q 132 200 132 96 l 132 732 l 265 732 l 265 217 m 497 910 q 449 919 471 910 q 401 947 428 929 q 366 969 381 963 q 336 976 351 976 q 297 961 314 976 q 263 913 281 946 l 183 951 q 248 1042 210 1008 q 336 1076 286 1076 q 386 1066 365 1076 q 433 1038 407 1056 q 451 1026 438 1035 q 475 1014 464 1018 q 497 1010 486 1010 q 535 1024 518 1010 q 571 1071 551 1039 l 650 1032 q 585 941 624 972 q 497 910 546 910 z "},"v":{"ha":833,"x_min":76,"x_max":757,"o":"m 493 0 l 339 0 l 76 732 l 219 732 l 419 115 l 619 732 l 757 732 l 493 0 z "},"w":{"ha":833,"x_min":21,"x_max":813,"o":"m 511 0 l 421 529 l 324 0 l 150 0 l 21 732 l 153 732 l 240 83 l 350 639 l 496 639 l 599 83 l 686 732 l 813 732 l 689 0 l 511 0 z "},"ẃ":{"ha":833,"x_min":21,"x_max":813,"o":"m 511 0 l 421 529 l 324 0 l 150 0 l 21 732 l 153 732 l 240 83 l 350 639 l 496 639 l 599 83 l 686 732 l 813 732 l 689 0 l 511 0 m 590 1006 l 293 885 l 253 956 l 532 1115 l 590 1006 z "},"ŵ":{"ha":833,"x_min":21,"x_max":813,"o":"m 511 0 l 421 529 l 324 0 l 150 0 l 21 732 l 153 732 l 240 83 l 350 639 l 496 639 l 599 83 l 686 732 l 813 732 l 689 0 l 511 0 m 185 932 l 374 1101 l 461 1101 l 649 932 l 592 869 l 418 996 l 243 869 l 185 932 z "},"ẅ":{"ha":833,"x_min":21,"x_max":813,"o":"m 511 0 l 421 529 l 324 0 l 150 0 l 21 732 l 153 732 l 240 83 l 350 639 l 496 639 l 599 83 l 686 732 l 813 732 l 689 0 l 511 0 m 269 897 q 211 920 235 897 q 188 978 188 943 q 211 1035 188 1013 q 269 1058 235 1058 q 328 1035 304 1058 q 351 978 351 1013 q 328 920 351 943 q 269 897 304 897 m 563 897 q 504 920 528 897 q 481 978 481 943 q 504 1035 481 1013 q 563 1058 528 1058 q 622 1035 599 1058 q 644 978 644 1013 q 621 920 644 943 q 563 897 597 897 z "},"ẁ":{"ha":833,"x_min":21,"x_max":813,"o":"m 511 0 l 421 529 l 324 0 l 150 0 l 21 732 l 153 732 l 240 83 l 350 639 l 496 639 l 599 83 l 686 732 l 813 732 l 689 0 l 511 0 m 251 993 l 318 1104 l 582 936 l 540 864 l 251 993 z "},"x":{"ha":833,"x_min":69,"x_max":764,"o":"m 69 0 l 338 386 l 101 732 l 257 732 l 418 467 l 581 732 l 731 732 l 496 392 l 764 0 l 604 0 l 413 308 l 219 0 l 69 0 z "},"y":{"ha":833,"x_min":78,"x_max":756,"o":"m 500 -4 q 378 -208 457 -133 q 160 -297 300 -283 l 142 -193 q 258 -157 214 -181 q 328 -97 303 -133 q 375 0 354 -60 l 329 0 l 78 732 l 219 732 l 419 97 l 618 732 l 756 732 l 500 -4 z "},"ý":{"ha":833,"x_min":78,"x_max":756,"o":"m 500 -4 q 378 -208 457 -133 q 160 -297 300 -283 l 142 -193 q 258 -157 214 -181 q 328 -97 303 -133 q 375 0 354 -60 l 329 0 l 78 732 l 219 732 l 419 97 l 618 732 l 756 732 l 500 -4 m 590 1006 l 293 885 l 253 956 l 532 1115 l 590 1006 z "},"ŷ":{"ha":833,"x_min":78,"x_max":756,"o":"m 500 -4 q 378 -208 457 -133 q 160 -297 300 -283 l 142 -193 q 258 -157 214 -181 q 328 -97 303 -133 q 375 0 354 -60 l 329 0 l 78 732 l 219 732 l 419 97 l 618 732 l 756 732 l 500 -4 m 185 932 l 374 1101 l 461 1101 l 649 932 l 592 869 l 418 996 l 243 869 l 185 932 z "},"ÿ":{"ha":833,"x_min":78,"x_max":756,"o":"m 500 -4 q 378 -208 457 -133 q 160 -297 300 -283 l 142 -193 q 258 -157 214 -181 q 328 -97 303 -133 q 375 0 354 -60 l 329 0 l 78 732 l 219 732 l 419 97 l 618 732 l 756 732 l 500 -4 m 269 897 q 211 920 235 897 q 188 978 188 943 q 211 1035 188 1013 q 269 1058 235 1058 q 328 1035 304 1058 q 351 978 351 1013 q 328 920 351 943 q 269 897 304 897 m 563 897 q 504 920 528 897 q 481 978 481 943 q 504 1035 481 1013 q 563 1058 528 1058 q 622 1035 599 1058 q 644 978 644 1013 q 621 920 644 943 q 563 897 597 897 z "},"ỳ":{"ha":833,"x_min":78,"x_max":756,"o":"m 500 -4 q 378 -208 457 -133 q 160 -297 300 -283 l 142 -193 q 258 -157 214 -181 q 328 -97 303 -133 q 375 0 354 -60 l 329 0 l 78 732 l 219 732 l 419 97 l 618 732 l 756 732 l 500 -4 m 251 993 l 318 1104 l 582 936 l 540 864 l 251 993 z "},"z":{"ha":833,"x_min":135,"x_max":697,"o":"m 697 111 l 682 0 l 135 0 l 135 100 l 535 621 l 167 621 l 167 732 l 693 732 l 693 632 l 297 111 l 697 111 z "},"ź":{"ha":833,"x_min":135,"x_max":697,"o":"m 697 111 l 682 0 l 135 0 l 135 100 l 535 621 l 167 621 l 167 732 l 693 732 l 693 632 l 297 111 l 697 111 m 604 1006 l 307 885 l 267 956 l 546 1115 l 604 1006 z "},"ž":{"ha":833,"x_min":135,"x_max":697,"o":"m 697 111 l 682 0 l 135 0 l 135 100 l 535 621 l 167 621 l 167 732 l 693 732 l 693 632 l 297 111 l 697 111 m 663 1039 l 475 869 l 388 869 l 199 1039 l 257 1101 l 432 975 l 606 1101 l 663 1039 z "},"ż":{"ha":833,"x_min":135,"x_max":697,"o":"m 697 111 l 682 0 l 135 0 l 135 100 l 535 621 l 167 621 l 167 732 l 693 732 l 693 632 l 297 111 l 697 111 m 429 1082 q 497 1056 471 1082 q 522 993 522 1031 q 497 929 522 954 q 429 904 471 904 q 363 929 389 904 q 338 993 338 954 q 363 1056 338 1031 q 429 1082 389 1082 z "},"ª":{"ha":833,"x_min":138,"x_max":696,"o":"m 403 1043 q 580 992 521 1043 q 639 846 639 940 l 639 579 q 650 533 639 549 q 685 510 661 517 l 657 426 q 580 451 610 432 q 535 508 550 471 q 452 448 501 469 q 349 426 403 426 q 196 477 254 426 q 138 611 138 528 q 217 753 138 703 q 439 804 296 804 l 519 804 l 519 842 q 485 921 519 896 q 386 946 451 946 q 310 938 354 946 q 218 913 265 929 l 183 1000 q 403 1043 299 1043 m 444 719 q 310 694 353 719 q 268 617 268 668 q 297 542 268 567 q 379 517 325 517 q 456 536 419 517 q 519 592 493 556 l 519 719 l 444 719 m 696 0 l 146 0 l 146 113 l 696 113 l 696 0 z "},"º":{"ha":833,"x_min":129,"x_max":703,"o":"m 417 1043 q 626 959 549 1043 q 703 735 703 875 q 667 574 703 644 q 567 465 632 504 q 417 426 503 426 q 207 510 285 426 q 129 735 129 594 q 165 895 129 825 q 265 1004 200 965 q 417 1043 331 1043 m 417 946 q 300 893 342 946 q 258 735 258 840 q 300 576 258 628 q 417 524 342 524 q 533 576 492 524 q 574 735 574 628 q 533 893 574 840 q 417 946 492 946 m 693 0 l 142 0 l 142 113 l 693 113 l 693 0 z "},"ⁿ":{"ha":833,"x_min":229,"x_max":606,"o":"m 465 1004 q 606 861 606 1004 l 606 525 l 496 525 l 496 811 q 485 895 496 872 q 438 918 474 918 q 384 900 411 918 q 338 856 357 882 l 338 525 l 229 525 l 229 994 l 326 994 l 331 939 q 393 988 357 971 q 465 1004 429 1004 z "},"Ԭ":{"ha":833,"x_min":74,"x_max":786,"o":"m 786 113 l 786 -210 l 678 -210 l 657 0 l 203 0 l 182 -210 l 74 -210 l 74 113 l 126 113 q 275 471 222 219 q 124 567 172 494 q 75 771 76 640 l 75 957 l 208 957 l 208 775 q 228 651 208 697 q 296 585 249 606 l 308 681 l 340 957 l 735 957 l 735 113 l 786 113 m 442 674 q 428 565 435 604 l 603 565 l 603 846 l 460 846 l 442 674 m 603 113 l 603 457 l 410 457 q 346 244 382 322 q 258 113 310 165 l 603 113 z "},"Ԫ":{"ha":833,"x_min":-18,"x_max":850,"o":"m 850 0 l 731 0 l 628 449 l 592 449 l 592 0 l 507 0 l 507 -210 l 415 -210 l 394 0 l 94 0 l 74 -210 l -18 -210 l -18 97 l 28 97 q 80 284 60 179 q 115 613 100 389 l 138 957 l 418 957 l 418 550 l 486 550 l 486 957 l 592 957 l 592 550 l 629 550 l 719 957 l 825 957 l 719 507 l 850 0 m 311 860 l 240 860 l 226 607 q 192 278 215 386 q 125 97 169 169 l 311 97 l 311 860 m 418 449 l 418 97 l 486 97 l 486 449 l 418 449 z "},"Ԯ":{"ha":833,"x_min":1,"x_max":765,"o":"m 765 113 l 765 -210 l 657 -210 l 636 0 l 546 0 l 546 843 l 335 843 l 303 581 q 248 249 278 361 q 178 85 218 138 q 61 -17 138 32 l 1 82 q 68 153 43 115 q 117 283 93 190 q 164 556 142 376 l 214 957 l 683 957 l 683 113 l 765 113 z "},"Ԩ":{"ha":833,"x_min":-129,"x_max":725,"o":"m 725 957 l 725 0 l 588 0 l 588 446 l 246 446 l 246 -78 q 189 -242 246 -186 q 32 -299 132 -299 q -129 -244 -61 -299 l -78 -158 q -28 -182 -50 -175 q 24 -189 -7 -189 q 108 -87 108 -189 l 108 957 l 246 957 l 246 560 l 588 560 l 588 957 l 725 957 z "},"А":{"ha":833,"x_min":21,"x_max":813,"o":"m 232 239 l 160 0 l 21 0 l 331 957 l 503 957 l 813 0 l 667 0 l 594 239 l 232 239 m 563 349 l 414 846 l 264 349 l 563 349 z "},"Б":{"ha":833,"x_min":131,"x_max":758,"o":"m 663 844 l 268 844 l 268 589 l 385 589 q 661 519 564 589 q 758 301 758 449 q 659 73 758 146 q 388 0 560 0 l 131 0 l 131 957 l 675 957 l 663 844 m 268 483 l 268 110 l 397 110 q 559 151 503 110 q 615 300 615 193 q 558 440 615 396 q 397 483 500 483 l 268 483 z "},"В":{"ha":833,"x_min":125,"x_max":757,"o":"m 757 274 q 653 65 757 129 q 392 0 549 0 l 125 0 l 125 957 l 372 957 q 618 901 521 957 q 715 715 715 844 q 665 576 715 629 q 538 507 614 524 q 757 274 757 469 m 575 706 q 528 815 575 781 q 393 850 482 850 l 263 850 l 263 554 l 404 554 q 575 706 575 554 m 613 272 q 559 407 613 368 q 414 446 506 446 l 263 446 l 263 111 l 408 111 q 613 272 613 111 z "},"Г":{"ha":833,"x_min":179,"x_max":760,"o":"m 744 839 l 317 839 l 317 0 l 179 0 l 179 957 l 760 957 l 744 839 z "},"Ѓ":{"ha":833,"x_min":179,"x_max":760,"o":"m 744 839 l 317 839 l 317 0 l 179 0 l 179 957 l 760 957 l 744 839 m 651 1158 l 350 1049 l 315 1119 l 594 1269 l 651 1158 z "},"Ґ":{"ha":833,"x_min":179,"x_max":760,"o":"m 760 1163 l 760 957 l 744 839 l 317 839 l 317 0 l 179 0 l 179 957 l 626 957 l 626 1163 l 760 1163 z "},"Д":{"ha":833,"x_min":-3,"x_max":788,"o":"m 788 113 l 788 -210 l 679 -210 l 658 0 l 126 0 l 106 -210 l -3 -210 l -3 113 l 56 113 q 113 203 93 149 q 149 353 133 258 q 193 678 164 447 l 226 957 l 717 957 l 717 113 l 788 113 m 579 846 l 347 846 l 328 674 q 288 367 304 467 q 249 209 272 267 q 183 113 226 151 l 579 113 l 579 846 z "},"Е":{"ha":833,"x_min":167,"x_max":735,"o":"m 304 540 l 657 540 l 657 432 l 304 432 l 304 108 l 735 108 l 735 0 l 167 0 l 167 957 l 725 957 l 708 849 l 304 849 l 304 540 z "},"Ѐ":{"ha":833,"x_min":167,"x_max":735,"o":"m 304 540 l 657 540 l 657 432 l 304 432 l 304 108 l 735 108 l 735 0 l 167 0 l 167 957 l 725 957 l 708 849 l 304 849 l 304 540 m 611 1119 l 574 1049 l 281 1163 l 349 1272 l 611 1119 z "},"Ё":{"ha":833,"x_min":167,"x_max":735,"o":"m 304 540 l 657 540 l 657 432 l 304 432 l 304 108 l 735 108 l 735 0 l 167 0 l 167 957 l 725 957 l 708 849 l 304 849 l 304 540 m 299 1064 q 240 1087 264 1064 q 217 1144 217 1110 q 240 1202 217 1179 q 299 1225 264 1225 q 357 1202 333 1225 q 381 1144 381 1179 q 357 1087 381 1110 q 299 1064 333 1064 m 592 1064 q 533 1087 557 1064 q 510 1144 510 1110 q 533 1202 510 1179 q 592 1225 557 1225 q 651 1202 628 1225 q 674 1144 674 1179 q 650 1087 674 1110 q 592 1064 626 1064 z "},"Ж":{"ha":833,"x_min":14,"x_max":819,"o":"m 282 453 l 143 0 l 14 0 l 182 510 l 33 957 l 161 957 l 283 553 l 360 553 l 360 957 l 474 957 l 474 553 l 550 553 l 674 957 l 800 957 l 651 510 l 819 0 l 688 0 l 550 453 l 474 453 l 474 0 l 360 0 l 360 453 l 282 453 z "},"З":{"ha":833,"x_min":42,"x_max":756,"o":"m 390 975 q 567 943 492 975 q 683 854 642 911 q 724 724 724 797 q 668 585 724 639 q 522 519 613 532 q 689 449 622 511 q 756 283 756 388 q 710 128 756 196 q 581 22 665 60 q 385 -17 497 -17 q 193 18 281 -17 q 42 119 106 53 l 124 194 q 383 94 239 94 q 550 144 490 94 q 610 281 610 193 q 551 413 610 369 q 393 457 492 457 l 225 457 l 242 568 l 385 568 q 527 606 471 568 q 583 719 583 644 q 528 827 583 789 q 385 865 474 865 q 252 842 311 865 q 136 776 193 819 l 63 854 q 390 975 207 975 z "},"И":{"ha":833,"x_min":108,"x_max":725,"o":"m 108 957 l 243 957 l 243 499 q 238 297 243 379 q 219 122 232 215 l 554 957 l 725 957 l 725 0 l 590 0 l 590 458 q 614 829 590 656 l 282 0 l 108 0 l 108 957 z "},"Й":{"ha":833,"x_min":108,"x_max":725,"o":"m 108 957 l 243 957 l 243 499 q 238 297 243 379 q 219 122 232 215 l 554 957 l 725 957 l 725 0 l 590 0 l 590 458 q 614 829 590 656 l 282 0 l 108 0 l 108 957 m 414 1065 q 270 1110 328 1065 q 204 1231 213 1154 l 290 1250 q 334 1185 304 1206 q 414 1165 364 1165 q 542 1250 514 1165 l 628 1231 q 560 1110 619 1154 q 414 1065 501 1065 z "},"Ѝ":{"ha":833,"x_min":108,"x_max":725,"o":"m 108 957 l 243 957 l 243 499 q 238 297 243 379 q 219 122 232 215 l 554 957 l 725 957 l 725 0 l 590 0 l 590 458 q 614 829 590 656 l 282 0 l 108 0 l 108 957 m 582 1119 l 544 1049 l 251 1163 l 319 1272 l 582 1119 z "},"Ҋ":{"ha":833,"x_min":108,"x_max":850,"o":"m 414 1065 q 270 1110 328 1065 q 204 1231 213 1154 l 290 1250 q 334 1185 304 1206 q 414 1165 364 1165 q 542 1250 514 1165 l 628 1231 q 560 1110 619 1154 q 414 1065 501 1065 m 850 114 l 736 -210 l 628 -210 l 676 0 l 590 0 l 590 458 q 614 829 590 656 l 282 0 l 108 0 l 108 957 l 243 957 l 243 499 q 238 297 243 379 q 219 122 232 215 l 554 957 l 725 957 l 725 114 l 850 114 z "},"К":{"ha":833,"x_min":122,"x_max":819,"o":"m 260 447 l 260 0 l 122 0 l 122 957 l 260 957 l 260 558 l 368 558 l 649 957 l 793 957 l 483 510 l 819 0 l 657 0 l 367 447 l 260 447 z "},"Ќ":{"ha":833,"x_min":122,"x_max":819,"o":"m 260 447 l 260 0 l 122 0 l 122 957 l 260 957 l 260 558 l 368 558 l 649 957 l 793 957 l 483 510 l 819 0 l 657 0 l 367 447 l 260 447 m 615 1158 l 314 1049 l 279 1119 l 558 1269 l 615 1158 z "},"Л":{"ha":833,"x_min":15,"x_max":725,"o":"m 725 0 l 588 0 l 588 843 l 347 843 l 315 581 q 260 249 290 361 q 190 84 231 136 q 74 -17 150 32 l 15 82 q 81 153 57 115 q 130 284 106 190 q 176 556 154 378 l 226 957 l 725 957 l 725 0 z "},"М":{"ha":833,"x_min":39,"x_max":794,"o":"m 794 0 l 664 0 l 638 486 q 632 721 632 592 l 633 833 l 481 171 l 351 171 l 188 833 q 192 643 192 775 q 189 485 192 535 l 165 0 l 39 0 l 93 957 l 272 957 l 419 308 l 560 957 l 740 957 l 794 0 z "},"Н":{"ha":833,"x_min":108,"x_max":725,"o":"m 588 446 l 246 446 l 246 0 l 108 0 l 108 957 l 246 957 l 246 560 l 588 560 l 588 957 l 725 957 l 725 0 l 588 0 l 588 446 z "},"О":{"ha":833,"x_min":60,"x_max":774,"o":"m 774 478 q 681 118 774 253 q 417 -17 589 -17 q 151 116 243 -17 q 60 476 60 249 q 152 839 60 703 q 417 975 244 975 q 682 841 590 975 q 774 478 774 707 m 631 478 q 580 767 631 671 q 417 863 529 863 q 253 767 304 863 q 203 476 203 671 q 255 190 203 285 q 417 94 307 94 q 580 190 529 94 q 631 478 631 285 z "},"П":{"ha":833,"x_min":108,"x_max":725,"o":"m 588 842 l 246 842 l 246 0 l 108 0 l 108 957 l 725 957 l 725 0 l 588 0 l 588 842 z "},"Р":{"ha":833,"x_min":149,"x_max":778,"o":"m 778 660 q 678 425 778 500 q 407 350 579 350 l 286 350 l 286 0 l 149 0 l 149 957 l 401 957 q 680 883 582 957 q 778 660 778 808 m 632 660 q 574 806 632 760 q 415 851 517 851 l 286 851 l 286 457 l 414 457 q 574 503 517 457 q 632 660 632 549 z "},"С":{"ha":833,"x_min":81,"x_max":793,"o":"m 497 975 q 653 951 589 975 q 779 879 718 928 l 706 792 q 506 863 621 863 q 303 771 381 863 q 225 479 225 679 q 301 190 225 282 q 504 99 376 99 q 626 120 576 99 q 725 179 676 142 l 793 92 q 672 13 744 43 q 501 -17 599 -17 q 285 41 381 -17 q 135 210 190 99 q 81 479 81 322 q 136 747 81 635 q 287 917 192 860 q 497 975 382 975 z "},"Т":{"ha":833,"x_min":51,"x_max":782,"o":"m 483 0 l 346 0 l 346 842 l 51 842 l 51 957 l 782 957 l 768 842 l 483 842 l 483 0 z "},"У":{"ha":833,"x_min":29,"x_max":811,"o":"m 526 263 q 446 115 489 171 q 336 28 403 60 q 165 -17 269 -4 l 146 89 q 276 122 228 100 q 350 176 324 143 q 397 263 376 208 l 343 263 l 29 957 l 174 957 l 435 349 l 672 957 l 811 957 l 526 263 z "},"Ў":{"ha":833,"x_min":29,"x_max":811,"o":"m 526 263 q 446 115 489 171 q 336 28 403 60 q 165 -17 269 -4 l 146 89 q 276 122 228 100 q 350 176 324 143 q 397 263 376 208 l 343 263 l 29 957 l 174 957 l 435 349 l 672 957 l 811 957 l 526 263 m 428 1053 q 284 1101 342 1053 q 218 1225 226 1149 l 304 1244 q 428 1153 336 1153 q 508 1177 475 1153 q 556 1244 540 1201 l 642 1225 q 574 1101 633 1149 q 428 1053 514 1053 z "},"Ф":{"ha":833,"x_min":17,"x_max":817,"o":"m 479 915 q 734 796 651 903 q 817 482 817 689 q 731 163 817 274 q 479 44 644 53 l 479 -43 l 354 -43 l 354 44 q 103 163 189 53 q 17 482 17 272 q 99 796 17 689 q 354 915 182 903 l 354 1000 l 479 1000 l 479 915 m 358 821 q 202 738 251 815 q 153 482 153 661 q 201 230 153 310 q 358 140 249 150 l 358 821 m 475 140 q 633 230 585 150 q 681 482 681 310 q 631 738 681 661 q 475 821 582 815 l 475 140 z "},"Х":{"ha":833,"x_min":38,"x_max":797,"o":"m 218 957 l 417 600 l 618 957 l 765 957 l 496 517 l 797 0 l 640 0 l 414 421 l 185 0 l 38 0 l 332 510 l 61 957 l 218 957 z "},"Ч":{"ha":833,"x_min":65,"x_max":725,"o":"m 725 957 l 725 0 l 588 0 l 588 383 q 473 319 528 339 q 346 300 418 300 q 142 378 218 300 q 65 590 65 457 l 65 957 l 203 957 l 203 599 q 382 415 203 415 q 588 494 503 415 l 588 957 l 725 957 z "},"Ц":{"ha":833,"x_min":108,"x_max":807,"o":"m 807 113 l 807 -210 l 699 -210 l 678 0 l 108 0 l 108 957 l 246 957 l 246 113 l 588 113 l 588 957 l 725 957 l 725 113 l 807 113 z "},"Ш":{"ha":833,"x_min":61,"x_max":772,"o":"m 772 0 l 61 0 l 61 957 l 186 957 l 186 110 l 358 110 l 358 957 l 475 957 l 475 110 l 647 110 l 647 957 l 772 957 l 772 0 z "},"Щ":{"ha":833,"x_min":61,"x_max":854,"o":"m 854 113 l 854 -210 l 746 -210 l 725 0 l 61 0 l 61 957 l 186 957 l 186 110 l 358 110 l 358 957 l 475 957 l 475 110 l 647 110 l 647 957 l 772 957 l 772 113 l 854 113 z "},"Џ":{"ha":833,"x_min":108,"x_max":725,"o":"m 725 0 l 482 0 l 482 -210 l 374 -210 l 353 0 l 108 0 l 108 957 l 246 957 l 246 113 l 588 113 l 588 957 l 725 957 l 725 0 z "},"Ь":{"ha":833,"x_min":122,"x_max":771,"o":"m 260 607 l 396 607 q 674 535 576 607 q 771 311 771 463 q 672 76 771 151 q 400 0 572 0 l 122 0 l 122 957 l 260 957 l 260 607 m 260 501 l 260 110 l 410 110 q 569 153 514 110 q 625 310 625 197 q 408 501 625 501 l 260 501 z "},"Ъ":{"ha":833,"x_min":0,"x_max":808,"o":"m 299 607 l 433 607 q 711 535 614 607 q 808 311 808 463 q 709 76 808 151 q 438 0 610 0 l 161 0 l 161 842 l 0 842 l 0 957 l 299 957 l 299 607 m 299 501 l 299 108 l 447 108 q 609 152 553 108 q 665 310 665 196 q 449 501 665 501 l 299 501 z "},"Ы":{"ha":833,"x_min":40,"x_max":793,"o":"m 174 608 l 249 608 q 508 533 421 608 q 594 311 594 457 q 506 78 594 156 q 251 0 417 0 l 40 0 l 40 957 l 174 957 l 174 608 m 793 0 l 660 0 l 660 957 l 793 957 l 793 0 m 174 506 l 174 106 l 263 106 q 408 153 358 106 q 457 310 457 201 q 263 506 457 506 l 174 506 z "},"Љ":{"ha":833,"x_min":-1,"x_max":833,"o":"m 494 607 q 749 535 665 607 q 833 311 833 463 q 504 0 833 0 l 367 0 l 367 850 l 244 850 l 215 431 q 185 181 203 265 q 140 59 167 97 q 64 -17 114 21 l -1 71 q 39 131 24 97 q 67 235 54 164 q 89 436 79 307 l 129 957 l 494 957 l 494 607 m 494 506 l 494 106 l 515 106 q 654 151 610 106 q 699 310 699 196 q 653 460 699 414 q 515 506 608 506 l 494 506 z "},"Њ":{"ha":833,"x_min":54,"x_max":833,"o":"m 496 579 q 749 511 665 579 q 833 299 833 443 q 749 71 833 142 q 504 0 664 0 l 367 0 l 367 479 l 183 479 l 183 0 l 54 0 l 54 957 l 183 957 l 183 579 l 367 579 l 367 957 l 496 957 l 496 579 m 496 479 l 496 104 l 515 104 q 618 122 579 106 q 678 179 657 138 q 699 297 699 221 q 654 438 699 396 q 515 479 610 479 l 496 479 z "},"Ѕ":{"ha":833,"x_min":53,"x_max":753,"o":"m 753 268 q 710 119 753 183 q 588 19 668 56 q 396 -17 507 -17 q 201 15 288 -17 q 53 107 114 47 l 132 196 q 397 94 240 94 q 548 138 488 94 q 608 263 608 182 q 590 340 608 308 q 529 394 572 371 q 406 442 486 418 q 173 552 249 489 q 97 722 97 615 q 138 853 97 796 q 251 943 178 911 q 415 975 324 975 q 588 947 513 975 q 726 863 664 918 l 650 776 q 421 863 551 863 q 289 828 340 863 q 238 729 238 794 q 259 661 238 689 q 330 610 281 633 q 471 560 379 586 q 680 456 607 519 q 753 268 753 392 z "},"Є":{"ha":833,"x_min":75,"x_max":786,"o":"m 490 975 q 647 951 581 975 q 774 879 713 928 l 704 797 q 500 865 610 865 q 308 788 385 865 q 219 547 232 711 l 631 547 l 631 436 l 217 436 q 301 179 225 264 q 497 94 378 94 q 717 176 624 94 l 786 90 q 492 -17 671 -17 q 275 41 369 -17 q 128 210 181 99 q 75 479 75 322 q 131 747 75 635 q 281 917 186 860 q 490 975 375 975 z "},"Э":{"ha":833,"x_min":51,"x_max":753,"o":"m 372 975 q 652 852 551 975 q 753 490 753 729 q 647 114 753 244 q 358 -17 542 -17 q 188 16 267 -17 q 51 106 108 49 l 131 183 q 233 117 181 139 q 351 94 286 94 q 538 178 474 94 q 611 436 603 261 l 201 436 l 201 547 l 611 547 q 540 790 601 715 q 364 865 478 865 q 241 842 293 865 q 136 778 189 819 l 63 856 q 201 943 126 911 q 372 975 276 975 z "},"І":{"ha":833,"x_min":136,"x_max":697,"o":"m 697 850 l 486 850 l 486 108 l 697 108 l 697 0 l 136 0 l 136 108 l 347 108 l 347 850 l 136 850 l 136 957 l 697 957 l 697 850 z "},"Ї":{"ha":833,"x_min":136,"x_max":697,"o":"m 697 850 l 486 850 l 486 108 l 697 108 l 697 0 l 136 0 l 136 108 l 347 108 l 347 850 l 136 850 l 136 957 l 697 957 l 697 850 m 269 1064 q 211 1087 235 1064 q 188 1144 188 1110 q 211 1202 188 1179 q 269 1225 235 1225 q 328 1202 304 1225 q 351 1144 351 1179 q 328 1087 351 1110 q 269 1064 304 1064 m 563 1064 q 504 1087 528 1064 q 481 1144 481 1110 q 504 1202 481 1179 q 563 1225 528 1225 q 622 1202 599 1225 q 644 1144 644 1179 q 621 1087 644 1110 q 563 1064 597 1064 z "},"Ј":{"ha":833,"x_min":93,"x_max":697,"o":"m 697 322 q 616 81 697 179 q 360 -17 535 -17 q 93 71 211 -17 l 151 160 q 357 94 257 94 q 505 156 451 94 q 558 328 558 218 l 558 849 l 274 849 l 274 957 l 697 957 l 697 322 z "},"Ћ":{"ha":833,"x_min":-7,"x_max":790,"o":"m 565 847 l 347 847 l 347 550 q 543 629 431 629 q 790 343 790 629 l 790 0 l 654 0 l 654 339 q 622 475 654 435 q 511 515 589 515 q 419 496 457 515 q 347 446 381 476 l 347 0 l 213 0 l 213 847 l -7 847 l -7 957 l 579 957 l 565 847 z "},"Ю":{"ha":833,"x_min":61,"x_max":806,"o":"m 540 975 q 746 854 686 975 q 806 478 806 733 q 743 107 806 231 q 540 -17 681 -17 q 339 101 400 -17 q 275 442 278 219 l 186 442 l 186 0 l 61 0 l 61 957 l 186 957 l 186 550 l 276 550 q 347 869 285 763 q 540 975 408 975 m 540 868 q 463 832 492 868 q 422 712 435 796 q 410 479 410 628 q 422 248 410 332 q 463 127 435 164 q 540 90 492 90 q 616 126 588 90 q 658 247 644 163 q 672 478 672 332 q 658 710 672 625 q 616 831 644 794 q 540 868 588 868 z "},"Я":{"ha":833,"x_min":39,"x_max":725,"o":"m 725 0 l 588 0 l 588 379 l 389 379 l 193 0 l 39 0 l 263 408 q 138 513 181 446 q 96 669 96 579 q 190 883 96 808 q 463 957 283 957 l 725 957 l 725 0 m 451 851 q 293 807 344 851 q 242 669 242 763 q 431 486 242 486 l 588 486 l 588 851 l 451 851 z "},"Ђ":{"ha":833,"x_min":-7,"x_max":790,"o":"m 347 550 q 543 629 436 629 q 790 343 790 629 l 790 133 q 728 -81 790 -7 q 542 -196 667 -154 l 507 -90 q 598 -37 567 -65 q 642 30 629 -10 q 654 133 654 69 l 654 339 q 622 475 654 435 q 511 515 589 515 q 419 496 457 515 q 347 446 381 476 l 347 0 l 213 0 l 213 847 l -7 847 l -7 957 l 579 957 l 565 847 l 347 847 l 347 550 z "},"Ѡ":{"ha":833,"x_min":22,"x_max":813,"o":"m 713 957 q 784 717 756 843 q 813 415 813 592 q 752 87 813 190 q 585 -17 692 -17 q 480 19 519 -17 q 418 125 440 54 q 357 19 396 54 q 253 -17 318 -17 q 138 26 190 -17 q 54 166 86 69 q 22 415 22 263 q 50 714 22 592 q 122 957 78 836 l 249 957 q 178 703 201 825 q 154 419 154 581 q 185 169 154 246 q 274 93 217 93 q 332 126 310 93 q 354 233 354 160 l 354 553 l 481 553 l 481 233 q 506 128 481 163 q 569 93 531 93 q 651 162 622 93 q 681 417 681 231 q 656 697 681 575 q 586 957 632 818 l 713 957 z "},"Ѣ":{"ha":833,"x_min":14,"x_max":793,"o":"m 435 599 q 697 525 601 599 q 793 308 793 451 q 693 76 793 153 q 424 0 593 0 l 207 0 l 207 733 l 14 733 l 14 831 l 207 831 l 207 957 l 346 957 l 346 831 l 551 831 l 551 733 l 346 733 l 346 599 l 435 599 m 432 110 q 590 154 533 110 q 647 307 647 199 q 592 448 647 404 q 436 492 538 492 l 346 492 l 346 110 l 432 110 z "},"Ѥ":{"ha":833,"x_min":51,"x_max":829,"o":"m 829 47 q 740 0 788 17 q 625 -17 692 -17 q 379 100 469 -17 q 281 436 289 217 l 189 436 l 189 0 l 51 0 l 51 957 l 189 957 l 189 550 l 282 550 q 390 865 296 754 q 635 975 483 975 q 738 962 696 975 q 821 919 779 949 l 761 832 q 703 858 731 850 q 638 865 675 865 q 489 790 544 865 q 421 547 433 715 l 722 547 l 722 436 l 418 436 q 632 94 433 94 q 707 106 676 94 q 771 136 738 117 l 829 47 z "},"Ѧ":{"ha":833,"x_min":21,"x_max":813,"o":"m 550 393 l 475 393 l 475 0 l 353 0 l 353 393 l 278 393 l 160 0 l 21 0 l 331 957 l 503 957 l 813 0 l 668 0 l 550 393 m 517 504 l 414 849 l 311 504 l 517 504 z "},"Ѩ":{"ha":833,"x_min":43,"x_max":838,"o":"m 624 399 l 578 399 l 578 0 l 471 0 l 471 399 l 424 399 l 338 0 l 215 0 l 308 399 l 171 399 l 171 0 l 43 0 l 43 957 l 171 957 l 171 500 l 333 500 l 440 957 l 614 957 l 838 0 l 710 0 l 624 399 m 601 500 l 524 863 l 446 500 l 601 500 z "},"Ѫ":{"ha":833,"x_min":44,"x_max":789,"o":"m 789 0 l 665 0 l 553 432 l 481 432 l 481 0 l 354 0 l 354 432 l 281 432 l 168 0 l 44 0 l 200 531 l 300 531 l 124 871 l 124 957 l 715 957 l 715 871 l 533 531 l 642 531 l 789 0 m 421 531 l 585 864 l 257 864 l 421 531 z "},"Ѭ":{"ha":833,"x_min":22,"x_max":868,"o":"m 868 0 l 746 0 l 651 432 l 592 432 l 592 0 l 467 0 l 467 432 l 407 432 l 310 0 l 188 0 l 300 432 l 150 432 l 150 0 l 22 0 l 22 957 l 150 957 l 150 531 l 417 531 l 264 871 l 264 957 l 797 957 l 797 871 l 639 531 l 740 531 l 868 0 m 390 864 l 532 531 l 674 864 l 390 864 z "},"Ѯ":{"ha":833,"x_min":110,"x_max":724,"o":"m 350 1047 l 161 1201 l 218 1265 l 393 1153 l 569 1265 l 625 1201 l 438 1047 l 350 1047 m 411 525 q 644 452 564 524 q 724 250 724 381 q 641 50 724 124 q 431 -40 558 -24 q 297 -69 331 -54 q 263 -114 263 -85 q 288 -163 263 -140 q 365 -214 313 -186 l 315 -300 q 174 -211 221 -260 q 126 -101 126 -162 q 182 7 126 -32 q 357 61 238 46 q 524 121 467 75 q 581 253 581 167 q 531 385 581 344 q 381 426 482 426 l 229 426 l 229 521 l 515 846 l 110 846 l 110 957 l 676 957 l 676 847 l 379 525 l 411 525 z "},"Ѱ":{"ha":833,"x_min":18,"x_max":815,"o":"m 349 265 q 100 367 182 279 q 18 596 18 454 l 18 957 l 153 957 l 153 600 q 198 440 153 494 q 353 374 243 385 l 353 957 l 482 957 l 482 375 q 635 441 590 386 q 681 600 681 496 l 681 957 l 815 957 l 815 596 q 733 369 815 457 q 485 267 650 282 l 485 0 l 349 0 l 349 265 z "},"Ѳ":{"ha":833,"x_min":60,"x_max":774,"o":"m 774 478 q 681 118 774 253 q 417 -17 589 -17 q 151 116 243 -17 q 60 476 60 249 q 152 839 60 703 q 417 975 244 975 q 682 841 590 975 q 774 478 774 707 m 417 863 q 263 781 314 863 q 204 538 211 700 l 628 538 q 570 781 621 700 q 417 863 519 863 m 417 94 q 574 180 524 94 q 629 438 625 265 l 203 438 q 259 181 207 267 q 417 94 311 94 z "},"Ѵ":{"ha":833,"x_min":35,"x_max":825,"o":"m 789 861 q 746 871 763 871 q 706 854 721 871 q 681 800 690 838 l 468 0 l 311 0 l 35 957 l 182 957 l 389 144 l 554 817 q 617 938 575 900 q 728 975 658 975 q 825 951 781 975 l 789 861 z "},"Ѷ":{"ha":833,"x_min":35,"x_max":825,"o":"m 789 861 q 746 871 763 871 q 706 854 721 871 q 681 800 690 838 l 468 0 l 311 0 l 35 957 l 182 957 l 389 144 l 554 817 q 617 938 575 900 q 728 975 658 975 q 825 951 781 975 l 789 861 m 257 1103 l 103 1333 l 213 1390 l 336 1144 l 257 1103 m 482 1106 l 340 1338 l 451 1390 l 564 1144 l 482 1106 z "},"Ѹ":{"ha":833,"x_min":8,"x_max":825,"o":"m 225 -17 q 60 109 111 -17 q 8 476 8 235 q 225 975 8 975 q 392 848 340 975 q 443 478 443 721 q 392 109 443 235 q 225 -17 340 -17 m 225 83 q 285 124 264 83 q 315 249 307 164 q 324 478 324 333 q 315 708 324 622 q 285 834 307 793 q 225 875 264 875 q 166 834 188 875 q 136 707 144 793 q 128 476 128 621 q 149 174 128 265 q 225 83 171 83 m 465 -206 q 563 -139 528 -186 q 613 0 599 -92 l 561 0 l 447 732 l 558 732 l 639 97 l 714 732 l 825 732 l 711 -4 q 635 -199 692 -129 q 485 -297 578 -269 l 465 -206 z "},"Ғ":{"ha":833,"x_min":85,"x_max":801,"o":"m 358 839 l 358 601 l 574 601 l 574 501 l 358 501 l 358 0 l 221 0 l 221 501 l 85 501 l 85 601 l 221 601 l 221 957 l 801 957 l 786 839 l 358 839 z "},"Ҕ":{"ha":833,"x_min":107,"x_max":767,"o":"m 767 1 l 767 -76 q 710 -241 767 -185 q 553 -297 653 -297 q 392 -243 460 -297 l 443 -157 q 492 -181 471 -174 q 544 -187 514 -187 q 629 -86 629 -187 l 629 0 l 628 0 l 628 325 q 463 514 628 514 q 342 488 393 514 q 244 411 290 463 l 244 0 l 107 0 l 107 957 l 656 957 l 638 844 l 246 844 l 244 846 l 244 531 q 490 629 343 629 q 692 549 619 629 q 765 326 765 468 l 765 1 l 767 1 z "},"Җ":{"ha":833,"x_min":14,"x_max":847,"o":"m 847 113 l 847 -210 l 740 -210 l 719 0 l 688 0 l 550 453 l 474 453 l 474 0 l 360 0 l 360 453 l 282 453 l 143 0 l 14 0 l 182 510 l 33 957 l 161 957 l 283 553 l 360 553 l 360 957 l 474 957 l 474 553 l 550 553 l 674 957 l 800 957 l 651 510 l 782 113 l 847 113 z "},"Ҙ":{"ha":833,"x_min":42,"x_max":756,"o":"m 756 283 q 670 81 756 163 q 438 -14 585 0 l 438 -78 q 535 -117 503 -83 q 568 -196 568 -150 q 518 -299 568 -262 q 393 -336 468 -336 q 311 -327 350 -336 q 244 -301 272 -318 l 283 -229 q 376 -251 328 -251 q 458 -196 458 -251 q 428 -151 458 -162 q 338 -139 399 -139 l 347 -15 q 176 25 254 -10 q 42 119 99 60 l 124 194 q 383 94 239 94 q 550 144 490 94 q 610 281 610 193 q 551 413 610 369 q 393 457 492 457 l 225 457 l 242 568 l 385 568 q 527 606 471 568 q 583 719 583 644 q 528 827 583 789 q 385 865 474 865 q 252 842 311 865 q 136 776 193 819 l 63 854 q 390 975 207 975 q 567 943 492 975 q 683 854 642 911 q 724 724 724 797 q 668 585 724 639 q 522 519 613 532 q 689 449 622 511 q 756 283 756 388 z "},"Қ":{"ha":833,"x_min":122,"x_max":819,"o":"m 819 113 l 819 -210 l 711 -210 l 690 0 l 657 0 l 367 447 l 260 447 l 260 0 l 122 0 l 122 957 l 260 957 l 260 558 l 368 558 l 649 957 l 793 957 l 483 510 l 746 113 l 819 113 z "},"Ҝ":{"ha":833,"x_min":122,"x_max":819,"o":"m 318 449 l 254 449 l 254 0 l 122 0 l 122 957 l 254 957 l 254 557 l 318 557 l 318 792 l 393 792 l 393 557 l 428 557 l 651 957 l 793 957 l 535 510 l 819 0 l 668 0 l 428 449 l 393 449 l 393 208 l 318 208 l 318 449 z "},"Ҟ":{"ha":833,"x_min":46,"x_max":815,"o":"m 815 0 l 653 0 l 390 447 l 283 447 l 283 0 l 146 0 l 146 729 l 46 729 l 46 832 l 146 832 l 146 957 l 283 957 l 283 832 l 435 832 l 435 729 l 283 729 l 283 558 l 392 558 l 644 957 l 789 957 l 507 510 l 815 0 z "},"Ҡ":{"ha":833,"x_min":13,"x_max":833,"o":"m 311 447 l 311 0 l 175 0 l 175 842 l 13 842 l 13 957 l 311 957 l 311 558 l 407 558 l 663 957 l 807 957 l 522 510 l 833 0 l 672 0 l 406 447 l 311 447 z "},"Ң":{"ha":833,"x_min":108,"x_max":807,"o":"m 807 113 l 807 -210 l 699 -210 l 678 0 l 588 0 l 588 446 l 246 446 l 246 0 l 108 0 l 108 957 l 246 957 l 246 560 l 588 560 l 588 957 l 725 957 l 725 113 l 807 113 z "},"Ҧ":{"ha":833,"x_min":38,"x_max":821,"o":"m 626 629 q 769 570 717 629 q 821 413 821 511 l 821 -78 q 764 -240 821 -183 q 614 -297 707 -297 q 453 -243 521 -297 l 504 -158 q 553 -183 532 -175 q 606 -190 575 -190 q 690 -87 690 -190 l 690 411 q 667 490 690 464 q 600 515 643 515 q 488 468 540 515 l 488 0 l 357 0 l 357 843 l 168 843 l 168 0 l 38 0 l 38 957 l 488 957 l 488 574 q 626 629 546 629 z "},"Ԥ":{"ha":833,"x_min":108,"x_max":807,"o":"m 807 113 l 807 -210 l 699 -210 l 678 0 l 588 0 l 588 842 l 246 842 l 246 0 l 108 0 l 108 957 l 725 957 l 725 113 l 807 113 z "},"Ҩ":{"ha":833,"x_min":46,"x_max":808,"o":"m 808 364 q 762 176 808 265 q 631 36 715 86 l 674 -21 q 703 -60 686 -37 q 740 -108 721 -82 l 656 -172 l 528 -7 q 435 -17 476 -17 q 231 41 318 -17 q 94 210 143 99 q 46 479 46 321 q 97 747 46 635 q 235 917 149 860 q 424 975 321 975 q 565 952 507 975 q 685 879 624 929 l 615 792 q 524 845 569 828 q 428 863 479 863 q 260 771 326 863 q 193 479 193 679 q 258 190 193 282 q 438 97 324 97 l 454 97 q 386 230 410 167 q 363 357 363 293 q 390 481 363 426 q 469 567 418 536 q 585 599 519 599 q 749 535 689 599 q 808 364 808 471 m 488 358 q 507 241 488 296 q 565 126 526 186 q 649 217 621 157 q 676 365 676 278 q 585 496 676 496 q 512 460 536 496 q 488 358 488 424 z "},"Ҫ":{"ha":833,"x_min":81,"x_max":793,"o":"m 549 -15 q 654 -179 654 -81 q 606 -293 654 -250 q 474 -336 557 -336 q 338 -301 396 -336 l 369 -225 q 415 -242 396 -236 q 465 -249 435 -249 q 524 -228 504 -249 q 544 -172 544 -207 q 518 -88 544 -129 q 439 -12 492 -47 q 253 63 335 1 q 126 231 172 125 q 81 479 81 336 q 136 747 81 635 q 287 917 192 860 q 497 975 382 975 q 653 951 589 975 q 779 879 718 928 l 706 792 q 506 863 621 863 q 303 771 381 863 q 225 479 225 679 q 301 190 225 282 q 504 99 376 99 q 626 120 576 99 q 725 179 676 142 l 793 92 q 549 -15 701 0 z "},"Ҭ":{"ha":833,"x_min":51,"x_max":782,"o":"m 483 842 l 483 113 l 565 113 l 565 -210 l 457 -210 l 436 0 l 346 0 l 346 842 l 51 842 l 51 957 l 782 957 l 768 842 l 483 842 z "},"Ү":{"ha":833,"x_min":25,"x_max":808,"o":"m 486 0 l 347 0 l 347 367 l 25 957 l 178 957 l 419 489 l 664 957 l 808 957 l 486 368 l 486 0 z "},"Ұ":{"ha":833,"x_min":25,"x_max":808,"o":"m 524 438 l 661 438 l 661 338 l 486 338 l 486 0 l 347 0 l 347 338 l 172 338 l 172 438 l 308 438 l 25 957 l 178 957 l 419 489 l 664 957 l 808 957 l 524 438 z "},"Ҳ":{"ha":833,"x_min":38,"x_max":803,"o":"m 803 113 l 803 -210 l 694 -210 l 674 0 l 640 0 l 414 421 l 185 0 l 38 0 l 332 510 l 61 957 l 218 957 l 417 600 l 618 957 l 765 957 l 496 517 l 732 113 l 803 113 z "},"Ҷ":{"ha":833,"x_min":65,"x_max":807,"o":"m 807 113 l 807 -210 l 699 -210 l 678 0 l 588 0 l 588 383 q 473 319 528 339 q 346 300 418 300 q 142 378 218 300 q 65 590 65 457 l 65 957 l 203 957 l 203 599 q 382 415 203 415 q 588 494 503 415 l 588 957 l 725 957 l 725 113 l 807 113 z "},"Ҹ":{"ha":833,"x_min":65,"x_max":725,"o":"m 725 957 l 725 0 l 588 0 l 588 383 q 443 311 514 328 l 443 167 l 361 167 l 361 300 l 346 300 q 142 378 218 300 q 65 590 65 457 l 65 957 l 203 957 l 203 599 q 361 415 203 426 l 361 751 l 443 751 l 443 421 q 588 494 526 436 l 588 957 l 725 957 z "},"Һ":{"ha":833,"x_min":108,"x_max":767,"o":"m 492 629 q 694 549 621 629 q 767 326 767 468 l 767 0 l 629 0 l 629 325 q 464 514 629 514 q 343 488 394 514 q 246 411 292 463 l 246 0 l 108 0 l 108 957 l 246 957 l 246 531 q 492 629 344 629 z "},"Ԧ":{"ha":833,"x_min":108,"x_max":835,"o":"m 835 113 l 835 -210 l 726 -210 l 706 0 l 618 0 l 618 325 q 443 514 618 514 q 333 488 381 514 q 246 413 286 463 l 246 0 l 108 0 l 108 957 l 246 957 l 246 535 q 476 629 333 629 q 682 549 608 629 q 756 326 756 469 l 756 113 l 835 113 z "},"Ҽ":{"ha":833,"x_min":0,"x_max":789,"o":"m 789 496 q 785 424 789 461 l 319 424 q 376 171 322 251 q 517 90 431 90 q 607 106 571 90 q 689 153 643 122 l 750 74 q 515 -17 646 -17 q 281 96 368 -17 q 186 424 193 208 q 49 472 97 425 q 0 590 0 519 q 14 667 0 632 q 51 735 28 701 l 138 696 q 117 645 124 667 q 110 600 110 624 q 181 529 110 529 l 186 529 q 234 769 193 668 q 344 922 275 869 q 501 975 413 975 q 713 852 638 975 q 789 496 789 729 m 663 529 q 616 788 657 708 q 500 868 575 868 q 319 529 338 868 l 663 529 z "},"Ҿ":{"ha":833,"x_min":0,"x_max":789,"o":"m 789 496 q 785 424 789 461 l 319 424 q 376 171 322 251 q 517 90 431 90 q 607 106 571 90 q 689 153 643 122 l 750 74 q 624 0 690 22 q 489 -78 525 -42 q 453 -158 453 -115 q 531 -225 453 -225 q 615 -215 568 -225 l 603 -314 q 515 -324 554 -324 q 387 -284 435 -324 q 339 -182 339 -244 q 368 -87 339 -129 q 456 -11 397 -46 q 263 120 333 10 q 186 424 193 231 q 49 472 97 425 q 0 590 0 519 q 14 667 0 632 q 51 735 28 701 l 138 696 q 117 645 124 667 q 110 600 110 624 q 181 529 110 529 l 186 529 q 234 769 193 668 q 344 922 275 869 q 501 975 413 975 q 713 852 638 975 q 789 496 789 729 m 663 529 q 616 788 657 708 q 500 868 575 868 q 319 529 338 868 l 663 529 z "},"Ӏ":{"ha":833,"x_min":136,"x_max":697,"o":"m 697 850 l 486 850 l 486 108 l 697 108 l 697 0 l 136 0 l 136 108 l 347 108 l 347 850 l 136 850 l 136 957 l 697 957 l 697 850 z "},"Ӂ":{"ha":833,"x_min":14,"x_max":819,"o":"m 282 453 l 143 0 l 14 0 l 182 510 l 33 957 l 161 957 l 283 553 l 360 553 l 360 957 l 474 957 l 474 553 l 550 553 l 674 957 l 800 957 l 651 510 l 819 0 l 688 0 l 550 453 l 474 453 l 474 0 l 360 0 l 360 453 l 282 453 m 414 1065 q 270 1110 328 1065 q 204 1231 213 1154 l 290 1250 q 334 1185 304 1206 q 414 1165 364 1165 q 542 1250 514 1165 l 628 1231 q 560 1110 619 1154 q 414 1065 501 1065 z "},"Ӄ":{"ha":833,"x_min":108,"x_max":754,"o":"m 506 538 q 688 449 628 524 q 747 244 747 374 l 747 -76 q 690 -241 747 -185 q 533 -297 633 -297 q 372 -243 440 -297 l 424 -157 q 473 -181 451 -174 q 525 -187 494 -187 q 610 -86 610 -187 l 610 243 q 568 383 610 338 q 439 429 526 429 l 246 429 l 246 0 l 108 0 l 108 957 l 246 957 l 246 540 l 376 540 l 610 957 l 754 957 l 506 538 z "},"Ӆ":{"ha":833,"x_min":19,"x_max":814,"o":"m 814 114 l 700 -210 l 592 -210 l 640 0 l 550 0 l 550 843 l 353 843 l 321 581 q 266 249 296 361 q 196 85 236 138 q 79 -17 156 32 l 19 82 q 86 153 61 115 q 135 283 111 190 q 182 556 160 376 l 232 957 l 689 957 l 689 114 l 814 114 z "},"Ӈ":{"ha":833,"x_min":108,"x_max":725,"o":"m 725 957 l 725 -76 q 668 -241 725 -185 q 511 -297 611 -297 q 350 -243 418 -297 l 401 -157 q 451 -181 429 -174 q 503 -187 472 -187 q 588 -86 588 -187 l 588 446 l 246 446 l 246 0 l 108 0 l 108 957 l 246 957 l 246 560 l 588 560 l 588 957 l 725 957 z "},"Ӊ":{"ha":833,"x_min":93,"x_max":807,"o":"m 807 114 l 693 -210 l 585 -210 l 633 0 l 543 0 l 543 446 l 232 446 l 232 0 l 93 0 l 93 957 l 232 957 l 232 560 l 543 560 l 543 957 l 681 957 l 681 114 l 807 114 z "},"Ӌ":{"ha":833,"x_min":65,"x_max":725,"o":"m 725 957 l 725 0 l 588 0 l 588 383 q 473 319 528 339 q 346 300 418 300 q 142 378 218 300 q 65 590 65 457 l 65 957 l 203 957 l 203 599 q 382 415 203 415 q 588 494 503 415 l 588 957 l 725 957 m 485 113 l 501 0 l 468 0 l 447 -210 l 339 -210 l 339 113 l 485 113 z "},"Ӎ":{"ha":833,"x_min":26,"x_max":844,"o":"m 844 114 l 732 -210 l 625 -210 l 674 0 l 610 0 l 582 486 q 576 744 576 607 l 578 828 l 447 171 l 318 171 l 178 828 q 179 682 179 799 q 176 485 179 549 l 153 0 l 26 0 l 81 957 l 260 957 l 386 308 l 504 957 l 685 957 l 732 114 l 844 114 z "},"Ӑ":{"ha":833,"x_min":21,"x_max":813,"o":"m 232 239 l 160 0 l 21 0 l 331 957 l 503 957 l 813 0 l 667 0 l 594 239 l 232 239 m 563 349 l 414 846 l 264 349 l 563 349 m 414 1065 q 270 1110 328 1065 q 204 1231 213 1154 l 290 1250 q 334 1185 304 1206 q 414 1165 364 1165 q 542 1250 514 1165 l 628 1231 q 560 1110 619 1154 q 414 1065 501 1065 z "},"Ӓ":{"ha":833,"x_min":21,"x_max":813,"o":"m 232 239 l 160 0 l 21 0 l 331 957 l 503 957 l 813 0 l 667 0 l 594 239 l 232 239 m 563 349 l 414 846 l 264 349 l 563 349 m 269 1064 q 211 1087 235 1064 q 188 1144 188 1110 q 211 1202 188 1179 q 269 1225 235 1225 q 328 1202 304 1225 q 351 1144 351 1179 q 328 1087 351 1110 q 269 1064 304 1064 m 563 1064 q 504 1087 528 1064 q 481 1144 481 1110 q 504 1202 481 1179 q 563 1225 528 1225 q 622 1202 599 1225 q 644 1144 644 1179 q 621 1087 644 1110 q 563 1064 597 1064 z "},"Ӗ":{"ha":833,"x_min":167,"x_max":735,"o":"m 304 540 l 657 540 l 657 432 l 304 432 l 304 108 l 735 108 l 735 0 l 167 0 l 167 957 l 725 957 l 708 849 l 304 849 l 304 540 m 443 1065 q 299 1110 357 1065 q 233 1231 242 1154 l 319 1250 q 363 1185 333 1206 q 443 1165 393 1165 q 571 1250 543 1165 l 657 1231 q 590 1110 649 1154 q 443 1065 531 1065 z "},"Ә":{"ha":833,"x_min":57,"x_max":771,"o":"m 57 461 q 61 533 57 496 l 631 533 q 567 788 625 708 q 400 867 508 867 q 288 847 336 867 q 185 786 239 826 l 115 865 q 247 947 176 918 q 407 975 318 975 q 678 852 585 975 q 771 490 771 729 q 728 217 771 332 q 604 43 685 103 q 413 -17 524 -17 q 150 106 243 -17 q 57 461 57 228 m 414 92 q 631 425 615 92 l 189 425 q 251 169 196 247 q 414 92 306 92 z "},"Ӛ":{"ha":833,"x_min":57,"x_max":771,"o":"m 57 461 q 61 533 57 496 l 631 533 q 567 788 625 708 q 400 867 508 867 q 288 847 336 867 q 185 786 239 826 l 115 865 q 247 947 176 918 q 407 975 318 975 q 678 852 585 975 q 771 490 771 729 q 728 217 771 332 q 604 43 685 103 q 413 -17 524 -17 q 150 106 243 -17 q 57 461 57 228 m 414 92 q 631 425 615 92 l 189 425 q 251 169 196 247 q 414 92 306 92 m 260 1064 q 201 1087 225 1064 q 178 1144 178 1110 q 201 1202 178 1179 q 260 1225 225 1225 q 318 1202 294 1225 q 342 1144 342 1179 q 318 1087 342 1110 q 260 1064 294 1064 m 553 1064 q 494 1087 518 1064 q 471 1144 471 1110 q 494 1202 471 1179 q 553 1225 518 1225 q 612 1202 589 1225 q 635 1144 635 1179 q 611 1087 635 1110 q 553 1064 588 1064 z "},"Ӝ":{"ha":833,"x_min":14,"x_max":819,"o":"m 282 453 l 143 0 l 14 0 l 182 510 l 33 957 l 161 957 l 283 553 l 360 553 l 360 957 l 474 957 l 474 553 l 550 553 l 674 957 l 800 957 l 651 510 l 819 0 l 688 0 l 550 453 l 474 453 l 474 0 l 360 0 l 360 453 l 282 453 m 269 1064 q 211 1087 235 1064 q 188 1144 188 1110 q 211 1202 188 1179 q 269 1225 235 1225 q 328 1202 304 1225 q 351 1144 351 1179 q 328 1087 351 1110 q 269 1064 304 1064 m 563 1064 q 504 1087 528 1064 q 481 1144 481 1110 q 504 1202 481 1179 q 563 1225 528 1225 q 622 1202 599 1225 q 644 1144 644 1179 q 621 1087 644 1110 q 563 1064 597 1064 z "},"Ӟ":{"ha":833,"x_min":42,"x_max":756,"o":"m 390 975 q 567 943 492 975 q 683 854 642 911 q 724 724 724 797 q 668 585 724 639 q 522 519 613 532 q 689 449 622 511 q 756 283 756 388 q 710 128 756 196 q 581 22 665 60 q 385 -17 497 -17 q 193 18 281 -17 q 42 119 106 53 l 124 194 q 383 94 239 94 q 550 144 490 94 q 610 281 610 193 q 551 413 610 369 q 393 457 492 457 l 225 457 l 242 568 l 385 568 q 527 606 471 568 q 583 719 583 644 q 528 827 583 789 q 385 865 474 865 q 252 842 311 865 q 136 776 193 819 l 63 854 q 390 975 207 975 m 265 1064 q 207 1087 231 1064 q 183 1144 183 1110 q 207 1202 183 1179 q 265 1225 231 1225 q 324 1202 300 1225 q 347 1144 347 1179 q 324 1087 347 1110 q 265 1064 300 1064 m 558 1064 q 500 1087 524 1064 q 476 1144 476 1110 q 500 1202 476 1179 q 558 1225 524 1225 q 617 1202 594 1225 q 640 1144 640 1179 q 617 1087 640 1110 q 558 1064 593 1064 z "},"Ӡ":{"ha":833,"x_min":90,"x_max":743,"o":"m 422 556 q 665 485 586 556 q 743 286 743 414 q 700 128 743 197 q 577 22 657 60 q 392 -17 497 -17 q 222 10 290 -17 q 90 89 153 36 l 160 172 q 268 113 218 132 q 392 94 318 94 q 545 145 492 94 q 599 288 599 196 q 406 454 599 454 l 243 454 l 243 549 l 543 846 l 131 846 l 131 957 l 700 957 l 700 847 l 400 556 l 422 556 z "},"Ӣ":{"ha":833,"x_min":108,"x_max":725,"o":"m 108 957 l 243 957 l 243 499 q 238 297 243 379 q 219 122 232 215 l 554 957 l 725 957 l 725 0 l 590 0 l 590 458 q 614 829 590 656 l 282 0 l 108 0 l 108 957 m 225 1101 l 225 1200 l 607 1200 l 607 1101 l 225 1101 z "},"Ӥ":{"ha":833,"x_min":108,"x_max":725,"o":"m 108 957 l 243 957 l 243 499 q 238 297 243 379 q 219 122 232 215 l 554 957 l 725 957 l 725 0 l 590 0 l 590 458 q 614 829 590 656 l 282 0 l 108 0 l 108 957 m 269 1064 q 211 1087 235 1064 q 188 1144 188 1110 q 211 1202 188 1179 q 269 1225 235 1225 q 328 1202 304 1225 q 351 1144 351 1179 q 328 1087 351 1110 q 269 1064 304 1064 m 563 1064 q 504 1087 528 1064 q 481 1144 481 1110 q 504 1202 481 1179 q 563 1225 528 1225 q 622 1202 599 1225 q 644 1144 644 1179 q 621 1087 644 1110 q 563 1064 597 1064 z "},"Ӧ":{"ha":833,"x_min":60,"x_max":774,"o":"m 774 478 q 681 118 774 253 q 417 -17 589 -17 q 151 116 243 -17 q 60 476 60 249 q 152 839 60 703 q 417 975 244 975 q 682 841 590 975 q 774 478 774 707 m 631 478 q 580 767 631 671 q 417 863 529 863 q 253 767 304 863 q 203 476 203 671 q 255 190 203 285 q 417 94 307 94 q 580 190 529 94 q 631 478 631 285 m 269 1064 q 211 1087 235 1064 q 188 1144 188 1110 q 211 1202 188 1179 q 269 1225 235 1225 q 328 1202 304 1225 q 351 1144 351 1179 q 328 1087 351 1110 q 269 1064 304 1064 m 563 1064 q 504 1087 528 1064 q 481 1144 481 1110 q 504 1202 481 1179 q 563 1225 528 1225 q 622 1202 599 1225 q 644 1144 644 1179 q 621 1087 644 1110 q 563 1064 597 1064 z "},"Ө":{"ha":833,"x_min":60,"x_max":774,"o":"m 774 478 q 681 118 774 253 q 417 -17 589 -17 q 151 116 243 -17 q 60 476 60 249 q 152 839 60 703 q 417 975 244 975 q 682 841 590 975 q 774 478 774 707 m 417 863 q 263 781 314 863 q 204 538 211 700 l 628 538 q 570 781 621 700 q 417 863 519 863 m 417 94 q 574 180 524 94 q 629 438 625 265 l 203 438 q 259 181 207 267 q 417 94 311 94 z "},"Ӫ":{"ha":833,"x_min":60,"x_max":774,"o":"m 774 478 q 681 118 774 253 q 417 -17 589 -17 q 151 116 243 -17 q 60 476 60 249 q 152 839 60 703 q 417 975 244 975 q 682 841 590 975 q 774 478 774 707 m 417 863 q 263 781 314 863 q 204 538 211 700 l 628 538 q 570 781 621 700 q 417 863 519 863 m 417 94 q 574 180 524 94 q 629 438 625 265 l 203 438 q 259 181 207 267 q 417 94 311 94 m 269 1064 q 211 1087 235 1064 q 188 1144 188 1110 q 211 1202 188 1179 q 269 1225 235 1225 q 328 1202 304 1225 q 351 1144 351 1179 q 328 1087 351 1110 q 269 1064 304 1064 m 563 1064 q 504 1087 528 1064 q 481 1144 481 1110 q 504 1202 481 1179 q 563 1225 528 1225 q 622 1202 599 1225 q 644 1144 644 1179 q 621 1087 644 1110 q 563 1064 597 1064 z "},"Ӭ":{"ha":833,"x_min":51,"x_max":753,"o":"m 372 975 q 652 852 551 975 q 753 490 753 729 q 647 114 753 244 q 358 -17 542 -17 q 188 16 267 -17 q 51 106 108 49 l 131 183 q 233 117 181 139 q 351 94 286 94 q 538 178 474 94 q 611 436 603 261 l 201 436 l 201 547 l 611 547 q 540 790 601 715 q 364 865 478 865 q 241 842 293 865 q 136 778 189 819 l 63 856 q 201 943 126 911 q 372 975 276 975 m 251 1064 q 193 1087 217 1064 q 169 1144 169 1110 q 193 1202 169 1179 q 251 1225 217 1225 q 310 1202 286 1225 q 333 1144 333 1179 q 310 1087 333 1110 q 251 1064 286 1064 m 544 1064 q 486 1087 510 1064 q 463 1144 463 1110 q 486 1202 463 1179 q 544 1225 510 1225 q 603 1202 581 1225 q 626 1144 626 1179 q 603 1087 626 1110 q 544 1064 579 1064 z "},"Ӯ":{"ha":833,"x_min":29,"x_max":811,"o":"m 526 263 q 446 115 489 171 q 336 28 403 60 q 165 -17 269 -4 l 146 89 q 276 122 228 100 q 350 176 324 143 q 397 263 376 208 l 343 263 l 29 957 l 174 957 l 435 349 l 672 957 l 811 957 l 526 263 m 239 1101 l 239 1200 l 621 1200 l 621 1101 l 239 1101 z "},"Ӱ":{"ha":833,"x_min":29,"x_max":811,"o":"m 526 263 q 446 115 489 171 q 336 28 403 60 q 165 -17 269 -4 l 146 89 q 276 122 228 100 q 350 176 324 143 q 397 263 376 208 l 343 263 l 29 957 l 174 957 l 435 349 l 672 957 l 811 957 l 526 263 m 283 1064 q 225 1087 249 1064 q 201 1144 201 1110 q 225 1202 201 1179 q 283 1225 249 1225 q 342 1202 318 1225 q 365 1144 365 1179 q 342 1087 365 1110 q 283 1064 318 1064 m 576 1064 q 518 1087 542 1064 q 494 1144 494 1110 q 518 1202 494 1179 q 576 1225 542 1225 q 635 1202 613 1225 q 658 1144 658 1179 q 635 1087 658 1110 q 576 1064 611 1064 z "},"Ӳ":{"ha":833,"x_min":29,"x_max":811,"o":"m 526 263 q 446 115 489 171 q 336 28 403 60 q 165 -17 269 -4 l 146 89 q 276 122 228 100 q 350 176 324 143 q 397 263 376 208 l 343 263 l 29 957 l 174 957 l 435 349 l 672 957 l 811 957 l 526 263 m 375 1332 l 486 1279 l 344 1047 l 263 1086 l 375 1332 m 614 1332 l 724 1275 l 569 1044 l 490 1086 l 614 1332 z "},"Ӵ":{"ha":833,"x_min":65,"x_max":725,"o":"m 725 957 l 725 0 l 588 0 l 588 383 q 473 319 528 339 q 346 300 418 300 q 142 378 218 300 q 65 590 65 457 l 65 957 l 203 957 l 203 599 q 382 415 203 415 q 588 494 503 415 l 588 957 l 725 957 m 254 1064 q 196 1087 219 1064 q 172 1144 172 1110 q 196 1202 172 1179 q 254 1225 219 1225 q 313 1202 289 1225 q 336 1144 336 1179 q 313 1087 336 1110 q 254 1064 289 1064 m 547 1064 q 489 1087 513 1064 q 465 1144 465 1110 q 489 1202 465 1179 q 547 1225 513 1225 q 606 1202 583 1225 q 629 1144 629 1179 q 606 1087 629 1110 q 547 1064 582 1064 z "},"Ӷ":{"ha":833,"x_min":179,"x_max":760,"o":"m 317 839 l 317 113 l 400 113 l 400 -210 l 292 -210 l 271 0 l 179 0 l 179 957 l 760 957 l 744 839 l 317 839 z "},"Ӹ":{"ha":833,"x_min":40,"x_max":793,"o":"m 174 608 l 249 608 q 508 533 421 608 q 594 311 594 457 q 506 78 594 156 q 251 0 417 0 l 40 0 l 40 957 l 174 957 l 174 608 m 793 0 l 660 0 l 660 957 l 793 957 l 793 0 m 174 506 l 174 106 l 263 106 q 408 153 358 106 q 457 310 457 201 q 263 506 457 506 l 174 506 m 269 1064 q 211 1087 235 1064 q 188 1144 188 1110 q 211 1202 188 1179 q 269 1225 235 1225 q 328 1202 304 1225 q 351 1144 351 1179 q 328 1087 351 1110 q 269 1064 304 1064 m 563 1064 q 504 1087 528 1064 q 481 1144 481 1110 q 504 1202 481 1179 q 563 1225 528 1225 q 622 1202 599 1225 q 644 1144 644 1179 q 621 1087 644 1110 q 563 1064 597 1064 z "},"Ӻ":{"ha":833,"x_min":88,"x_max":821,"o":"m 378 839 l 378 601 l 593 601 l 593 501 l 378 501 l 378 113 l 463 113 l 463 -76 q 406 -241 463 -185 q 249 -297 349 -297 q 88 -243 156 -297 l 139 -157 q 188 -181 167 -174 q 240 -187 210 -187 q 325 -86 325 -187 l 325 0 l 240 0 l 240 501 l 104 501 l 104 601 l 240 601 l 240 957 l 821 957 l 806 839 l 378 839 z "},"Ӽ":{"ha":833,"x_min":18,"x_max":808,"o":"m 808 113 l 808 -76 q 751 -241 808 -185 q 594 -297 694 -297 q 433 -243 501 -297 l 485 -157 q 534 -181 513 -174 q 586 -187 556 -187 q 671 -86 671 -187 l 671 0 l 621 0 l 394 421 l 165 0 l 18 0 l 313 510 l 42 957 l 199 957 l 397 600 l 599 957 l 746 957 l 476 517 l 713 113 l 808 113 z "},"Ӿ":{"ha":833,"x_min":38,"x_max":797,"o":"m 797 0 l 640 0 l 414 421 l 185 0 l 38 0 l 304 461 l 50 461 l 50 561 l 301 561 l 61 957 l 218 957 l 417 600 l 618 957 l 765 957 l 524 561 l 783 561 l 783 461 l 528 461 l 797 0 z "},"Ԁ":{"ha":833,"x_min":63,"x_max":711,"o":"m 421 0 q 161 75 260 0 q 63 296 63 150 q 160 519 63 439 q 429 600 258 600 l 574 600 l 574 957 l 711 957 l 711 0 l 421 0 m 574 110 l 574 493 l 429 493 q 208 296 208 493 q 424 110 208 110 l 574 110 z "},"Ԃ":{"ha":833,"x_min":13,"x_max":813,"o":"m 806 524 q 813 347 813 433 q 749 71 813 161 q 579 -19 686 -19 q 477 8 521 -19 q 408 88 433 35 q 229 -19 343 -19 q 122 13 171 -19 q 42 110 72 46 q 13 268 13 175 q 92 510 13 424 q 318 596 171 596 l 381 596 l 381 957 l 510 957 l 510 211 q 528 118 510 150 q 582 86 546 86 q 683 344 683 86 q 676 524 683 426 l 806 524 m 253 86 q 324 113 294 86 q 381 197 353 139 l 381 494 l 317 494 q 188 438 233 494 q 142 268 142 382 q 172 130 142 174 q 253 86 203 86 z "},"Ԅ":{"ha":833,"x_min":33,"x_max":800,"o":"m 793 528 q 800 354 800 438 q 733 74 800 165 q 547 -17 665 -17 q 398 29 457 -17 q 293 174 339 75 l 185 403 l 72 403 l 72 508 l 172 508 q 327 550 275 508 q 379 685 379 592 q 326 812 379 772 q 157 851 274 851 l 33 851 l 33 957 l 158 957 q 432 888 339 957 q 525 685 525 819 q 474 523 525 585 q 319 429 424 461 l 419 208 q 477 117 449 143 q 547 90 506 90 q 635 151 603 90 q 667 354 667 211 q 660 528 667 431 l 793 528 z "},"Ԇ":{"ha":833,"x_min":97,"x_max":774,"o":"m 774 113 l 774 -210 l 665 -210 l 644 0 l 589 0 l 336 403 l 138 403 l 138 508 l 349 508 q 502 550 450 508 q 554 685 554 592 q 504 812 554 772 q 347 851 454 851 l 97 851 l 97 957 l 335 957 q 608 888 515 957 q 700 685 700 819 q 638 516 700 583 q 474 421 575 449 l 678 113 l 774 113 z "},"Ԉ":{"ha":833,"x_min":4,"x_max":818,"o":"m 811 524 q 818 347 818 433 q 754 72 818 163 q 585 -19 690 -19 q 441 42 497 -19 q 385 218 385 103 l 385 849 l 263 849 l 240 525 q 207 231 226 332 q 159 81 188 129 q 76 -17 131 32 l 4 74 q 52 144 35 104 q 84 278 69 185 q 113 554 99 371 l 144 957 l 514 957 l 514 211 q 533 118 514 150 q 588 86 551 86 q 688 344 688 86 q 681 524 688 426 l 811 524 z "},"Ԋ":{"ha":833,"x_min":64,"x_max":819,"o":"m 813 524 q 819 347 819 433 q 756 71 819 161 q 586 -19 693 -19 q 442 42 499 -19 q 386 218 386 103 l 386 446 l 194 446 l 194 0 l 64 0 l 64 957 l 194 957 l 194 556 l 386 556 l 386 957 l 515 957 l 515 211 q 534 118 515 150 q 589 86 553 86 q 690 344 690 86 q 683 524 690 426 l 813 524 z "},"Ԍ":{"ha":833,"x_min":58,"x_max":756,"o":"m 439 -17 q 159 110 260 -17 q 58 479 58 236 q 115 749 58 638 q 264 918 171 861 q 467 975 357 975 q 621 949 557 975 q 744 867 685 922 l 664 783 q 573 843 619 824 q 468 863 526 863 q 278 771 353 863 q 204 479 204 679 q 265 186 204 278 q 447 94 325 94 q 619 139 542 94 l 619 418 l 442 418 l 426 528 l 756 528 l 756 68 q 606 5 681 26 q 439 -17 532 -17 z "},"Ԏ":{"ha":833,"x_min":21,"x_max":792,"o":"m 785 526 q 792 353 792 436 q 749 146 792 229 q 640 23 707 63 q 497 -17 574 -17 q 330 51 396 -17 q 264 242 264 118 l 264 842 l 21 842 l 21 957 l 678 957 l 664 842 l 401 842 l 401 249 q 503 89 401 89 q 614 150 571 89 q 657 353 657 211 q 650 526 657 429 l 785 526 z "},"Ԑ":{"ha":833,"x_min":78,"x_max":792,"o":"m 444 975 q 619 945 539 975 q 771 854 699 915 l 697 776 q 582 843 640 821 q 450 865 524 865 q 305 827 360 865 q 250 718 250 789 q 306 606 250 644 q 449 568 361 568 l 610 568 l 593 457 l 440 457 q 283 413 342 457 q 224 279 224 369 q 283 144 224 193 q 449 94 342 94 q 713 194 593 94 l 792 119 q 638 19 728 54 q 443 -17 549 -17 q 249 21 332 -17 q 122 126 167 58 q 78 278 78 193 q 144 446 78 383 q 311 519 211 508 q 166 584 222 532 q 110 718 110 636 q 152 851 110 793 q 271 942 194 910 q 444 975 347 975 z "},"Ԓ":{"ha":833,"x_min":15,"x_max":725,"o":"m 725 957 l 725 -76 q 668 -241 725 -185 q 511 -297 611 -297 q 350 -243 418 -297 l 401 -157 q 451 -181 429 -174 q 503 -187 472 -187 q 588 -86 588 -187 l 588 843 l 347 843 l 315 581 q 260 249 290 361 q 190 84 231 136 q 74 -17 150 32 l 15 82 q 81 153 57 115 q 130 284 106 190 q 176 556 154 378 l 226 957 l 725 957 z "},"Ԕ":{"ha":833,"x_min":1,"x_max":844,"o":"m 844 0 l 713 0 l 551 418 l 399 0 l 272 0 l 476 511 l 338 844 l 260 844 l 236 525 q 203 231 222 332 q 155 81 183 129 q 72 -17 126 32 l 1 74 q 49 144 32 104 q 81 278 67 185 q 110 554 96 371 l 140 957 l 146 953 l 142 957 l 424 957 l 560 600 l 694 957 l 819 957 l 635 513 l 844 0 z "},"Ԗ":{"ha":833,"x_min":68,"x_max":822,"o":"m 678 0 l 465 443 q 369 374 425 399 q 249 350 314 350 l 199 350 l 199 0 l 68 0 l 68 957 l 247 957 q 465 876 386 957 q 543 660 543 796 l 543 649 l 689 957 l 819 957 l 585 494 l 822 0 l 678 0 m 243 457 q 372 504 324 457 q 419 660 419 551 q 374 803 419 756 q 250 851 329 851 l 199 851 l 199 457 l 243 457 z "},"Ԙ":{"ha":833,"x_min":10,"x_max":831,"o":"m 831 107 l 831 0 l 404 0 l 404 379 l 315 379 l 161 0 l 10 0 l 190 408 q 67 512 108 446 q 25 668 25 578 q 115 879 25 801 q 363 957 206 957 l 819 957 l 804 849 l 540 849 l 540 540 l 753 540 l 753 432 l 540 432 l 540 107 l 831 107 m 404 851 l 350 851 q 217 805 264 851 q 169 668 169 758 q 213 531 169 576 q 329 486 256 486 l 404 486 l 404 851 z "},"Ԛ":{"ha":833,"x_min":60,"x_max":832,"o":"m 774 478 q 727 209 774 319 q 575 40 681 99 q 738 -31 679 21 q 832 -187 797 -82 l 696 -240 q 585 -68 649 -122 q 403 -14 521 -14 q 149 118 238 -14 q 60 476 60 250 q 152 839 60 703 q 417 975 244 975 q 682 841 590 975 q 774 478 774 707 m 631 478 q 580 767 631 671 q 417 863 529 863 q 254 766 304 863 q 204 476 204 669 q 256 190 204 285 q 417 94 307 94 q 580 190 529 94 q 631 478 631 285 z "},"Ԝ":{"ha":833,"x_min":6,"x_max":828,"o":"m 689 0 l 518 0 l 414 717 l 308 0 l 133 0 l 6 957 l 140 957 l 231 142 l 340 846 l 496 846 l 600 142 l 703 957 l 828 957 l 689 0 z "},"Ԟ":{"ha":833,"x_min":115,"x_max":813,"o":"m 813 0 l 650 0 l 360 447 l 253 447 l 253 0 l 115 0 l 115 957 l 253 957 l 253 558 l 361 558 l 481 728 l 319 826 l 372 911 l 538 808 l 642 957 l 786 957 l 640 746 l 788 654 l 735 571 l 583 664 l 476 510 l 813 0 z "},"Ԡ":{"ha":833,"x_min":-12,"x_max":810,"o":"m 628 629 q 761 572 713 629 q 810 425 810 515 l 810 -78 q 752 -240 810 -183 q 603 -297 694 -297 q 442 -243 513 -297 l 493 -158 q 542 -183 521 -175 q 594 -190 564 -190 q 679 -89 679 -190 l 679 411 q 600 515 679 515 q 548 504 572 515 q 497 469 524 493 l 497 0 l 368 0 l 368 849 l 246 849 l 224 525 q 190 231 210 332 q 142 81 171 129 q 60 -17 114 32 l -12 74 q 35 144 18 104 q 67 278 53 185 q 96 554 82 371 l 128 957 l 497 957 l 497 574 q 628 629 553 629 z "},"Ԣ":{"ha":833,"x_min":36,"x_max":821,"o":"m 626 629 q 769 570 717 629 q 821 413 821 511 l 821 -78 q 764 -240 821 -183 q 614 -297 707 -297 q 453 -243 521 -297 l 504 -158 q 553 -183 532 -175 q 606 -190 575 -190 q 690 -87 690 -190 l 690 411 q 667 490 690 464 q 600 515 643 515 q 488 468 540 515 l 488 0 l 358 0 l 358 446 l 165 446 l 165 0 l 36 0 l 36 957 l 165 957 l 165 556 l 358 556 l 358 957 l 488 957 l 488 574 q 626 629 546 629 z "},"Ҍ":{"ha":833,"x_min":42,"x_max":792,"o":"m 435 599 q 697 525 601 599 q 792 308 792 451 q 692 76 792 153 q 422 0 592 0 l 165 0 l 165 735 l 42 735 l 42 829 l 165 829 l 165 957 l 303 957 l 303 829 l 482 829 l 482 735 l 303 735 l 303 599 l 435 599 m 432 110 q 590 154 533 110 q 646 307 646 199 q 592 448 646 404 q 435 492 538 492 l 303 492 l 303 110 l 432 110 z "},"Ҏ":{"ha":833,"x_min":149,"x_max":778,"o":"m 778 658 q 745 515 778 578 q 653 414 713 453 l 764 233 l 654 233 l 568 374 q 407 350 494 350 l 286 350 l 286 0 l 149 0 l 149 957 l 401 957 q 680 883 582 957 q 778 658 778 808 m 414 457 q 511 468 474 457 l 390 665 l 500 665 l 592 515 q 633 657 633 564 q 576 805 633 758 q 417 851 518 851 l 286 851 l 286 457 l 414 457 z "},"а":{"ha":833,"x_min":88,"x_max":731,"o":"m 672 168 q 685 105 672 125 q 731 75 699 85 l 699 -17 q 557 86 589 -3 q 458 10 518 36 q 326 -17 399 -17 q 151 45 215 -17 q 88 210 88 107 q 177 385 88 324 q 433 447 267 447 l 539 447 l 539 501 q 496 608 539 575 q 371 642 453 642 q 178 604 285 642 l 143 701 q 390 750 276 750 q 601 687 529 750 q 672 510 672 624 l 672 168 m 363 82 q 462 108 415 82 q 539 182 508 135 l 539 360 l 442 360 q 280 322 331 360 q 229 213 229 285 q 263 115 229 149 q 363 82 296 82 z "},"б":{"ha":833,"x_min":97,"x_max":735,"o":"m 465 685 q 606 644 544 685 q 701 528 667 604 q 735 349 735 451 q 694 150 735 232 q 582 26 654 68 q 415 -17 510 -17 q 184 88 271 -17 q 97 404 97 193 q 121 665 97 563 q 203 834 144 768 q 369 936 263 900 q 503 987 456 965 q 604 1043 551 1008 l 660 946 q 433 839 568 888 q 330 788 368 817 q 269 703 292 758 q 238 556 246 649 q 333 651 274 617 q 465 685 392 685 m 415 89 q 544 146 497 89 q 592 344 592 203 q 552 524 592 469 q 439 579 513 579 q 327 546 379 579 q 240 446 275 513 l 240 356 q 287 158 240 228 q 415 89 333 89 z "},"в":{"ha":833,"x_min":147,"x_max":744,"o":"m 558 397 q 699 343 653 388 q 744 217 744 299 q 654 54 744 108 q 428 0 564 0 l 147 0 l 147 722 q 404 750 282 750 q 626 699 544 750 q 708 557 708 649 q 674 457 708 497 q 558 397 639 417 m 406 649 q 281 640 342 649 l 281 436 l 422 436 q 534 461 496 436 q 572 544 572 486 q 532 624 572 600 q 406 649 492 649 m 408 103 q 552 126 499 103 q 606 219 606 149 q 431 340 606 340 l 281 340 l 281 103 l 408 103 z "},"г":{"ha":833,"x_min":211,"x_max":732,"o":"m 211 0 l 211 732 l 732 732 l 715 622 l 344 622 l 344 0 l 211 0 z "},"ѓ":{"ha":833,"x_min":211,"x_max":732,"o":"m 211 0 l 211 732 l 732 732 l 715 622 l 344 622 l 344 0 l 211 0 m 646 1006 l 349 885 l 308 956 l 588 1115 l 646 1006 z "},"ґ":{"ha":833,"x_min":211,"x_max":732,"o":"m 732 921 l 732 732 l 715 622 l 344 622 l 344 0 l 211 0 l 211 732 l 600 732 l 600 921 l 732 921 z "},"д":{"ha":833,"x_min":33,"x_max":751,"o":"m 751 107 l 751 -210 l 643 -210 l 622 0 l 163 0 l 142 -210 l 33 -210 l 33 107 l 85 107 q 138 177 118 136 q 172 293 158 218 q 196 496 186 368 l 213 732 l 694 732 l 694 107 l 751 107 m 563 628 l 332 628 l 324 504 q 300 295 314 369 q 263 179 286 221 q 197 107 239 138 l 563 107 l 563 628 z "},"е":{"ha":833,"x_min":101,"x_max":733,"o":"m 240 321 q 303 148 246 206 q 449 90 361 90 q 547 106 501 90 q 643 156 593 122 l 703 71 q 583 6 651 29 q 444 -17 515 -17 q 192 88 282 -17 q 101 365 101 192 q 141 563 101 476 q 255 700 181 650 q 428 750 329 750 q 651 653 569 750 q 733 388 733 556 q 731 321 733 354 l 240 321 m 429 646 q 298 588 349 646 q 240 418 247 531 l 604 418 q 556 587 603 528 q 429 646 510 646 z "},"ѐ":{"ha":833,"x_min":101,"x_max":733,"o":"m 240 321 q 303 148 246 206 q 449 90 361 90 q 547 106 501 90 q 643 156 593 122 l 703 71 q 583 6 651 29 q 444 -17 515 -17 q 192 88 282 -17 q 101 365 101 192 q 141 563 101 476 q 255 700 181 650 q 428 750 329 750 q 651 653 569 750 q 733 388 733 556 q 731 321 733 354 l 240 321 m 429 646 q 298 588 349 646 q 240 418 247 531 l 604 418 q 556 587 603 528 q 429 646 510 646 m 265 993 l 332 1104 l 596 936 l 554 864 l 265 993 z "},"ё":{"ha":833,"x_min":101,"x_max":733,"o":"m 240 321 q 303 148 246 206 q 449 90 361 90 q 547 106 501 90 q 643 156 593 122 l 703 71 q 583 6 651 29 q 444 -17 515 -17 q 192 88 282 -17 q 101 365 101 192 q 141 563 101 476 q 255 700 181 650 q 428 750 329 750 q 651 653 569 750 q 733 388 733 556 q 731 321 733 354 l 240 321 m 429 646 q 298 588 349 646 q 240 418 247 531 l 604 418 q 556 587 603 528 q 429 646 510 646 m 283 897 q 225 920 249 897 q 201 978 201 943 q 225 1035 201 1013 q 283 1058 249 1058 q 342 1035 318 1058 q 365 978 365 1013 q 342 920 365 943 q 283 897 318 897 m 576 897 q 518 920 542 897 q 494 978 494 943 q 518 1035 494 1013 q 576 1058 542 1058 q 635 1035 613 1058 q 658 978 658 1013 q 635 920 658 943 q 576 897 611 897 z "},"ж":{"ha":833,"x_min":22,"x_max":811,"o":"m 361 339 l 290 339 l 150 0 l 22 0 l 192 393 l 33 732 l 164 732 l 290 435 l 361 435 l 361 732 l 472 732 l 472 435 l 543 435 l 674 732 l 800 732 l 642 393 l 811 0 l 682 0 l 540 339 l 472 339 l 472 0 l 361 0 l 361 339 z "},"з":{"ha":833,"x_min":68,"x_max":722,"o":"m 393 433 q 504 462 464 433 q 544 539 544 490 q 379 646 544 646 q 265 630 324 646 q 157 583 207 614 l 94 661 q 229 726 151 703 q 386 750 307 750 q 599 697 515 750 q 682 549 682 644 q 641 449 682 489 q 529 390 600 410 q 664 342 606 388 q 722 218 722 296 q 628 44 722 106 q 383 -17 535 -17 q 68 85 194 -17 l 131 168 q 248 109 186 129 q 386 89 310 89 q 530 123 481 89 q 579 217 579 157 q 401 331 579 331 l 253 331 l 261 433 l 393 433 z "},"и":{"ha":833,"x_min":132,"x_max":701,"o":"m 701 0 l 569 0 l 569 325 q 576 485 569 410 q 586 585 582 561 l 289 0 l 132 0 l 132 732 l 264 732 l 264 407 q 258 252 264 331 q 249 151 253 174 l 542 732 l 701 732 l 701 0 z "},"й":{"ha":833,"x_min":132,"x_max":701,"o":"m 701 0 l 569 0 l 569 325 q 576 485 569 410 q 586 585 582 561 l 289 0 l 132 0 l 132 732 l 264 732 l 264 407 q 258 252 264 331 q 249 151 253 174 l 542 732 l 701 732 l 701 0 m 414 890 q 270 935 328 890 q 204 1056 213 979 l 290 1075 q 334 1010 304 1031 q 414 990 364 990 q 542 1075 514 990 l 628 1056 q 560 935 619 979 q 414 890 501 890 z "},"ѝ":{"ha":833,"x_min":132,"x_max":701,"o":"m 701 0 l 569 0 l 569 325 q 576 485 569 410 q 586 585 582 561 l 289 0 l 132 0 l 132 732 l 264 732 l 264 407 q 258 252 264 331 q 249 151 253 174 l 542 732 l 701 732 l 701 0 m 251 993 l 318 1104 l 582 936 l 540 864 l 251 993 z "},"ҋ":{"ha":833,"x_min":122,"x_max":790,"o":"m 397 890 q 253 935 311 890 q 188 1056 196 979 l 274 1075 q 317 1010 288 1031 q 397 990 347 990 q 525 1075 497 990 l 611 1056 q 544 935 603 979 q 397 890 485 890 m 790 108 l 690 -210 l 582 -210 l 631 0 l 549 0 l 549 325 q 564 608 549 471 l 278 0 l 122 0 l 122 732 l 251 732 l 251 407 q 245 246 251 324 q 229 124 239 168 l 521 732 l 676 732 l 676 108 l 790 108 z "},"к":{"ha":833,"x_min":139,"x_max":794,"o":"m 139 732 l 272 732 l 272 439 l 411 439 l 614 732 l 760 732 l 519 393 l 794 0 l 638 0 l 408 336 l 272 336 l 272 0 l 139 0 l 139 732 z "},"ќ":{"ha":833,"x_min":139,"x_max":794,"o":"m 139 732 l 272 732 l 272 439 l 411 439 l 614 732 l 760 732 l 519 393 l 794 0 l 638 0 l 408 336 l 272 336 l 272 0 l 139 0 l 139 732 m 618 1006 l 321 885 l 281 956 l 560 1115 l 618 1006 z "},"л":{"ha":833,"x_min":51,"x_max":713,"o":"m 713 0 l 579 0 l 579 625 l 324 625 l 310 449 q 276 198 297 283 q 219 67 256 113 q 108 -17 182 22 l 51 68 q 115 125 92 93 q 154 230 138 157 q 182 443 171 303 l 204 732 l 713 732 l 713 0 z "},"м":{"ha":833,"x_min":54,"x_max":779,"o":"m 779 0 l 654 0 l 629 340 q 622 526 622 438 q 624 603 622 576 l 618 603 l 481 122 l 357 122 l 204 603 l 199 603 q 200 511 200 574 q 196 340 200 419 l 178 0 l 54 0 l 106 732 l 272 732 l 421 240 l 557 732 l 726 732 l 779 0 z "},"н":{"ha":833,"x_min":132,"x_max":701,"o":"m 568 321 l 265 321 l 265 0 l 132 0 l 132 732 l 265 732 l 265 426 l 568 426 l 568 732 l 701 732 l 701 0 l 568 0 l 568 321 z "},"о":{"ha":833,"x_min":94,"x_max":739,"o":"m 418 750 q 656 647 572 750 q 739 367 739 544 q 654 88 739 192 q 417 -17 569 -17 q 178 85 261 -17 q 94 365 94 188 q 179 645 94 540 q 418 750 264 750 m 418 643 q 281 575 326 643 q 236 365 236 507 q 281 157 236 225 q 417 89 325 89 q 553 157 508 89 q 597 367 597 225 q 553 575 597 507 q 418 643 508 643 z "},"п":{"ha":833,"x_min":132,"x_max":701,"o":"m 568 626 l 265 626 l 265 0 l 132 0 l 132 732 l 701 732 l 701 0 l 568 0 l 568 626 z "},"р":{"ha":833,"x_min":132,"x_max":739,"o":"m 474 750 q 739 367 739 750 q 666 89 739 194 q 457 -17 593 -17 q 265 65 339 -17 l 265 -281 l 132 -297 l 132 732 l 247 732 l 257 633 q 353 720 297 690 q 474 750 410 750 m 439 644 q 342 613 386 644 q 265 532 299 582 l 265 178 q 335 113 294 136 q 424 90 375 90 q 553 158 510 90 q 597 367 597 225 q 558 576 597 508 q 439 644 519 644 z "},"с":{"ha":833,"x_min":122,"x_max":722,"o":"m 474 96 q 660 158 565 96 l 722 72 q 606 8 674 32 q 471 -17 539 -17 q 214 86 306 -17 q 122 363 122 189 q 164 562 122 474 q 285 700 206 650 q 472 750 364 750 q 721 663 614 750 l 658 576 q 474 640 565 640 q 322 570 378 640 q 265 363 265 500 q 322 161 265 226 q 474 96 378 96 z "},"т":{"ha":833,"x_min":86,"x_max":756,"o":"m 740 625 l 483 625 l 483 0 l 350 0 l 350 625 l 86 625 l 86 732 l 756 732 l 740 625 z "},"у":{"ha":833,"x_min":78,"x_max":756,"o":"m 500 -4 q 378 -208 457 -133 q 160 -297 300 -283 l 142 -193 q 258 -157 214 -181 q 328 -97 303 -133 q 375 0 354 -60 l 329 0 l 78 732 l 219 732 l 419 97 l 618 732 l 756 732 l 500 -4 z "},"ў":{"ha":833,"x_min":78,"x_max":756,"o":"m 500 -4 q 378 -208 457 -133 q 160 -297 300 -283 l 142 -193 q 258 -157 214 -181 q 328 -97 303 -133 q 375 0 354 -60 l 329 0 l 78 732 l 219 732 l 419 97 l 618 732 l 756 732 l 500 -4 m 414 890 q 270 935 328 890 q 204 1056 213 979 l 290 1075 q 334 1010 304 1031 q 414 990 364 990 q 542 1075 514 990 l 628 1056 q 560 935 619 979 q 414 890 501 890 z "},"ф":{"ha":833,"x_min":36,"x_max":797,"o":"m 474 1026 l 474 676 q 610 750 532 750 q 756 652 714 750 q 797 367 797 554 q 745 87 797 190 q 597 -17 693 -17 q 474 58 528 -17 l 474 -281 l 360 -297 l 360 58 q 301 2 333 21 q 233 -17 268 -17 q 87 86 138 -17 q 36 367 36 189 q 81 651 36 551 q 231 750 126 750 q 360 679 304 750 l 360 1043 l 474 1026 m 264 647 q 192 582 214 647 q 169 367 169 517 q 192 151 169 217 q 264 85 214 85 q 310 100 290 85 q 360 151 331 115 l 360 586 q 313 633 333 619 q 264 647 293 647 m 576 647 q 523 633 546 647 q 474 585 500 618 l 474 151 q 520 100 500 115 q 568 85 540 85 q 641 151 617 85 q 665 367 665 218 q 645 583 665 519 q 576 647 625 647 z "},"х":{"ha":833,"x_min":69,"x_max":764,"o":"m 69 0 l 338 386 l 101 732 l 257 732 l 418 467 l 581 732 l 731 732 l 496 392 l 764 0 l 604 0 l 413 308 l 219 0 l 69 0 z "},"ч":{"ha":833,"x_min":110,"x_max":688,"o":"m 688 0 l 554 0 l 554 304 q 453 245 513 267 q 328 224 394 224 q 165 281 221 224 q 110 442 110 338 l 110 732 l 243 732 l 243 457 q 273 358 243 389 q 365 328 303 328 q 469 349 417 328 q 554 406 522 371 l 554 732 l 688 732 l 688 0 z "},"ц":{"ha":833,"x_min":122,"x_max":801,"o":"m 801 107 l 801 -210 l 693 -210 l 672 0 l 122 0 l 122 732 l 256 732 l 256 108 l 558 108 l 558 732 l 692 732 l 692 107 l 801 107 z "},"ш":{"ha":833,"x_min":63,"x_max":771,"o":"m 771 0 l 63 0 l 63 732 l 185 732 l 185 108 l 358 108 l 358 732 l 475 732 l 475 108 l 649 108 l 649 732 l 771 732 l 771 0 z "},"щ":{"ha":833,"x_min":63,"x_max":865,"o":"m 865 107 l 865 -210 l 757 -210 l 736 0 l 63 0 l 63 732 l 185 732 l 185 108 l 358 108 l 358 732 l 475 732 l 475 108 l 649 108 l 649 732 l 771 732 l 771 107 l 865 107 z "},"џ":{"ha":833,"x_min":132,"x_max":701,"o":"m 701 0 l 481 0 l 481 -210 l 372 -210 l 351 0 l 132 0 l 132 732 l 265 732 l 265 108 l 568 108 l 568 732 l 701 732 l 701 0 z "},"ь":{"ha":833,"x_min":167,"x_max":746,"o":"m 300 504 l 432 504 q 672 440 599 504 q 746 253 746 375 q 663 63 746 126 q 456 0 579 0 l 167 0 l 167 732 l 300 732 l 300 504 m 300 404 l 300 103 l 444 103 q 563 138 521 103 q 604 254 604 172 q 565 367 604 331 q 432 404 526 404 l 300 404 z "},"ъ":{"ha":833,"x_min":42,"x_max":763,"o":"m 344 504 l 426 504 q 763 256 763 504 q 674 61 763 122 q 431 0 586 0 l 211 0 l 211 632 l 42 632 l 42 732 l 344 732 l 344 504 m 344 403 l 344 103 l 438 103 q 573 136 525 103 q 621 256 621 169 q 575 369 621 335 q 438 403 529 403 l 344 403 z "},"ы":{"ha":833,"x_min":78,"x_max":756,"o":"m 201 497 l 246 497 q 558 254 558 497 q 477 63 558 125 q 249 0 396 0 l 78 0 l 78 732 l 201 732 l 201 497 m 756 0 l 631 0 l 631 732 l 756 732 l 756 0 m 201 403 l 201 99 l 251 99 q 381 133 338 99 q 425 254 425 168 q 383 368 425 333 q 251 403 342 403 l 201 403 z "},"љ":{"ha":833,"x_min":1,"x_max":825,"o":"m 508 497 l 526 497 q 748 438 671 497 q 825 254 825 378 q 747 64 825 128 q 529 0 668 0 l 385 0 l 385 631 l 249 631 l 240 446 q 213 202 233 289 q 156 69 193 115 q 49 -17 118 24 l 1 71 q 56 130 35 97 q 92 235 76 163 q 115 442 108 308 l 129 732 l 508 732 l 508 497 m 508 403 l 508 99 l 533 99 q 653 133 615 99 q 692 254 692 167 q 654 368 692 333 q 532 403 617 403 l 508 403 z "},"њ":{"ha":833,"x_min":92,"x_max":829,"o":"m 513 460 l 531 460 q 829 231 829 460 q 532 0 829 0 l 389 0 l 389 365 l 217 365 l 217 0 l 92 0 l 92 732 l 217 732 l 217 460 l 389 460 l 389 732 l 513 732 l 513 460 m 513 365 l 513 99 l 535 99 q 624 108 590 99 q 677 147 658 118 q 696 232 696 176 q 658 335 696 306 q 536 365 621 365 l 513 365 z "},"ѕ":{"ha":833,"x_min":97,"x_max":704,"o":"m 389 89 q 515 118 469 89 q 561 197 561 147 q 549 254 561 232 q 499 294 536 276 q 385 332 461 313 q 199 410 260 364 q 139 544 139 456 q 217 694 139 638 q 422 750 294 750 q 694 667 582 750 l 636 579 q 540 627 590 610 q 426 644 490 644 q 276 556 276 644 q 293 506 276 525 q 349 469 310 486 q 467 432 389 453 q 645 351 586 400 q 704 206 704 301 q 613 39 704 94 q 389 -17 522 -17 q 97 83 213 -17 l 169 168 q 270 110 214 131 q 389 89 326 89 z "},"є":{"ha":833,"x_min":122,"x_max":722,"o":"m 472 750 q 722 667 615 750 l 661 583 q 569 630 614 615 q 474 644 524 644 q 331 588 388 644 q 261 425 274 532 l 588 425 l 588 325 l 260 325 q 325 148 268 206 q 474 90 382 90 q 570 106 525 90 q 663 153 615 121 l 722 69 q 606 6 672 28 q 474 -17 539 -17 q 215 85 307 -17 q 122 363 122 188 q 164 562 122 474 q 285 700 206 650 q 472 750 364 750 z "},"э":{"ha":833,"x_min":122,"x_max":722,"o":"m 386 750 q 637 648 551 750 q 722 369 722 546 q 632 88 722 193 q 376 -17 542 -17 q 239 6 306 -17 q 122 71 172 29 l 185 156 q 375 90 272 90 q 522 147 468 90 q 585 325 576 204 l 251 325 l 251 425 l 583 425 q 522 590 574 536 q 382 644 469 644 q 190 582 276 644 l 129 664 q 247 728 179 706 q 386 750 314 750 z "},"і":{"ha":833,"x_min":160,"x_max":719,"o":"m 417 1082 q 484 1056 458 1082 q 510 993 510 1031 q 484 929 510 954 q 417 904 458 904 q 351 929 376 904 q 325 993 325 954 q 351 1056 325 1031 q 417 1082 376 1082 m 515 101 l 719 101 l 719 0 l 160 0 l 160 101 l 382 101 l 382 631 l 167 631 l 167 732 l 515 732 l 515 101 z "},"ї":{"ha":833,"x_min":160,"x_max":719,"o":"m 515 101 l 719 101 l 719 0 l 160 0 l 160 101 l 382 101 l 382 631 l 167 631 l 167 732 l 515 732 l 515 101 m 271 897 q 213 920 236 897 q 189 978 189 943 q 213 1035 189 1013 q 271 1058 236 1058 q 329 1035 306 1058 q 353 978 353 1013 q 329 920 353 943 q 271 897 306 897 m 564 897 q 506 920 529 897 q 482 978 482 943 q 506 1035 482 1013 q 564 1058 529 1058 q 623 1035 600 1058 q 646 978 646 1013 q 622 920 646 943 q 564 897 599 897 z "},"ј":{"ha":833,"x_min":128,"x_max":624,"o":"m 510 1082 q 577 1056 551 1082 q 603 993 603 1031 q 577 929 603 954 q 510 904 551 904 q 444 929 469 904 q 418 993 418 954 q 444 1056 418 1031 q 510 1082 469 1082 m 624 133 q 504 -154 624 -53 q 149 -297 385 -256 l 128 -194 q 397 -90 304 -162 q 490 125 490 -17 l 490 631 l 193 631 l 193 732 l 624 732 l 624 133 z "},"ћ":{"ha":833,"x_min":24,"x_max":703,"o":"m 497 750 q 651 694 600 750 q 703 532 703 638 l 703 0 l 569 0 l 569 521 q 541 616 569 586 q 451 646 513 646 q 348 612 397 646 q 265 529 299 578 l 265 0 l 132 0 l 132 829 l 24 829 l 24 928 l 132 928 l 132 1025 l 265 1040 l 265 928 l 494 928 l 494 829 l 265 829 l 265 636 q 371 721 310 692 q 497 750 432 750 z "},"ю":{"ha":833,"x_min":72,"x_max":793,"o":"m 538 750 q 729 650 665 750 q 793 367 793 550 q 730 85 793 188 q 538 -17 667 -17 q 356 74 417 -17 q 286 321 294 165 l 197 321 l 197 0 l 72 0 l 72 732 l 197 732 l 197 426 l 286 426 q 358 665 296 581 q 538 750 419 750 m 538 646 q 444 581 469 646 q 418 365 418 515 q 443 155 418 222 q 538 88 468 88 q 633 155 607 88 q 658 367 658 222 q 631 579 658 513 q 538 646 604 646 z "},"я":{"ha":833,"x_min":65,"x_max":683,"o":"m 683 732 l 683 0 l 550 0 l 550 279 l 367 279 l 214 0 l 65 0 l 240 310 q 113 507 113 371 q 190 674 113 615 q 411 732 268 732 l 683 732 m 550 379 l 550 632 l 408 632 q 292 602 331 632 q 253 508 253 572 q 289 410 253 440 q 406 379 325 379 l 550 379 z "},"ђ":{"ha":833,"x_min":24,"x_max":703,"o":"m 265 928 l 494 928 l 494 829 l 265 829 l 265 640 q 370 721 308 692 q 497 750 432 750 q 651 694 600 750 q 703 532 703 638 l 703 49 q 678 -119 703 -56 q 605 -220 653 -182 q 475 -296 557 -258 l 425 -199 q 509 -149 479 -174 q 554 -81 539 -125 q 569 38 569 -37 l 569 524 q 541 617 569 588 q 451 646 513 646 q 348 612 397 646 q 265 529 299 578 l 265 0 l 132 0 l 132 829 l 24 829 l 24 928 l 132 928 l 132 1025 l 265 1040 l 265 928 z "},"ѡ":{"ha":833,"x_min":33,"x_max":800,"o":"m 729 732 q 800 332 800 533 q 746 74 800 165 q 588 -17 692 -17 q 415 142 440 -17 q 356 24 399 64 q 244 -17 313 -17 q 86 72 139 -17 q 33 332 33 161 q 104 732 33 551 l 218 732 q 173 533 185 624 q 161 335 161 443 q 183 151 161 214 q 261 89 206 89 q 336 151 315 89 q 357 321 357 213 l 357 492 l 476 510 l 476 321 q 497 147 476 206 q 572 89 518 89 q 650 151 628 89 q 672 335 672 214 q 659 529 672 438 q 611 732 646 621 l 729 732 z "},"ѣ":{"ha":833,"x_min":76,"x_max":754,"o":"m 325 747 l 510 747 l 493 647 l 325 647 l 325 497 l 417 497 q 754 251 754 497 q 666 60 754 119 q 422 0 578 0 l 192 0 l 192 647 l 76 647 l 76 747 l 192 747 l 192 899 l 325 914 l 325 747 m 325 397 l 325 103 l 429 103 q 565 135 518 103 q 613 251 613 167 q 566 363 613 328 q 429 397 519 397 l 325 397 z "},"ѥ":{"ha":833,"x_min":97,"x_max":810,"o":"m 604 89 q 675 103 644 89 q 739 144 706 117 l 806 69 q 711 6 764 28 q 606 -17 658 -17 q 398 74 475 -17 q 311 321 321 164 l 226 321 l 226 0 l 97 0 l 97 732 l 226 732 l 226 426 l 313 426 q 403 662 326 574 q 610 750 481 750 q 715 731 667 750 q 810 671 764 711 l 744 594 q 679 633 711 621 q 608 646 647 646 q 493 590 533 646 q 440 425 453 533 l 703 425 l 703 325 l 439 325 q 488 147 443 206 q 604 89 532 89 z "},"ѧ":{"ha":833,"x_min":46,"x_max":789,"o":"m 549 279 l 468 279 l 468 0 l 360 0 l 360 279 l 282 279 l 178 0 l 46 0 l 339 732 l 497 732 l 789 0 l 653 0 l 549 279 m 511 381 l 415 636 l 319 381 l 511 381 z "},"ѩ":{"ha":833,"x_min":64,"x_max":832,"o":"m 633 279 l 582 279 l 582 0 l 482 0 l 482 279 l 433 279 l 357 0 l 240 0 l 322 279 l 188 279 l 188 0 l 64 0 l 64 732 l 188 732 l 188 381 l 353 381 l 457 732 l 615 732 l 832 0 l 711 0 l 633 279 m 606 381 l 533 639 l 463 381 l 606 381 z "},"ѫ":{"ha":833,"x_min":26,"x_max":807,"o":"m 807 0 l 688 0 l 578 315 l 479 315 l 479 0 l 354 0 l 354 315 l 257 315 l 149 0 l 26 0 l 178 415 l 300 415 l 133 663 l 133 732 l 692 732 l 692 663 l 525 415 l 657 415 l 807 0 m 415 415 l 556 638 l 274 638 l 415 415 z "},"ѭ":{"ha":833,"x_min":40,"x_max":854,"o":"m 854 0 l 735 0 l 642 314 l 592 314 l 592 0 l 476 0 l 476 314 l 426 314 l 332 0 l 213 0 l 317 314 l 164 314 l 164 0 l 40 0 l 40 732 l 164 732 l 164 415 l 424 415 l 278 663 l 278 732 l 782 732 l 782 663 l 638 415 l 721 415 l 854 0 m 533 415 l 654 640 l 411 640 l 533 415 z "},"ѯ":{"ha":833,"x_min":111,"x_max":724,"o":"m 629 1039 l 442 869 l 354 869 l 165 1039 l 224 1101 l 399 975 l 572 1101 l 629 1039 m 300 -300 q 160 -213 207 -261 q 114 -104 114 -165 q 171 6 114 -33 q 357 61 228 44 q 488 85 440 71 q 558 123 535 99 q 581 189 581 147 q 551 269 581 244 q 465 294 522 294 l 229 294 l 229 389 l 511 624 l 111 624 l 111 732 l 683 732 l 683 632 l 383 392 l 478 392 q 659 341 594 392 q 724 188 724 290 q 647 32 724 86 q 432 -40 571 -22 q 318 -60 357 -50 q 265 -82 279 -69 q 250 -115 250 -94 q 274 -165 250 -142 q 347 -214 297 -187 l 300 -300 z "},"ѱ":{"ha":833,"x_min":54,"x_max":793,"o":"m 478 94 q 594 136 554 104 q 649 222 635 168 q 664 364 664 276 q 628 732 664 524 l 756 732 q 793 353 793 542 q 478 -10 793 19 l 478 -281 l 358 -297 l 358 -10 q 128 79 203 3 q 54 271 54 156 l 54 732 l 182 732 l 182 279 q 222 149 182 193 q 358 94 261 104 l 358 732 l 478 732 l 478 94 z "},"ѳ":{"ha":833,"x_min":94,"x_max":739,"o":"m 418 750 q 656 647 572 750 q 739 367 739 544 q 654 88 739 192 q 417 -17 569 -17 q 178 85 261 -17 q 94 365 94 188 q 179 645 94 540 q 418 750 264 750 m 418 643 q 238 422 250 643 l 596 422 q 418 643 583 643 m 238 322 q 290 145 246 201 q 417 89 333 89 q 543 145 499 89 q 596 322 588 201 l 238 322 z "},"ѵ":{"ha":833,"x_min":71,"x_max":825,"o":"m 71 732 l 215 732 l 404 117 l 564 642 q 624 762 589 726 q 728 797 660 797 q 825 774 771 797 l 788 682 q 746 690 769 690 q 710 677 724 690 q 686 631 697 664 l 483 0 l 322 0 l 71 732 z "},"ѷ":{"ha":833,"x_min":71,"x_max":825,"o":"m 71 732 l 215 732 l 404 117 l 564 642 q 624 762 589 726 q 728 797 660 797 q 825 774 771 797 l 788 682 q 746 690 769 690 q 710 677 724 690 q 686 631 697 664 l 483 0 l 322 0 l 71 732 m 269 878 l 115 1108 l 225 1165 l 349 919 l 269 878 m 494 881 l 353 1113 l 464 1165 l 576 919 l 494 881 z "},"ѹ":{"ha":833,"x_min":-1,"x_max":842,"o":"m 214 -17 q 51 83 104 -17 q -1 365 -1 183 q 52 647 -1 544 q 215 750 106 750 q 378 649 326 750 q 431 367 431 549 q 377 85 431 188 q 214 -17 324 -17 m 376 -207 q 531 -140 479 -185 q 603 0 582 -94 l 547 0 l 422 732 l 547 732 l 635 97 l 721 732 l 842 732 l 717 8 q 612 -207 692 -132 q 396 -297 532 -282 l 376 -207 m 214 79 q 288 146 268 79 q 308 367 308 213 q 288 588 308 521 q 215 654 268 654 q 142 587 163 654 q 121 365 121 519 q 141 146 121 213 q 214 79 161 79 z "},"ғ":{"ha":833,"x_min":126,"x_max":774,"o":"m 386 622 l 386 422 l 557 422 l 557 322 l 386 322 l 386 0 l 253 0 l 253 322 l 126 322 l 126 422 l 253 422 l 253 732 l 774 732 l 757 622 l 386 622 z "},"ҕ":{"ha":833,"x_min":138,"x_max":700,"o":"m 700 1 l 700 -76 q 642 -240 700 -183 q 486 -297 585 -297 q 325 -243 393 -297 l 376 -161 q 426 -183 406 -176 q 478 -190 447 -190 q 567 -89 567 -190 l 567 0 l 565 0 l 565 253 q 456 381 565 381 q 356 352 399 381 q 271 271 313 324 l 271 0 l 138 0 l 138 732 l 599 732 l 582 629 l 271 629 l 271 381 q 367 456 311 428 q 489 485 422 485 q 641 426 583 485 q 699 264 699 368 l 699 1 l 700 1 z "},"җ":{"ha":833,"x_min":29,"x_max":839,"o":"m 839 107 l 839 -210 l 746 -210 l 724 0 l 674 0 l 540 339 l 472 339 l 472 0 l 361 0 l 361 339 l 290 339 l 157 0 l 29 0 l 192 393 l 42 732 l 171 732 l 290 435 l 361 435 l 361 732 l 472 732 l 472 435 l 543 435 l 667 732 l 792 732 l 642 393 l 760 107 l 839 107 z "},"ҙ":{"ha":833,"x_min":68,"x_max":722,"o":"m 722 218 q 647 59 722 119 q 447 -14 572 -1 l 447 -78 q 545 -117 513 -83 q 578 -196 578 -150 q 528 -299 578 -262 q 403 -336 478 -336 q 321 -327 360 -336 q 254 -301 282 -318 l 293 -229 q 386 -251 338 -251 q 468 -196 468 -251 q 438 -151 468 -162 q 347 -139 408 -139 l 357 -17 q 68 85 188 -10 l 131 168 q 248 109 186 129 q 386 89 310 89 q 530 123 481 89 q 579 217 579 157 q 401 331 579 331 l 253 331 l 261 433 l 393 433 q 504 462 464 433 q 544 539 544 490 q 379 646 544 646 q 265 630 324 646 q 157 583 207 614 l 94 661 q 229 726 151 703 q 386 750 307 750 q 599 697 515 750 q 682 549 682 644 q 641 449 682 489 q 529 390 600 410 q 664 342 606 388 q 722 218 722 296 z "},"қ":{"ha":833,"x_min":139,"x_max":817,"o":"m 817 107 l 817 -210 l 708 -210 l 688 0 l 638 0 l 408 336 l 272 336 l 272 0 l 139 0 l 139 732 l 272 732 l 272 439 l 411 439 l 614 732 l 760 732 l 519 393 l 719 107 l 817 107 z "},"ҝ":{"ha":833,"x_min":139,"x_max":794,"o":"m 139 732 l 272 732 l 272 438 l 332 438 l 332 597 l 397 597 l 397 438 l 435 438 l 622 732 l 760 732 l 542 394 l 794 0 l 650 0 l 435 336 l 397 336 l 397 167 l 332 167 l 332 336 l 272 336 l 272 0 l 139 0 l 139 732 z "},"ҟ":{"ha":833,"x_min":49,"x_max":785,"o":"m 785 0 l 629 0 l 400 336 l 292 336 l 292 0 l 158 0 l 158 788 l 49 788 l 49 886 l 158 886 l 158 1026 l 292 1043 l 292 886 l 492 886 l 492 788 l 292 788 l 292 439 l 403 439 l 606 732 l 750 732 l 511 393 l 785 0 z "},"ҡ":{"ha":833,"x_min":10,"x_max":819,"o":"m 819 0 l 663 0 l 435 336 l 311 336 l 311 0 l 178 0 l 178 632 l 10 632 l 10 732 l 311 732 l 311 439 l 438 439 l 639 732 l 783 732 l 546 393 l 819 0 z "},"ң":{"ha":833,"x_min":111,"x_max":790,"o":"m 790 107 l 790 -210 l 682 -210 l 661 0 l 547 0 l 547 321 l 244 321 l 244 0 l 111 0 l 111 732 l 244 732 l 244 426 l 547 426 l 547 732 l 681 732 l 681 107 l 790 107 z "},"ԥ":{"ha":833,"x_min":122,"x_max":801,"o":"m 801 107 l 801 -210 l 693 -210 l 672 0 l 558 0 l 558 626 l 256 626 l 256 0 l 122 0 l 122 732 l 692 732 l 692 107 l 801 107 z "},"ҧ":{"ha":833,"x_min":36,"x_max":829,"o":"m 649 485 q 778 431 728 485 q 829 289 829 376 l 829 -78 q 773 -241 829 -185 q 618 -297 717 -297 q 457 -243 528 -297 l 508 -161 q 558 -185 536 -178 q 611 -192 579 -192 q 700 -90 700 -192 l 700 281 q 678 356 700 329 q 615 382 656 382 q 553 369 581 382 q 500 332 526 357 l 500 0 l 369 0 l 369 626 l 168 626 l 168 0 l 36 0 l 36 732 l 500 732 l 500 428 q 649 485 560 485 z "},"ҩ":{"ha":833,"x_min":76,"x_max":769,"o":"m 769 303 q 727 150 769 222 q 610 35 685 78 q 726 -110 640 -6 l 646 -172 l 621 -142 q 508 -6 547 -56 q 410 -17 460 -17 q 166 83 256 -17 q 76 360 76 183 q 115 565 76 476 q 228 701 154 653 q 400 750 301 750 q 572 707 494 750 l 521 613 q 406 640 468 640 q 269 571 318 640 q 219 363 219 501 q 417 92 219 92 l 439 92 q 384 199 403 149 q 365 299 365 249 q 420 445 365 386 q 569 504 475 504 q 715 450 661 504 q 769 303 769 396 m 488 299 q 549 119 488 215 q 624 194 599 146 q 649 304 649 242 q 628 380 649 353 q 569 407 607 407 q 508 378 529 407 q 488 299 488 349 z "},"ҫ":{"ha":833,"x_min":122,"x_max":722,"o":"m 529 -12 q 639 -179 639 -79 q 590 -293 639 -250 q 458 -336 542 -336 q 322 -301 381 -336 l 354 -225 q 400 -242 381 -236 q 450 -249 419 -249 q 509 -228 489 -249 q 529 -172 529 -207 q 428 -15 529 -81 q 202 99 282 -1 q 122 363 122 200 q 164 562 122 474 q 285 700 206 650 q 472 750 364 750 q 721 663 614 750 l 658 576 q 474 640 565 640 q 322 570 378 640 q 265 363 265 500 q 322 161 265 226 q 474 96 378 96 q 660 158 565 96 l 722 72 q 634 18 685 40 q 529 -12 583 -4 z "},"ҭ":{"ha":833,"x_min":86,"x_max":756,"o":"m 483 625 l 483 107 l 593 107 l 593 -210 l 485 -210 l 464 0 l 350 0 l 350 625 l 86 625 l 86 732 l 756 732 l 740 625 l 483 625 z "},"ү":{"ha":833,"x_min":72,"x_max":761,"o":"m 351 19 l 72 732 l 215 732 l 419 143 l 624 732 l 761 732 l 482 19 l 482 -281 l 351 -297 l 351 19 z "},"ұ":{"ha":833,"x_min":72,"x_max":761,"o":"m 514 100 l 625 100 l 625 1 l 482 1 l 482 -281 l 351 -297 l 351 1 l 208 1 l 208 100 l 319 100 l 72 732 l 215 732 l 419 143 l 624 732 l 761 732 l 514 100 z "},"ҳ":{"ha":833,"x_min":69,"x_max":764,"o":"m 69 0 l 338 386 l 101 732 l 257 732 l 418 467 l 581 732 l 731 732 l 496 392 l 764 0 l 604 0 l 413 308 l 219 0 l 69 0 m 481 -210 l 372 -210 l 351 0 l 301 0 l 299 107 l 481 107 l 481 -210 z "},"ҷ":{"ha":833,"x_min":96,"x_max":783,"o":"m 783 107 l 783 -210 l 675 -210 l 654 0 l 540 0 l 540 304 q 440 245 499 267 q 314 224 381 224 q 151 281 207 224 q 96 442 96 338 l 96 732 l 229 732 l 229 457 q 259 358 229 389 q 351 328 289 328 q 456 349 403 328 q 540 406 508 371 l 540 732 l 674 732 l 674 107 l 783 107 z "},"ҹ":{"ha":833,"x_min":110,"x_max":688,"o":"m 688 732 l 688 0 l 554 0 l 554 304 q 425 236 503 257 l 425 124 l 349 124 l 349 224 l 328 224 q 165 281 221 224 q 110 442 110 338 l 110 732 l 243 732 l 243 457 q 269 363 243 393 q 349 328 294 332 l 349 543 l 425 543 l 425 335 q 498 363 464 344 q 554 406 532 381 l 554 732 l 688 732 z "},"һ":{"ha":833,"x_min":133,"x_max":701,"o":"m 485 667 q 643 607 585 667 q 701 443 701 547 l 701 0 l 568 0 l 568 425 q 538 531 568 499 q 453 563 508 563 q 349 532 393 563 q 267 443 306 501 l 267 0 l 133 0 l 133 1025 l 267 1040 l 267 556 q 360 638 306 608 q 485 667 415 667 z "},"ԧ":{"ha":833,"x_min":126,"x_max":804,"o":"m 804 107 l 804 -210 l 696 -210 l 675 0 l 561 0 l 561 425 q 531 531 561 499 q 446 563 501 563 q 342 532 386 563 q 260 443 299 501 l 260 0 l 126 0 l 126 1025 l 260 1040 l 260 556 q 353 638 299 608 q 478 667 408 667 q 636 607 578 667 q 694 443 694 547 l 694 107 l 804 107 z "},"ҽ":{"ha":833,"x_min":14,"x_max":775,"o":"m 775 388 q 772 321 775 354 l 331 321 q 385 148 333 206 q 519 90 438 90 q 603 103 567 90 q 682 144 639 117 l 743 64 q 641 6 699 28 q 518 -17 583 -17 q 294 75 376 -17 q 200 322 211 167 q 61 367 108 324 q 14 483 14 410 q 27 553 14 522 q 65 622 40 585 l 147 585 q 126 533 133 554 q 119 488 119 511 q 138 436 119 454 q 190 418 156 418 l 201 418 q 293 658 214 565 q 496 750 372 750 q 701 653 628 750 q 775 388 775 557 m 650 418 q 497 647 646 647 q 380 590 424 647 q 331 418 336 533 l 650 418 z "},"ҿ":{"ha":833,"x_min":14,"x_max":775,"o":"m 775 388 q 772 321 775 354 l 331 321 q 385 148 333 206 q 519 90 438 90 q 603 103 567 90 q 682 144 639 117 l 743 64 q 625 0 693 22 q 490 -78 526 -42 q 454 -158 454 -115 q 532 -225 454 -225 q 617 -215 569 -225 l 604 -314 q 517 -324 556 -324 q 388 -284 436 -324 q 340 -182 340 -244 q 369 -87 340 -129 q 457 -11 399 -46 q 276 95 343 7 q 200 322 210 183 q 61 367 108 324 q 14 483 14 410 q 27 553 14 522 q 65 622 40 585 l 147 585 q 126 533 133 554 q 119 488 119 511 q 138 436 119 454 q 190 418 156 418 l 201 418 q 293 658 214 565 q 496 750 372 750 q 701 653 628 750 q 775 388 775 557 m 650 418 q 497 647 646 647 q 380 590 424 647 q 331 418 336 533 l 650 418 z "},"ӏ":{"ha":833,"x_min":78,"x_max":704,"o":"m 433 189 q 550 93 433 93 q 671 118 607 93 l 704 22 q 525 -17 629 -17 q 360 41 421 -17 q 300 199 300 99 l 300 925 l 78 925 l 78 1026 l 433 1026 l 433 189 z "},"ӂ":{"ha":833,"x_min":22,"x_max":811,"o":"m 361 339 l 290 339 l 150 0 l 22 0 l 192 393 l 33 732 l 164 732 l 290 435 l 361 435 l 361 732 l 472 732 l 472 435 l 543 435 l 674 732 l 800 732 l 642 393 l 811 0 l 682 0 l 540 339 l 472 339 l 472 0 l 361 0 l 361 339 m 414 890 q 270 935 328 890 q 204 1056 213 979 l 290 1075 q 334 1010 304 1031 q 414 990 364 990 q 542 1075 514 990 l 628 1056 q 560 935 619 979 q 414 890 501 890 z "},"ӄ":{"ha":833,"x_min":140,"x_max":697,"o":"m 494 417 q 640 350 589 407 q 690 192 690 293 l 690 -76 q 633 -240 690 -183 q 476 -297 575 -297 q 315 -243 383 -297 l 367 -161 q 417 -183 396 -176 q 468 -190 438 -190 q 557 -89 557 -190 l 557 181 q 525 287 557 256 q 418 318 493 318 l 274 318 l 274 0 l 140 0 l 140 732 l 274 732 l 274 421 l 367 421 l 557 732 l 697 732 l 494 417 z "},"ӆ":{"ha":833,"x_min":50,"x_max":782,"o":"m 782 108 l 682 -210 l 574 -210 l 622 0 l 536 0 l 536 625 l 322 625 l 308 449 q 275 198 296 283 q 217 67 254 113 q 107 -17 181 22 l 50 68 q 113 125 90 93 q 153 231 136 157 q 181 443 169 304 l 203 732 l 669 732 l 669 108 l 782 108 z "},"ӈ":{"ha":833,"x_min":132,"x_max":701,"o":"m 701 732 l 701 -76 q 644 -240 701 -183 q 488 -297 586 -297 q 326 -243 394 -297 l 378 -161 q 428 -183 407 -176 q 479 -190 449 -190 q 568 -89 568 -190 l 568 321 l 265 321 l 265 0 l 132 0 l 132 732 l 265 732 l 265 426 l 568 426 l 568 732 l 701 732 z "},"ӊ":{"ha":833,"x_min":133,"x_max":786,"o":"m 786 108 l 686 -210 l 578 -210 l 626 0 l 540 0 l 540 321 l 267 321 l 267 0 l 133 0 l 133 732 l 267 732 l 267 426 l 540 426 l 540 732 l 674 732 l 674 108 l 786 108 z "},"ӌ":{"ha":833,"x_min":110,"x_max":688,"o":"m 688 732 l 688 0 l 585 0 l 564 -210 l 456 -210 l 456 107 l 554 107 l 554 319 q 453 260 513 282 q 328 239 394 239 q 165 296 221 239 q 110 457 110 353 l 110 732 l 243 732 l 243 472 q 273 374 243 404 q 365 343 303 343 q 469 365 417 343 q 554 421 522 386 l 554 732 l 688 732 z "},"ӎ":{"ha":833,"x_min":65,"x_max":833,"o":"m 833 108 l 733 -210 l 631 -210 l 679 0 l 610 0 l 585 340 q 578 561 578 451 l 578 617 l 464 122 l 340 122 l 211 617 q 213 515 213 583 q 208 340 213 419 l 189 0 l 65 0 l 117 732 l 283 732 l 404 240 l 511 732 l 682 732 l 726 108 l 833 108 z "},"ӑ":{"ha":833,"x_min":88,"x_max":731,"o":"m 672 168 q 685 105 672 125 q 731 75 699 85 l 699 -17 q 557 86 589 -3 q 458 10 518 36 q 326 -17 399 -17 q 151 45 215 -17 q 88 210 88 107 q 177 385 88 324 q 433 447 267 447 l 539 447 l 539 501 q 496 608 539 575 q 371 642 453 642 q 178 604 285 642 l 143 701 q 390 750 276 750 q 601 687 529 750 q 672 510 672 624 l 672 168 m 363 82 q 462 108 415 82 q 539 182 508 135 l 539 360 l 442 360 q 280 322 331 360 q 229 213 229 285 q 263 115 229 149 q 363 82 296 82 m 403 890 q 259 935 317 890 q 193 1056 201 979 l 279 1075 q 323 1010 293 1031 q 403 990 353 990 q 531 1075 503 990 l 617 1056 q 549 935 608 979 q 403 890 490 890 z "},"ӓ":{"ha":833,"x_min":88,"x_max":731,"o":"m 672 168 q 685 105 672 125 q 731 75 699 85 l 699 -17 q 557 86 589 -3 q 458 10 518 36 q 326 -17 399 -17 q 151 45 215 -17 q 88 210 88 107 q 177 385 88 324 q 433 447 267 447 l 539 447 l 539 501 q 496 608 539 575 q 371 642 453 642 q 178 604 285 642 l 143 701 q 390 750 276 750 q 601 687 529 750 q 672 510 672 624 l 672 168 m 363 82 q 462 108 415 82 q 539 182 508 135 l 539 360 l 442 360 q 280 322 331 360 q 229 213 229 285 q 263 115 229 149 q 363 82 296 82 m 258 897 q 200 920 224 897 q 176 978 176 943 q 200 1035 176 1013 q 258 1058 224 1058 q 317 1035 293 1058 q 340 978 340 1013 q 317 920 340 943 q 258 897 293 897 m 551 897 q 493 920 517 897 q 469 978 469 943 q 493 1035 469 1013 q 551 1058 517 1058 q 610 1035 588 1058 q 633 978 633 1013 q 610 920 633 943 q 551 897 586 897 z "},"ӗ":{"ha":833,"x_min":101,"x_max":733,"o":"m 240 321 q 303 148 246 206 q 449 90 361 90 q 547 106 501 90 q 643 156 593 122 l 703 71 q 583 6 651 29 q 444 -17 515 -17 q 192 88 282 -17 q 101 365 101 192 q 141 563 101 476 q 255 700 181 650 q 428 750 329 750 q 651 653 569 750 q 733 388 733 556 q 731 321 733 354 l 240 321 m 429 646 q 298 588 349 646 q 240 418 247 531 l 604 418 q 556 587 603 528 q 429 646 510 646 m 428 890 q 284 935 342 890 q 218 1056 226 979 l 304 1075 q 348 1010 318 1031 q 428 990 378 990 q 556 1075 528 990 l 642 1056 q 574 935 633 979 q 428 890 515 890 z "},"ә":{"ha":833,"x_min":94,"x_max":738,"o":"m 406 750 q 656 649 574 750 q 738 367 738 547 q 650 86 738 189 q 408 -17 563 -17 q 178 79 263 -17 q 94 344 94 175 q 97 411 94 392 l 596 411 q 542 587 590 532 q 403 642 494 642 q 300 626 346 642 q 208 575 254 611 l 147 661 q 406 750 258 750 m 408 88 q 546 140 500 88 q 597 314 592 193 l 225 314 l 225 304 q 273 144 225 200 q 408 88 321 88 z "},"ӛ":{"ha":833,"x_min":94,"x_max":738,"o":"m 406 750 q 656 649 574 750 q 738 367 738 547 q 650 86 738 189 q 408 -17 563 -17 q 178 79 263 -17 q 94 344 94 175 q 97 411 94 392 l 596 411 q 542 587 590 532 q 403 642 494 642 q 300 626 346 642 q 208 575 254 611 l 147 661 q 406 750 258 750 m 408 88 q 546 140 500 88 q 597 314 592 193 l 225 314 l 225 304 q 273 144 225 200 q 408 88 321 88 m 272 897 q 214 920 238 897 q 190 978 190 943 q 214 1035 190 1013 q 272 1058 238 1058 q 331 1035 307 1058 q 354 978 354 1013 q 331 920 354 943 q 272 897 307 897 m 565 897 q 507 920 531 897 q 483 978 483 943 q 507 1035 483 1013 q 565 1058 531 1058 q 624 1035 601 1058 q 647 978 647 1013 q 624 920 647 943 q 565 897 600 897 z "},"ӝ":{"ha":833,"x_min":22,"x_max":811,"o":"m 361 339 l 290 339 l 150 0 l 22 0 l 192 393 l 33 732 l 164 732 l 290 435 l 361 435 l 361 732 l 472 732 l 472 435 l 543 435 l 674 732 l 800 732 l 642 393 l 811 0 l 682 0 l 540 339 l 472 339 l 472 0 l 361 0 l 361 339 m 269 897 q 211 920 235 897 q 188 978 188 943 q 211 1035 188 1013 q 269 1058 235 1058 q 328 1035 304 1058 q 351 978 351 1013 q 328 920 351 943 q 269 897 304 897 m 563 897 q 504 920 528 897 q 481 978 481 943 q 504 1035 481 1013 q 563 1058 528 1058 q 622 1035 599 1058 q 644 978 644 1013 q 621 920 644 943 q 563 897 597 897 z "},"ӟ":{"ha":833,"x_min":68,"x_max":722,"o":"m 393 433 q 504 462 464 433 q 544 539 544 490 q 379 646 544 646 q 265 630 324 646 q 157 583 207 614 l 94 661 q 229 726 151 703 q 386 750 307 750 q 599 697 515 750 q 682 549 682 644 q 641 449 682 489 q 529 390 600 410 q 664 342 606 388 q 722 218 722 296 q 628 44 722 106 q 383 -17 535 -17 q 68 85 194 -17 l 131 168 q 248 109 186 129 q 386 89 310 89 q 530 123 481 89 q 579 217 579 157 q 401 331 579 331 l 253 331 l 261 433 l 393 433 m 260 897 q 201 920 225 897 q 178 978 178 943 q 201 1035 178 1013 q 260 1058 225 1058 q 318 1035 294 1058 q 342 978 342 1013 q 318 920 342 943 q 260 897 294 897 m 553 897 q 494 920 518 897 q 471 978 471 943 q 494 1035 471 1013 q 553 1058 518 1058 q 612 1035 589 1058 q 635 978 635 1013 q 611 920 635 943 q 553 897 588 897 z "},"ӡ":{"ha":833,"x_min":81,"x_max":724,"o":"m 399 288 q 637 217 550 288 q 724 11 724 146 q 681 -150 724 -81 q 561 -258 638 -219 q 386 -297 485 -297 q 210 -266 282 -297 q 81 -172 138 -235 l 157 -100 q 258 -168 206 -147 q 382 -189 310 -189 q 529 -137 476 -189 q 582 13 582 -85 q 528 148 582 106 q 367 190 474 190 l 242 190 l 242 285 l 539 624 l 124 624 l 124 732 l 690 732 l 690 632 l 385 288 l 399 288 z "},"ӣ":{"ha":833,"x_min":132,"x_max":701,"o":"m 701 0 l 569 0 l 569 325 q 576 485 569 410 q 586 585 582 561 l 289 0 l 132 0 l 132 732 l 264 732 l 264 407 q 258 252 264 331 q 249 151 253 174 l 542 732 l 701 732 l 701 0 m 225 935 l 225 1033 l 607 1033 l 607 935 l 225 935 z "},"ӥ":{"ha":833,"x_min":132,"x_max":701,"o":"m 701 0 l 569 0 l 569 325 q 576 485 569 410 q 586 585 582 561 l 289 0 l 132 0 l 132 732 l 264 732 l 264 407 q 258 252 264 331 q 249 151 253 174 l 542 732 l 701 732 l 701 0 m 269 897 q 211 920 235 897 q 188 978 188 943 q 211 1035 188 1013 q 269 1058 235 1058 q 328 1035 304 1058 q 351 978 351 1013 q 328 920 351 943 q 269 897 304 897 m 563 897 q 504 920 528 897 q 481 978 481 943 q 504 1035 481 1013 q 563 1058 528 1058 q 622 1035 599 1058 q 644 978 644 1013 q 621 920 644 943 q 563 897 597 897 z "},"ӧ":{"ha":833,"x_min":94,"x_max":739,"o":"m 418 750 q 656 647 572 750 q 739 367 739 544 q 654 88 739 192 q 417 -17 569 -17 q 178 85 261 -17 q 94 365 94 188 q 179 645 94 540 q 418 750 264 750 m 418 643 q 281 575 326 643 q 236 365 236 507 q 281 157 236 225 q 417 89 325 89 q 553 157 508 89 q 597 367 597 225 q 553 575 597 507 q 418 643 508 643 m 269 897 q 211 920 235 897 q 188 978 188 943 q 211 1035 188 1013 q 269 1058 235 1058 q 328 1035 304 1058 q 351 978 351 1013 q 328 920 351 943 q 269 897 304 897 m 563 897 q 504 920 528 897 q 481 978 481 943 q 504 1035 481 1013 q 563 1058 528 1058 q 622 1035 599 1058 q 644 978 644 1013 q 621 920 644 943 q 563 897 597 897 z "},"ө":{"ha":833,"x_min":94,"x_max":739,"o":"m 418 750 q 656 647 572 750 q 739 367 739 544 q 654 88 739 192 q 417 -17 569 -17 q 178 85 261 -17 q 94 365 94 188 q 179 645 94 540 q 418 750 264 750 m 418 643 q 238 422 250 643 l 596 422 q 418 643 583 643 m 238 322 q 290 145 246 201 q 417 89 333 89 q 543 145 499 89 q 596 322 588 201 l 238 322 z "},"ӫ":{"ha":833,"x_min":94,"x_max":739,"o":"m 418 750 q 656 647 572 750 q 739 367 739 544 q 654 88 739 192 q 417 -17 569 -17 q 178 85 261 -17 q 94 365 94 188 q 179 645 94 540 q 418 750 264 750 m 418 643 q 238 422 250 643 l 596 422 q 418 643 583 643 m 238 322 q 290 145 246 201 q 417 89 333 89 q 543 145 499 89 q 596 322 588 201 l 238 322 m 271 897 q 213 920 236 897 q 189 978 189 943 q 213 1035 189 1013 q 271 1058 236 1058 q 329 1035 306 1058 q 353 978 353 1013 q 329 920 353 943 q 271 897 306 897 m 564 897 q 506 920 529 897 q 482 978 482 943 q 506 1035 482 1013 q 564 1058 529 1058 q 623 1035 600 1058 q 646 978 646 1013 q 622 920 646 943 q 564 897 599 897 z "},"ӭ":{"ha":833,"x_min":122,"x_max":722,"o":"m 386 750 q 637 648 551 750 q 722 369 722 546 q 632 88 722 193 q 376 -17 542 -17 q 239 6 306 -17 q 122 71 172 29 l 185 156 q 375 90 272 90 q 522 147 468 90 q 585 325 576 204 l 251 325 l 251 425 l 583 425 q 522 590 574 536 q 382 644 469 644 q 190 582 276 644 l 129 664 q 247 728 179 706 q 386 750 314 750 m 263 897 q 204 920 228 897 q 181 978 181 943 q 204 1035 181 1013 q 263 1058 228 1058 q 321 1035 297 1058 q 344 978 344 1013 q 321 920 344 943 q 263 897 297 897 m 556 897 q 497 920 521 897 q 474 978 474 943 q 497 1035 474 1013 q 556 1058 521 1058 q 615 1035 592 1058 q 638 978 638 1013 q 614 920 638 943 q 556 897 590 897 z "},"ӯ":{"ha":833,"x_min":78,"x_max":756,"o":"m 500 -4 q 378 -208 457 -133 q 160 -297 300 -283 l 142 -193 q 258 -157 214 -181 q 328 -97 303 -133 q 375 0 354 -60 l 329 0 l 78 732 l 219 732 l 419 97 l 618 732 l 756 732 l 500 -4 m 225 935 l 225 1033 l 607 1033 l 607 935 l 225 935 z "},"ӱ":{"ha":833,"x_min":78,"x_max":756,"o":"m 500 -4 q 378 -208 457 -133 q 160 -297 300 -283 l 142 -193 q 258 -157 214 -181 q 328 -97 303 -133 q 375 0 354 -60 l 329 0 l 78 732 l 219 732 l 419 97 l 618 732 l 756 732 l 500 -4 m 269 897 q 211 920 235 897 q 188 978 188 943 q 211 1035 188 1013 q 269 1058 235 1058 q 328 1035 304 1058 q 351 978 351 1013 q 328 920 351 943 q 269 897 304 897 m 563 897 q 504 920 528 897 q 481 978 481 943 q 504 1035 481 1013 q 563 1058 528 1058 q 622 1035 599 1058 q 644 978 644 1013 q 621 920 644 943 q 563 897 597 897 z "},"ӳ":{"ha":833,"x_min":78,"x_max":756,"o":"m 500 -4 q 378 -208 457 -133 q 160 -297 300 -283 l 142 -193 q 258 -157 214 -181 q 328 -97 303 -133 q 375 0 354 -60 l 329 0 l 78 732 l 219 732 l 419 97 l 618 732 l 756 732 l 500 -4 m 354 1165 l 465 1113 l 324 881 l 242 919 l 354 1165 m 593 1165 l 703 1108 l 549 878 l 469 919 l 593 1165 z "},"ӵ":{"ha":833,"x_min":110,"x_max":688,"o":"m 688 0 l 554 0 l 554 304 q 453 245 513 267 q 328 224 394 224 q 165 281 221 224 q 110 442 110 338 l 110 732 l 243 732 l 243 457 q 273 358 243 389 q 365 328 303 328 q 469 349 417 328 q 554 406 522 371 l 554 732 l 688 732 l 688 0 m 251 897 q 193 920 217 897 q 169 978 169 943 q 193 1035 169 1013 q 251 1058 217 1058 q 310 1035 286 1058 q 333 978 333 1013 q 310 920 333 943 q 251 897 286 897 m 544 897 q 486 920 510 897 q 463 978 463 943 q 486 1035 463 1013 q 544 1058 510 1058 q 603 1035 581 1058 q 626 978 626 1013 q 603 920 626 943 q 544 897 579 897 z "},"ӷ":{"ha":833,"x_min":211,"x_max":732,"o":"m 344 622 l 344 107 l 454 107 l 454 -210 l 346 -210 l 325 0 l 211 0 l 211 732 l 732 732 l 715 622 l 344 622 z "},"ӹ":{"ha":833,"x_min":78,"x_max":756,"o":"m 201 497 l 246 497 q 558 254 558 497 q 477 63 558 125 q 249 0 396 0 l 78 0 l 78 732 l 201 732 l 201 497 m 756 0 l 631 0 l 631 732 l 756 732 l 756 0 m 201 403 l 201 99 l 251 99 q 381 133 338 99 q 425 254 425 168 q 383 368 425 333 q 251 403 342 403 l 201 403 m 269 897 q 211 920 235 897 q 188 978 188 943 q 211 1035 188 1013 q 269 1058 235 1058 q 328 1035 304 1058 q 351 978 351 1013 q 328 920 351 943 q 269 897 304 897 m 563 897 q 504 920 528 897 q 481 978 481 943 q 504 1035 481 1013 q 563 1058 528 1058 q 622 1035 599 1058 q 644 978 644 1013 q 621 920 644 943 q 563 897 597 897 z "},"ӻ":{"ha":833,"x_min":119,"x_max":774,"o":"m 386 622 l 386 422 l 557 422 l 557 322 l 386 322 l 386 107 l 493 107 l 493 1 l 494 1 l 494 -76 q 437 -240 494 -183 q 281 -297 379 -297 q 119 -243 188 -297 l 171 -161 q 221 -183 200 -176 q 272 -190 242 -190 q 361 -89 361 -190 l 361 0 l 253 0 l 253 322 l 126 322 l 126 422 l 253 422 l 253 732 l 774 732 l 757 622 l 386 622 z "},"ӽ":{"ha":833,"x_min":56,"x_max":772,"o":"m 772 107 l 772 -76 q 715 -240 772 -183 q 558 -297 657 -297 q 397 -243 465 -297 l 449 -161 q 499 -183 478 -176 q 550 -190 519 -190 q 639 -89 639 -190 l 639 0 l 590 0 l 399 308 l 206 0 l 56 0 l 324 386 l 88 732 l 243 732 l 404 467 l 567 732 l 717 732 l 482 392 l 676 107 l 772 107 z "},"ӿ":{"ha":833,"x_min":69,"x_max":764,"o":"m 764 0 l 604 0 l 417 322 l 219 0 l 69 0 l 311 347 l 104 347 l 104 435 l 304 435 l 101 732 l 257 732 l 417 451 l 581 732 l 731 732 l 525 435 l 728 435 l 728 347 l 526 347 l 764 0 z "}}}
